<?xml version="1.0" standalone="no"?>
<!DOCTYPE svg PUBLIC "-//W3C//DTD SVG 1.1//EN" "http://www.w3.org/Graphics/SVG/1.1/DTD/svg11.dtd" >
<svg xmlns="http://www.w3.org/2000/svg">
<metadata></metadata>
<defs>
<font id="leroy_merlin_sanslight_italic" horiz-adv-x="0" >
<font-face units-per-em="2048" ascent="1577" descent="-471" />
<missing-glyph horiz-adv-x="419" />
<glyph unicode="fi" horiz-adv-x="1060" d="M983 1100l-233 -1100h-88l217 1018h-478l-233 -1106q-21 -100 -56.5 -168t-85.5 -104t-105 -51t-126 -15l17 80q108 0 171.5 54.5t94.5 197.5l235 1112h-176l17 82h176l35 157q12 60 37.5 113t64 97.5t95.5 70t126 25.5q87 0 156 -43l-33 -78q-53 37 -125 37 q-83 0 -145.5 -54t-87.5 -170l-33 -155h563zM1034 1540q27 0 43 -18.5t10 -48.5q-6 -29 -29.5 -48.5t-51.5 -19.5q-26 0 -42 20t-10 48q6 30 29.5 48.5t50.5 18.5z" />
<glyph unicode="fl" horiz-adv-x="1148" d="M-205 -426l17 80q108 0 171.5 54.5t94.5 197.5l235 1112h-176l17 82h176l35 157q12 60 37.5 113t64 97.5t95.5 70t126 25.5q87 0 156 -43l-33 -78q-53 37 -125 37q-83 0 -145.5 -54t-87.5 -170l-33 -155h268l-18 -82h-269l-233 -1106q-21 -100 -56.5 -168t-85.5 -104 t-105 -51t-126 -15zM899 -25q-94 0 -151.5 50t-57.5 159q0 46 12 107l265 1245h88l-260 -1235q-54 -244 129 -244q43 0 102 17l-6 -82q-70 -17 -121 -17z" />
<glyph unicode="&#xd;" horiz-adv-x="1083" />
<glyph unicode=" "  horiz-adv-x="419" />
<glyph unicode="&#x09;" horiz-adv-x="419" />
<glyph unicode="&#xa0;" horiz-adv-x="419" />
<glyph unicode="!" horiz-adv-x="565" d="M199 346l223 1077h96l-235 -1077h-84zM162 -14q-30 0 -46 20t-10 53q7 31 32.5 51.5t54.5 20.5q32 0 47.5 -20.5t7.5 -51.5q-6 -33 -30.5 -53t-55.5 -20z" />
<glyph unicode="&#x22;" horiz-adv-x="653" d="M242 907l106 516h88l-121 -516h-73zM475 907l109 516h86l-121 -516h-74z" />
<glyph unicode="#" horiz-adv-x="1118" d="M1124 907h-174l-116 -393h176l-25 -80h-174l-129 -434h-84l129 434h-426l-129 -434h-84l129 434h-178l24 80h177l116 393h-178l23 80h178l129 436h84l-129 -436h426l129 436h84l-129 -436h176zM750 514l116 393h-426l-116 -393h426z" />
<glyph unicode="$" horiz-adv-x="1044" d="M748 1450q128 -8 211.5 -66t111.5 -159l-94 -37q-23 79 -87.5 123.5t-160.5 50.5l-127 -598q39 -19 58 -28t55 -28.5t54 -33t46 -35.5t42 -42t30 -48t21 -56.5t5 -64.5t-8 -76q-35 -165 -164 -268t-307 -111l-31 -143h-65l31 145q-129 9 -218.5 74t-121.5 172l90 39 q28 -85 98 -137.5t170 -61.5l133 627q-34 16 -56 26.5t-53 28t-51 32t-44.5 35t-39 41t-28 47.5t-18.5 55.5t-5 64t8 74.5q33 153 157 250t292 108l27 127h65zM334 1092q-6 -29 -6.5 -55.5t6 -49.5t16 -42.5t26 -37.5t33.5 -32.5t40.5 -29.5t44.5 -26.5t49 -25.5l121 569 q-124 -9 -214.5 -82.5t-115.5 -187.5zM807 346q6 28 6.5 54t-3.5 47t-14 41.5t-21.5 36.5t-29.5 32t-35 28.5t-40.5 26.5t-43 24t-46.5 23l-127 -600q134 8 230 85t124 202z" />
<glyph unicode="%" horiz-adv-x="1402" d="M326 696q-84 0 -128 55t-44 158q0 59 11 126.5t37 139.5t63 129.5t93.5 94.5t124.5 37q90 0 135.5 -56t45.5 -161q0 -76 -19.5 -162t-58 -169t-106.5 -137.5t-154 -54.5zM231 0l928 1423h82l-928 -1423h-82zM340 762q51 0 94 33.5t70.5 84t47 112.5t28 117t8.5 99 q0 162 -117 162q-50 0 -92 -34t-69.5 -85t-46.5 -113.5t-27.5 -117t-8.5 -96.5q0 -162 113 -162zM983 -14q-87 0 -130.5 55.5t-43.5 161.5q0 49 8.5 104.5t24.5 115t44 113t63 96t85 68t107 25.5q87 0 131.5 -56t44.5 -161q0 -59 -11.5 -126.5t-38 -138.5t-64 -127.5 t-95 -93t-125.5 -36.5zM997 51q62 0 112 49.5t77.5 122.5t42 144.5t14.5 128.5q0 163 -117 163q-62 0 -111.5 -50.5t-76.5 -124.5t-41 -145t-14 -126q0 -162 114 -162z" />
<glyph unicode="&#x26;" horiz-adv-x="1564" d="M1493 805l-16 -76h-217q-51 -363 -246.5 -559.5t-507.5 -196.5q-196 0 -315 102t-119 269q0 160 98 279t262 159q-86 34 -134 108t-48 175q0 163 133.5 274t329.5 111q142 0 248 -66t143 -178l-92 -30q-31 88 -112 138t-191 50q-155 0 -261 -87.5t-106 -215.5 q0 -106 81.5 -181t199.5 -75h61l-18 -76h-66q-185 0 -308.5 -109t-123.5 -270q0 -131 95 -211t253 -80q268 0 438.5 176t210.5 494h-278l14 76h592z" />
<glyph unicode="'" horiz-adv-x="428" d="M260 1020l121 516h86l-133 -516h-74z" />
<glyph unicode="(" horiz-adv-x="532" d="M229 -430q-36 89 -62 199.5t-41.5 249.5t-6.5 306.5t45 336.5t98 336.5t136.5 306.5t148 249.5t147.5 198.5l58 -31q-102 -129 -191 -273.5t-178 -356t-135 -430.5q-35 -166 -45 -326t3 -294t36.5 -240.5t58.5 -200.5z" />
<glyph unicode=")" horiz-adv-x="532" d="M-113 -430l-57 31q102 130 191 275t178 356.5t135 429.5q35 167 45 327.5t-3 293.5t-36.5 239.5t-58.5 199.5l69 31q36 -89 62.5 -199t42.5 -249t7.5 -306.5t-44.5 -336.5t-98.5 -336.5t-137.5 -306.5t-148 -249t-147 -200z" />
<glyph unicode="*" horiz-adv-x="901" d="M377 795q-15 -16 -32.5 -20t-30.5 2.5t-21 18.5t-5.5 29t17.5 33q7 7 79 72.5t132 130.5q-67 24 -147 39.5t-90 19.5q-33 14 -27 51q6 25 28.5 42t47.5 10q15 -5 81.5 -43t131.5 -62q17 82 27 174.5t10 93.5q9 41 46 52q33 9 49 -15q9 -14 5 -37q-3 -12 -33 -100 t-47 -168q81 25 165.5 63.5t92.5 41.5q33 10 47.5 -9t7.5 -45q-4 -41 -39 -49q-10 -3 -96.5 -19.5t-167.5 -41.5q32 -63 76 -126.5t49 -74.5q16 -33 -17 -64q-30 -28 -59 -18q-13 4 -20 19q-2 4 -26 84.5t-54 146.5q-57 -64 -114 -142.5t-66 -88.5z" />
<glyph unicode="+" horiz-adv-x="1089" d="M1014 756l-21 -84h-379l-90 -426h-86l90 426h-383l19 84h383l90 424h86l-90 -424h381z" />
<glyph unicode="," horiz-adv-x="401" d="M-41 -291l-25 51q59 29 110.5 92.5t61.5 120.5q1 4 2.5 13t2.5 14q-20 -14 -45 -14q-28 0 -44 19.5t-10 51.5q6 29 31 51.5t57 22.5q55 0 75.5 -40t6.5 -101q-19 -85 -79.5 -166.5t-143.5 -114.5z" />
<glyph unicode="-" horiz-adv-x="907" d="M156 631l22 102h629l-23 -102h-628z" />
<glyph unicode="." horiz-adv-x="376" d="M68 -14q-30 0 -46 20t-10 53q8 31 32.5 51.5t53.5 20.5q32 0 48 -20.5t8 -51.5q-6 -33 -29.5 -53t-56.5 -20z" />
<glyph unicode="/" horiz-adv-x="780" d="M8 -135l-67 29l1013 1677l68 -29z" />
<glyph unicode="0" horiz-adv-x="1153" d="M451 -27q-166 0 -250 109.5t-84 318.5q0 118 19.5 241t56.5 240t93.5 220t126.5 180.5t160.5 122.5t190.5 45q169 0 254.5 -111t85.5 -323q0 -120 -19.5 -242.5t-56.5 -239t-94 -218.5t-127.5 -178.5t-162.5 -120.5t-193 -44zM469 59q99 0 187 60.5t151.5 159.5 t110 223.5t69.5 256t23 253.5q0 169 -66.5 260.5t-195.5 91.5q-98 0 -186 -61t-150.5 -161t-109 -225.5t-69 -257t-22.5 -253.5q0 -166 66 -256.5t192 -90.5z" />
<glyph unicode="1" horiz-adv-x="657" d="M236 0l278 1315l-319 -187l8 89l344 206h84l-303 -1423h-92z" />
<glyph unicode="2" horiz-adv-x="1095" d="M-8 0l20 88l551 485q233 204 312 317.5t79 244.5q0 95 -82 162t-200 67q-200 0 -340 -178l-78 39q153 225 428 225q156 0 263.5 -89.5t107.5 -219.5q0 -146 -90 -278t-338 -347l-490 -430h742l-19 -86h-866z" />
<glyph unicode="3" horiz-adv-x="1134" d="M465 -27q-91 0 -166.5 23.5t-125 63.5t-80.5 86t-44 96l92 39q26 -95 108 -158.5t220 -63.5q166 0 288 114.5t122 275.5q0 82 -47 139.5t-116.5 82.5t-152.5 25h-151l16 80h158q176 0 293.5 106.5t117.5 270.5q0 95 -78 153t-188 58q-216 0 -344 -178l-80 39 q75 106 185 165.5t251 59.5q150 0 250.5 -80.5t100.5 -208.5q0 -149 -92.5 -265.5t-239.5 -150.5l-2 -2q35 -9 70 -30t69 -54.5t55 -85.5t21 -114q0 -207 -146 -346.5t-364 -139.5z" />
<glyph unicode="4" horiz-adv-x="1085" d="M602 0l72 330h-623l17 82l686 1011h94l-680 -1009h522l94 436h88l-92 -436h178l-16 -84h-180l-70 -330h-90z" />
<glyph unicode="5" horiz-adv-x="1146" d="M459 -27q-95 0 -170 23.5t-122.5 64t-76 85.5t-41.5 96l92 39q26 -94 107.5 -158t214.5 -64q94 0 178.5 44t142.5 115.5t91.5 163.5t33.5 187q0 130 -81 203.5t-210 73.5q-125 0 -262 -70l-63 25l178 622h666l-21 -86h-588l-135 -463q139 54 256 54q157 0 257 -90 t100 -260q0 -117 -40.5 -226.5t-111.5 -193.5t-174.5 -134.5t-220.5 -50.5z" />
<glyph unicode="6" horiz-adv-x="1118" d="M455 -27q-164 0 -257.5 104t-93.5 296q0 98 20 213t57.5 236.5t98.5 233t136 200t176.5 141.5t214.5 53q111 0 188.5 -56t91.5 -139l-90 -32q-25 65 -72 103t-132 38q-185 0 -336 -191.5t-224 -508.5q67 110 183.5 177.5t245.5 67.5q156 0 250 -98t94 -254 q0 -83 -24 -166.5t-71.5 -158.5t-112.5 -133t-154 -92t-189 -34zM475 59q95 0 178.5 44t138 113.5t86 153.5t31.5 165q0 126 -74.5 207t-197.5 81q-94 0 -178 -41.5t-139 -107t-87 -146t-32 -159.5q0 -149 74 -229.5t200 -80.5z" />
<glyph unicode="7" horiz-adv-x="972" d="M1077 1423l-16 -80l-830 -1343h-96l826 1339h-713l20 84h809z" />
<glyph unicode="8" horiz-adv-x="1138" d="M428 -27q-162 0 -269.5 85.5t-107.5 234.5q0 153 96.5 266t260.5 172q-170 93 -170 266q0 184 145.5 318.5t357.5 134.5q148 0 246 -79t98 -216q0 -147 -83 -254.5t-230 -169.5q203 -83 203 -280q0 -128 -69.5 -237.5t-195.5 -175t-282 -65.5zM598 770q164 0 278.5 111 t114.5 262q0 107 -76.5 166t-189.5 59q-160 0 -276.5 -106.5t-116.5 -257.5q0 -102 67.5 -168t198.5 -66zM446 55q179 0 307 114t128 277q0 110 -82 177t-217 67q-181 0 -308 -113t-127 -276q0 -118 85.5 -182t213.5 -64z" />
<glyph unicode="9" horiz-adv-x="1054" d="M670 1450q164 0 257 -103.5t93 -295.5q0 -98 -20 -213t-57.5 -236.5t-98.5 -233.5t-136 -200.5t-176.5 -141.5t-214.5 -53q-111 0 -188.5 56t-91.5 139l90 33q54 -142 205 -142q185 0 335.5 191.5t223.5 509.5q-67 -110 -183 -178t-245 -68q-156 0 -250 98t-94 254 q0 83 24 166.5t71.5 158.5t112.5 133t154 92t189 34zM649 1364q-95 0 -178.5 -44t-138 -113t-86 -153t-31.5 -165q0 -126 74.5 -207.5t197.5 -81.5q94 0 178 41.5t139.5 107.5t87.5 146.5t32 159.5q0 149 -74.5 229t-200.5 80z" />
<glyph unicode=":" horiz-adv-x="376" d="M276 971q-30 0 -44.5 20t-8.5 53q6 30 31 51t55 21q31 0 46.5 -20.5t9.5 -51.5q-6 -33 -31 -53t-58 -20zM68 -14q-30 0 -46 20t-10 53q8 31 32.5 51.5t53.5 20.5q32 0 48 -20.5t8 -51.5q-6 -33 -29.5 -53t-56.5 -20z" />
<glyph unicode=";" horiz-adv-x="401" d="M287 969q-25 0 -41.5 14.5t-16.5 40.5q0 36 26 63t62 27q27 0 43.5 -15.5t16.5 -39.5q0 -36 -26 -63t-64 -27zM-37 -287l-29 47q50 24 92 71t63.5 92.5t21.5 76.5q-20 -14 -43 -14q-27 0 -42.5 17.5t-15.5 41.5q0 33 24 59.5t64 26.5q42 0 66 -27t24 -69 q0 -50 -25.5 -112t-79 -122t-120.5 -88z" />
<glyph unicode="&#x3c;" horiz-adv-x="1089" d="M901 233l-756 439l19 82l942 438l-21 -88l-837 -391l672 -391z" />
<glyph unicode="=" horiz-adv-x="1089" d="M207 958l16 84h850l-18 -84h-848zM86 385l16 84h850l-18 -84h-848z" />
<glyph unicode="&#x3e;" horiz-adv-x="1089" d="M53 236l19 88l839 391l-673 391l20 88l756 -438l-19 -82z" />
<glyph unicode="?" horiz-adv-x="894" d="M270 346l25 109q16 74 54.5 135t86 102.5t102 78.5t105.5 73t92.5 77t66.5 99.5t25 130.5q0 100 -67.5 156.5t-169.5 56.5q-92 0 -184 -45.5t-154 -130.5l-80 37q81 111 194.5 168t237.5 57q136 0 229 -74t93 -205q0 -85 -26 -154.5t-69.5 -117t-96 -88t-108 -77 t-104 -75t-86 -91.5t-51.5 -117l-23 -105h-92zM260 -14q-26 0 -41.5 15t-15.5 40q0 34 25.5 62t62.5 28q26 0 42.5 -15.5t16.5 -39.5q0 -37 -26.5 -63.5t-63.5 -26.5z" />
<glyph unicode="@" horiz-adv-x="1316" d="M535 -186q-219 0 -343 137.5t-124 374.5q0 239 91.5 438t259.5 316.5t378 117.5t327 -119t117 -327q0 -153 -46 -290.5t-127.5 -222.5t-176.5 -85q-128 0 -143 116q-78 -110 -201 -110q-84 0 -133 58.5t-49 160.5q0 122 46 224t127.5 162t180.5 60q102 0 182 -61 l-84 -402q-15 -68 8 -105.5t80 -37.5q69 0 132 76.5t100 198.5t37 251q0 183 -103 285.5t-287 102.5q-182 0 -332 -109t-234.5 -293t-84.5 -401q0 -202 113.5 -325.5t298.5 -123.5q76 0 160.5 23t152.5 61l12 -63q-62 -38 -155.5 -63t-179.5 -25zM569 227q86 0 172 121 l82 377q-44 33 -116 33q-73 0 -135 -52.5t-97 -138t-35 -182.5q0 -75 34 -116.5t95 -41.5z" />
<glyph unicode="A" horiz-adv-x="1146" d="M891 0l-45 391h-613l-210 -391h-95l774 1423h115l168 -1423h-94zM279 475h557l-99 856z" />
<glyph unicode="B" horiz-adv-x="1181" d="M96 0l303 1423h377q22 0 41.5 -1t45.5 -4t48.5 -9t47 -15t44.5 -23t38.5 -32t31 -43t20 -54.5t7 -68t-9.5 -83.5q-29 -145 -108 -235.5t-185 -121.5v-2q43 -12 78 -35.5t65 -65t37.5 -99.5t-4.5 -138q-71 -393 -486 -393h-391zM350 766h271q148 0 243 79.5t127 231.5 q8 53 7.5 93t-17 69t-38 48t-54.5 30t-66.5 15.5t-74.5 4.5h-277zM205 84h287q164 0 257 72.5t125 228.5q31 145 -35.5 220t-224.5 75h-282z" />
<glyph unicode="C" horiz-adv-x="1253" d="M588 -27q-210 0 -332.5 128t-122.5 370q0 151 33 294.5t98.5 267t155.5 217t211 147t258 53.5q169 0 271 -77t126 -189l-92 -35q-65 215 -311 215q-119 0 -225 -51t-183.5 -138t-134 -199.5t-85 -239t-28.5 -253.5q0 -208 102.5 -316t278.5 -108q253 0 406 215l76 -34 q-172 -267 -502 -267z" />
<glyph unicode="D" horiz-adv-x="1325" d="M96 0l303 1423h340q102 0 188 -24.5t158 -76t115 -132t57 -193t-16 -258.5q-35 -186 -111.5 -329t-183 -231.5t-233.5 -133.5t-271 -45h-346zM205 84h241q89 0 175.5 23t170 73.5t152 124.5t122 183.5t79.5 242.5q21 112 19 201t-29 156.5t-68 115t-98.5 77.5t-120 44 t-133.5 14h-244z" />
<glyph unicode="E" horiz-adv-x="1150" d="M96 0l303 1423h740l-21 -84h-647l-121 -577h568l-21 -84h-565l-127 -594h704l-16 -84h-797z" />
<glyph unicode="F" horiz-adv-x="1064" d="M96 0l303 1423h770l-18 -84h-680l-123 -589h574l-21 -84h-573l-140 -666h-92z" />
<glyph unicode="G" horiz-adv-x="1390" d="M1286 1180l-94 -31q-27 95 -106.5 155t-208.5 60q-223 0 -397 -189t-232 -483q-30 -139 -14 -255.5t66 -200.5t136 -130.5t197 -46.5q128 0 242 45.5t198 131.5l80 389h-457l19 84h551l-111 -510q-101 -107 -244 -166.5t-299 -59.5q-128 0 -229 53.5t-160.5 148.5 t-81 226t10.5 285q42 223 147.5 396.5t260.5 270.5t333 97q169 0 268 -77t125 -193z" />
<glyph unicode="H" horiz-adv-x="1439" d="M96 0l303 1423h93l-142 -661h832l141 661h92l-303 -1423h-92l143 680h-831l-144 -680h-92z" />
<glyph unicode="I" horiz-adv-x="516" d="M96 0l303 1423h93l-304 -1423h-92z" />
<glyph unicode="J" horiz-adv-x="892" d="M4 0l16 84h117q183 0 299 109t158 309l178 837h-407l18 84h500l-197 -921q-52 -241 -196 -371.5t-371 -130.5h-115z" />
<glyph unicode="K" horiz-adv-x="1163" d="M1212 1423l-647 -632l422 -791h-113l-385 717l-188 -185l-113 -532h-92l303 1423h93l-160 -745l760 745h120z" />
<glyph unicode="L" horiz-adv-x="1112" d="M96 0l303 1423h93l-287 -1339h678l-17 -84h-770z" />
<glyph unicode="M" horiz-adv-x="1619" d="M96 0l303 1423h103l289 -960l700 960h102l-303 -1423h-92l266 1255l-657 -909h-82l-270 909l-267 -1255h-92z" />
<glyph unicode="N" horiz-adv-x="1409" d="M96 0l303 1423h95l526 -1269l270 1269h92l-303 -1423h-94l-528 1272l-269 -1272h-92z" />
<glyph unicode="O" horiz-adv-x="1339" d="M547 -27q-187 0 -301.5 125.5t-114.5 354.5q0 149 30.5 293t92 271.5t147.5 224t204.5 152.5t254.5 56q202 0 311 -116t109 -345q0 -152 -30.5 -299t-92.5 -276.5t-148 -228t-205.5 -155.5t-256.5 -57zM567 59q113 0 213.5 54t173 146t126 210.5t80 250t26.5 263.5 q0 193 -89 287t-253 94q-119 0 -221.5 -54t-174 -144.5t-123 -208t-76 -245t-24.5 -255.5q0 -190 95 -294t247 -104z" />
<glyph unicode="P" horiz-adv-x="1091" d="M96 0l303 1423h375q188 0 273 -109.5t45 -299.5q-43 -204 -183 -322.5t-338 -118.5h-262l-121 -573h-92zM326 657h264q154 0 262.5 95t140.5 254q34 154 -33.5 243.5t-216.5 89.5h-272z" />
<glyph unicode="Q" horiz-adv-x="1339" d="M1280 989q0 -217 -60 -415.5t-182.5 -352.5t-287.5 -213l204 -303l-80 -61l-223 338q-49 -9 -104 -9q-187 0 -301.5 125.5t-114.5 354.5q0 149 30.5 293t92 271.5t147.5 224t204.5 152.5t254.5 56q202 0 311 -116t109 -345zM567 59q113 0 213.5 54t173 146t126 210.5 t80 250t26.5 263.5q0 193 -89 287t-253 94q-119 0 -221.5 -54t-174 -144.5t-123 -208t-76 -245t-24.5 -255.5q0 -190 95 -294t247 -104z" />
<glyph unicode="R" horiz-adv-x="1130" d="M1094 1137q0 -202 -101.5 -345.5t-285.5 -185.5l254 -606h-105l-242 594q-16 -2 -47 -2h-256l-123 -592h-92l303 1423h367q50 0 95 -8t88.5 -28t75 -51.5t50.5 -82.5t19 -116zM332 676h250q189 0 302 124.5t113 313.5q0 113 -65.5 169t-183.5 56h-277z" />
<glyph unicode="S" horiz-adv-x="1064" d="M438 -27q-145 0 -256.5 71.5t-146.5 176.5l90 39q30 -92 121 -146.5t207 -54.5q161 0 263.5 88t102.5 220q0 66 -32.5 119.5t-84.5 90t-114.5 70t-125 68t-114.5 74t-84.5 98t-32.5 131.5q0 192 136.5 312t345.5 120q143 0 238.5 -60.5t125.5 -164.5l-92 -37 q-25 84 -99.5 130t-183.5 46q-152 0 -260 -95.5t-108 -230.5q0 -64 32.5 -115.5t84 -87t114 -68t125 -66.5t114 -74t84 -100.5t32.5 -135.5q0 -183 -134 -300.5t-348 -117.5z" />
<glyph unicode="T" horiz-adv-x="1193" d="M426 0l283 1339h-478l19 84h1048l-18 -84h-479l-283 -1339h-92z" />
<glyph unicode="U" horiz-adv-x="1298" d="M541 -27q-207 0 -308 141.5t-45 401.5l195 907h92l-194 -907q-16 -77 -17.5 -144t15.5 -125t51 -99.5t92.5 -65t136.5 -23.5q79 0 145 24t112.5 64.5t83 100t59.5 124.5t40 144l195 907h94l-194 -917q-59 -272 -194 -402.5t-359 -130.5z" />
<glyph unicode="V" horiz-adv-x="1261" d="M463 0l-197 1423h99l174 -1321l735 1321h96l-801 -1423h-106z" />
<glyph unicode="W" horiz-adv-x="1830" d="M340 0l-57 1423h98l43 -1310l620 1310h119l58 -1310l602 1310h98l-664 -1423h-118l-62 1300l-618 -1300h-119z" />
<glyph unicode="X" horiz-adv-x="1280" d="M1331 1423l-600 -708l318 -715h-111l-285 641l-557 -641h-100l622 721l-313 702h113l278 -628l535 628h100z" />
<glyph unicode="Y" horiz-adv-x="1157" d="M414 0l114 535l-264 888h103l229 -784l567 784h103l-645 -888l-115 -535h-92z" />
<glyph unicode="Z" horiz-adv-x="1183" d="M4 0l16 78l1080 1261h-793l19 84h903l-17 -73l-1083 -1266h834l-17 -84h-942z" />
<glyph unicode="[" horiz-adv-x="493" d="M12 -397l463 2179h256l-16 -76h-178l-431 -2028h179l-17 -75h-256z" />
<glyph unicode="\" horiz-adv-x="784" d="M596 -125l-301 1677l78 17l301 -1680z" />
<glyph unicode="]" horiz-adv-x="493" d="M-176 -397l16 75h178l431 2028h-177l15 76h258l-463 -2179h-258z" />
<glyph unicode="^" horiz-adv-x="917" d="M162 410l-53 28l428 662h79l146 -662l-64 -28l-135 624z" />
<glyph unicode="_" horiz-adv-x="1378" d="M-139 -145l16 77h1362l-16 -77h-1362z" />
<glyph unicode="`" horiz-adv-x="1183" d="M936 1272l-471 143l31 72l469 -148z" />
<glyph unicode="a" horiz-adv-x="1120" d="M399 -27q-163 0 -246 99t-83 274q0 150 39 289.5t110 249t181.5 175.5t242.5 66q71 0 128.5 -23t93 -61.5t56 -82.5t25.5 -91l49 232h90l-180 -856q-22 -101 -22 -176q0 -38 6 -68h-92q-6 30 -6 68q0 70 20 168q-25 -49 -62.5 -93.5t-88.5 -83.5t-119 -62.5t-142 -23.5z M428 57q87 0 164 40.5t132.5 109t96 156.5t60.5 184.5t20 191.5q0 147 -67.5 225t-194.5 78q-86 0 -163 -40t-133 -107.5t-97 -154.5t-61.5 -183t-20.5 -190q0 -149 68.5 -229.5t195.5 -80.5z" />
<glyph unicode="b" horiz-adv-x="1116" d="M477 -27q-76 0 -134.5 23.5t-93.5 62.5t-54 83.5t-25 93.5q-33 -153 -80 -236h-90q56 112 88 244l272 1292h91l-142 -664q55 103 163 178.5t251 75.5q162 0 245 -97.5t83 -270.5q0 -116 -25.5 -230t-75 -213.5t-118 -176t-160.5 -121t-195 -44.5zM479 57q109 0 201 61.5 t150.5 160.5t91 218.5t32.5 239.5q0 148 -67.5 226.5t-194.5 78.5q-107 0 -199 -65.5t-150.5 -167t-91 -218t-32.5 -224.5q0 -150 66.5 -230t193.5 -80z" />
<glyph unicode="c" horiz-adv-x="974" d="M401 -27q-153 0 -242 109t-89 293q0 105 26.5 212.5t78 203.5t119.5 171t159 119.5t190 44.5q131 0 212 -74t87 -192l-86 -29q-9 97 -70 154t-153 57q-98 0 -187.5 -60t-150.5 -154.5t-97 -210.5t-36 -228q0 -153 68.5 -241.5t189.5 -88.5q99 0 190.5 56t151.5 153 l74 -30q-60 -114 -175.5 -189.5t-259.5 -75.5z" />
<glyph unicode="d" horiz-adv-x="1120" d="M399 -27q-161 0 -244 106.5t-83 282.5q0 116 25 228t75 208.5t118 170t160 115.5t195 42q75 0 133 -22.5t92.5 -60.5t53 -80.5t24.5 -90.5l142 664h88l-273 -1292q-27 -130 -16 -244h-88q-17 81 14 233q-27 -50 -64.5 -93.5t-89 -82.5t-119 -61.5t-143.5 -22.5zM430 57 q87 0 164 40.5t132.5 109t96 156.5t60.5 184.5t20 191.5q0 147 -67.5 225t-194.5 78q-87 0 -164 -40t-133 -107.5t-96.5 -154.5t-61 -182.5t-20.5 -190.5q0 -150 67.5 -230t196.5 -80z" />
<glyph unicode="e" horiz-adv-x="995" d="M442 59q104 0 205.5 56t165.5 157l68 -45q-69 -119 -187.5 -186.5t-271.5 -67.5q-160 0 -255 107.5t-95 292.5q0 112 25.5 222t76 205.5t118.5 168.5t158.5 115t190.5 42q123 0 188.5 -56t65.5 -142q0 -56 -26 -115t-78.5 -115t-124 -100t-171.5 -71t-212 -27 q-51 0 -107 6q-8 -49 -8 -113q0 -156 71 -245t203 -89zM627 1042q-79 0 -151 -37.5t-126.5 -101t-94.5 -145t-62 -172.5q49 -6 96 -6q116 0 216.5 32.5t163.5 82.5t98.5 107t35.5 109q0 58 -45 94.5t-131 36.5z" />
<glyph unicode="f" horiz-adv-x="636" d="M-205 -426l17 80q108 0 171.5 54.5t94.5 197.5l235 1112h-176l17 82h178l33 155q26 128 119 217t227 89q50 0 101.5 -14t76.5 -29l-41 -78q-21 13 -64 25t-84 12q-83 0 -152 -54t-93 -168l-33 -155h334l-19 -82h-334l-235 -1106q-21 -100 -56.5 -168t-85.5 -104t-105 -51 t-126 -15z" />
<glyph unicode="g" horiz-adv-x="1161" d="M326 -426q-122 0 -216.5 57.5t-134.5 167.5l80 39q30 -88 105.5 -135t175.5 -47q160 0 277.5 93t154.5 269l47 215q-23 -41 -58 -80.5t-86 -80t-121.5 -65.5t-148.5 -25q-158 0 -242.5 102.5t-84.5 280.5q0 112 24.5 221.5t73.5 206.5t116.5 171.5t159 118t195.5 43.5 q63 0 115.5 -17.5t85 -44t56.5 -61t35 -65t15 -59.5l47 221h90l-229 -1077q-49 -229 -187.5 -339t-344.5 -110zM430 61q98 0 187.5 62t151 159.5t98 219.5t36.5 241q0 143 -71.5 223.5t-188.5 80.5q-108 0 -200 -61.5t-150.5 -160t-91.5 -217.5t-33 -239q0 -148 67.5 -228 t194.5 -80z" />
<glyph unicode="h" horiz-adv-x="1144" d="M78 0l325 1536h89l-132 -621q51 83 146.5 147t208.5 64q159 0 235.5 -110.5t32.5 -317.5l-149 -698h-89l146 686q37 171 -25 262.5t-186 91.5q-119 0 -227 -98t-144 -274l-143 -668h-88z" />
<glyph unicode="i" horiz-adv-x="477" d="M422 1405q-25 0 -41 19.5t-10 48.5q6 30 29.5 48.5t50.5 18.5t43 -18.5t10 -48.5q-6 -29 -30 -48.5t-52 -19.5zM78 0l233 1100h88l-233 -1100h-88z" />
<glyph unicode="j" horiz-adv-x="473" d="M420 1405q-25 0 -41 19.5t-10 48.5q6 30 29.5 48.5t50.5 18.5t43 -18.5t10 -48.5q-6 -29 -30 -48.5t-52 -19.5zM-227 -426l16 80q108 0 171.5 54.5t94.5 197.5l254 1194h90l-254 -1188q-21 -100 -56 -168t-84.5 -104.5t-104.5 -51t-127 -14.5z" />
<glyph unicode="k" horiz-adv-x="1067" d="M1077 1100l-522 -449l315 -651h-110l-283 586l-229 -197l-82 -389h-88l325 1536h89l-216 -1018l678 582h123z" />
<glyph unicode="l" horiz-adv-x="565" d="M315 -25q-94 0 -151.5 50t-57.5 159q0 40 13 107l264 1245h88l-260 -1235q-54 -244 129 -244q42 0 102 17l-6 -82q-70 -17 -121 -17z" />
<glyph unicode="m" horiz-adv-x="1765" d="M78 0l233 1100h88l-41 -185q52 84 144 147.5t205 63.5q106 0 174.5 -54t89.5 -167q64 100 161 160.5t209 60.5q154 0 231 -109.5t32 -318.5l-148 -698h-90l145 688q36 171 -22.5 261.5t-175.5 90.5q-116 0 -219.5 -97t-141.5 -275l-141 -668h-90l147 686 q36 171 -23.5 262.5t-176.5 91.5q-116 0 -219.5 -97.5t-139.5 -274.5l-143 -668h-88z" />
<glyph unicode="n" horiz-adv-x="1144" d="M78 0l233 1100h88l-41 -185q51 83 147 147t210 64q159 0 235.5 -110.5t32.5 -317.5l-149 -698h-89l146 686q37 171 -25 262.5t-186 91.5q-119 0 -227 -98t-144 -274l-143 -668h-88z" />
<glyph unicode="o" horiz-adv-x="1060" d="M406 -27q-163 0 -250.5 97t-87.5 278q0 145 41 284t114 249t185 177.5t243 67.5q165 0 253.5 -96t88.5 -276q0 -116 -26 -229.5t-77 -212.5t-120.5 -175t-163.5 -120t-200 -44zM424 57q108 0 200 61.5t150.5 160t91.5 217.5t33 239q0 148 -67.5 227.5t-196.5 79.5 q-87 0 -163.5 -40t-132.5 -107.5t-96.5 -155t-60.5 -183.5t-20 -191q0 -148 67.5 -228t194.5 -80z" />
<glyph unicode="p" horiz-adv-x="1159" d="M-8 -399l319 1499h88l-51 -242q25 46 60.5 89.5t86.5 85.5t121.5 67.5t149.5 25.5q157 0 241.5 -93.5t84.5 -272.5q0 -116 -25 -229.5t-74.5 -214t-117 -177.5t-159.5 -121.5t-196 -44.5q-63 0 -114 18t-83.5 44.5t-56 62.5t-35 68t-16.5 65l-135 -630h-88zM522 55 q86 0 163 41t133 109.5t97 157t61.5 185.5t20.5 193q0 149 -67.5 226t-196.5 77q-155 0 -280 -139.5t-172 -369.5q-22 -103 -17.5 -190.5t30.5 -152t84.5 -101t143.5 -36.5z" />
<glyph unicode="q" horiz-adv-x="1155" d="M670 -399l135 626q-23 -42 -58 -82t-85.5 -81t-120.5 -66t-148 -25q-196 0 -277.5 145t-29.5 410q53 281 198.5 439.5t354.5 158.5q77 0 137 -25.5t93 -66t50.5 -79t22.5 -76.5l47 221h90l-319 -1499h-90zM422 55q164 0 285 139t167 373q47 226 -16 351.5t-225 125.5 q-164 0 -285.5 -137.5t-169.5 -371.5q-46 -225 19 -352.5t225 -127.5z" />
<glyph unicode="r" horiz-adv-x="806" d="M78 0l233 1100h88l-41 -189q64 100 147 157.5t177 57.5q60 0 103 -19.5t83 -64.5l-59 -73q-65 71 -154 71q-114 0 -215 -111.5t-137 -285.5l-137 -643h-88z" />
<glyph unicode="s" horiz-adv-x="917" d="M393 -27q-155 0 -255 68.5t-122 183.5l78 43q20 -99 99.5 -156t201.5 -57t198.5 66t76.5 178q0 52 -27 92t-71 66t-96.5 49t-105 49t-96.5 57t-71 81t-27 114q0 148 99 233.5t255 85.5q124 0 221 -57.5t117 -142.5l-75 -47q-21 73 -100.5 119t-168.5 46 q-109 0 -181.5 -62.5t-72.5 -160.5q0 -53 27.5 -94t71 -68t96.5 -50.5t106 -49t96.5 -56t71 -78.5t27.5 -110q0 -158 -104 -250t-269 -92z" />
<glyph unicode="t" horiz-adv-x="739" d="M362 -27q-246 0 -182 306l158 739h-199l17 82h198l72 334l92 16l-74 -350h283l-16 -82h-285l-154 -725q-26 -123 1.5 -177.5t115.5 -54.5q79 0 170 48v-82q-97 -54 -197 -54z" />
<glyph unicode="u" horiz-adv-x="1026" d="M330 -27q-151 0 -220 101.5t-36 257.5l164 768h88l-160 -756q-29 -135 25 -211t174 -76q124 0 237 99.5t148 263.5l143 680h90l-172 -811q-40 -182 -16 -289h-90q-20 69 2 193q-56 -88 -157.5 -154t-219.5 -66z" />
<glyph unicode="v" horiz-adv-x="1024" d="M346 0l-168 1100h94l146 -994l565 994h96l-635 -1100h-98z" />
<glyph unicode="w" horiz-adv-x="1622" d="M295 0l-94 1100h92l80 -983l501 983h109l78 -983l500 983h94l-563 -1100h-107l-80 997l-506 -997h-104z" />
<glyph unicode="x" horiz-adv-x="948" d="M995 1100l-465 -541l240 -559h-108l-205 477l-404 -477h-108l477 557l-232 543h107l199 -463l391 463h108z" />
<glyph unicode="y" horiz-adv-x="1003" d="M293 -426q-138 0 -226 67.5t-108 194.5l80 33q15 -103 81.5 -158t180.5 -55q71 0 142.5 36t131.5 112.5t80 177.5l47 217q-56 -88 -154.5 -152.5t-215.5 -64.5q-151 0 -220.5 100t-35.5 254l162 764h88l-160 -750q-27 -135 27 -211t174 -76q124 0 236 99t147 262l143 676 h90l-238 -1114q-28 -132 -96 -226.5t-159 -140t-197 -45.5z" />
<glyph unicode="z" horiz-adv-x="1040" d="M25 0l14 76l842 940h-633l18 84h750l-17 -72l-841 -944h645l-17 -84h-761z" />
<glyph unicode="{" horiz-adv-x="512" d="M219 -408q-104 0 -154.5 69t-21.5 202q19 90 112.5 327.5t108.5 303.5q16 73 -11 104.5t-93 38.5l18 88q68 7 109 38t57 105q15 68 21 305.5t24 325.5q29 133 108 200.5t183 67.5q61 0 108 -16l-24 -70q-44 13 -88 13q-77 0 -131.5 -47.5t-75.5 -145.5 q-21 -94 -27 -326.5t-20 -300.5q-10 -47 -30 -83t-39.5 -55t-44.5 -32t-37 -16.5t-25 -5.5l-2 -2q8 -1 14.5 -3t20.5 -8t23.5 -14.5t22 -23.5t16 -34.5t6.5 -48t-7 -63.5q-14 -66 -107.5 -298t-113.5 -326q-21 -97 14.5 -145t112.5 -48q42 0 92 13l-4 -70q-65 -19 -115 -19z " />
<glyph unicode="|" horiz-adv-x="507" d="M-4 -471l436 2048h82l-436 -2048h-82z" />
<glyph unicode="}" horiz-adv-x="512" d="M-111 -408q-55 0 -110 19l26 70q41 -13 89 -13q77 0 130 47.5t74 145.5q21 94 27 325.5t20 298.5q13 58 38.5 99.5t56 60.5t49 25.5t35.5 9.5l2 2q-8 1 -15.5 3t-22 7.5t-24 14.5t-21.5 23t-16 34t-7 47.5t7 62.5q15 69 108.5 301.5t113.5 325.5q21 97 -13.5 145 t-111.5 48q-46 0 -93 -13l2 70q55 16 117 16q104 0 154.5 -67.5t21.5 -200.5q-19 -91 -113 -328.5t-108 -302.5q-16 -73 11 -104.5t92 -38.5l-19 -88q-68 -6 -108 -37.5t-56 -105.5q-15 -67 -20.5 -304.5t-24.5 -326.5q-29 -133 -109 -202t-182 -69z" />
<glyph unicode="~" horiz-adv-x="980" d="M223 709l-67 16q13 65 65 114.5t127 49.5q65 0 207 -21.5t197 -21.5q98 0 127 108l67 -16q-21 -69 -74.5 -117.5t-132.5 -48.5q-65 0 -206 21.5t-195 21.5q-91 0 -115 -106z" />
<glyph unicode="&#xa1;" horiz-adv-x="565" d="M373 981q-29 0 -44.5 20.5t-9.5 51.5q6 33 30.5 53t53.5 20q32 0 48 -19.5t10 -53.5q-6 -31 -31 -51.5t-57 -20.5zM53 -311l234 1077h84l-221 -1077h-97z" />
<glyph unicode="&#xa2;" horiz-adv-x="1009" d="M903 997q-11 93 -65.5 149t-143.5 62l-211 -985q96 6 182 61.5t140 147.5l78 -24q-67 -117 -180.5 -190t-235.5 -79l-31 -139h-65l30 141q-166 21 -241.5 177t-22.5 399q52 241 193 396.5t315 176.5l29 133h65l-28 -131q126 -6 200.5 -80.5t77.5 -187.5zM229 717 q-44 -206 9.5 -337.5t181.5 -152.5l207 977q-135 -21 -244.5 -152.5t-153.5 -334.5z" />
<glyph unicode="&#xa3;" horiz-adv-x="1077" d="M776 1450q134 0 212 -60t104 -165l-93 -37q-28 87 -83.5 131.5t-155.5 44.5q-101 0 -184.5 -69t-112.5 -203q-18 -82 -18.5 -176t6.5 -164h374l-16 -70h-356q0 -103 -19 -201q-23 -112 -94.5 -225.5t-144.5 -171.5h661l-16 -84h-785l19 78q93 58 167 171.5t99 231.5 q18 90 18 201h-211l17 70h192q-5 73 -4 167.5t17 172.5q36 166 149 262t258 96z" />
<glyph unicode="&#xa4;" horiz-adv-x="978" d="M98 344l-32 43l188 164q-35 74 -16 176q20 98 92 176l-121 164l51 43l117 -160q103 80 215 80q109 0 176 -80l186 160l35 -43l-190 -164q35 -75 14 -176q-18 -97 -90 -176l121 -164l-51 -43l-119 160q-103 -80 -211 -80q-113 0 -180 80zM479 502q87 0 162 66t94 159 q20 94 -27 159.5t-135 65.5t-163 -65.5t-95 -159.5t27.5 -159.5t136.5 -65.5z" />
<glyph unicode="&#xa5;" horiz-adv-x="1157" d="M1266 1423l-611 -839h334l-14 -68h-359l-45 -215h359l-15 -68h-360l-49 -233h-92l49 233h-357l15 68h358l45 215h-358l14 68h334l-250 839h103l229 -784l567 784h103z" />
<glyph unicode="&#xa6;" horiz-adv-x="507" d="M260 774l172 803h82l-172 -803h-82zM-4 -471l170 803h82l-170 -803h-82z" />
<glyph unicode="&#xa7;" horiz-adv-x="804" d="M158 -332q-103 0 -137 63.5t2.5 127t105.5 63.5q57 0 69 -47q11 -44 -23 -84q-32 -39 -85 -39q16 -23 52 -29.5t75 4.5t74.5 50t48.5 98q8 38 10 75.5t-5 81t-12.5 73t-23 81t-26 74t-31.5 80.5q-8 21 -12 31q-26 65 -41.5 108.5t-33 108.5t-24 119t-5 121.5t15.5 134.5 q44 209 183.5 348t301.5 139q104 0 138.5 -63.5t-1.5 -127t-104 -63.5q-57 0 -69 47q-12 44 21 84q32 39 85 39q-15 23 -51.5 28.5t-76.5 -7t-76 -52.5t-48 -100q-6 -27 -6.5 -57.5t4 -62t12.5 -64t20 -67.5t24.5 -69t27.5 -73q8 -21 12 -31q31 -83 45.5 -122.5t38 -120 t31 -136.5t8 -131t-14.5 -145q-27 -127 -107 -240.5t-186 -180.5t-206 -67zM367 -188q64 42 132.5 137.5t92.5 206.5q12 57 10.5 123t-6.5 111t-28 124t-32 106.5t-41 114.5q-5 16 -8 23q-5 15 -23.5 66.5t-25 70t-20 62t-18 67t-10 58t-5 63.5t5.5 57q8 60 47 119 q-61 -34 -129 -141.5t-92 -214.5q-13 -62 -14 -124.5t5.5 -113t24 -112t34 -105t42.5 -107.5q36 -91 57 -155.5t38 -148.5t8 -156t-45 -131z" />
<glyph unicode="&#xa8;" horiz-adv-x="1183" d="M547 1305q-22 0 -36.5 15t-14.5 38q0 31 21.5 53.5t55.5 22.5q22 0 37 -14.5t15 -37.5q0 -31 -22.5 -54t-55.5 -23zM856 1305q-22 0 -36.5 15t-14.5 38q0 30 22 53t56 23q22 0 36.5 -14.5t14.5 -37.5q0 -31 -22.5 -54t-55.5 -23z" />
<glyph unicode="&#xa9;" horiz-adv-x="1388" d="M571 -27q-177 0 -293.5 93t-152.5 257.5t8 389.5q47 220 156.5 388t265 259.5t332.5 91.5q268 0 388.5 -203t49.5 -536q-47 -220 -156.5 -388t-265 -260t-332.5 -92zM586 43q239 0 422.5 184t248.5 486q64 302 -42 485.5t-345 183.5q-238 0 -422.5 -183.5t-248.5 -485.5 q-40 -203 -8.5 -352t135 -233.5t260.5 -84.5zM643 229q-157 0 -222.5 131t-19.5 349q46 216 167.5 347.5t279.5 131.5q69 0 131 -35.5t84 -95.5l-59 -51q-22 51 -65.5 80.5t-100.5 29.5q-126 0 -223.5 -109.5t-137.5 -297.5q-40 -189 10.5 -299.5t176.5 -110.5 q61 0 123 29.5t108 79.5l37 -48q-53 -59 -132 -95t-157 -36z" />
<glyph unicode="&#xaa;" horiz-adv-x="714" d="M373 743q-94 0 -144.5 68t-50.5 174q0 85 23.5 167t65.5 149t108.5 108t144.5 41t123.5 -48t50.5 -106l29 127h74l-107 -503q-13 -69 -2 -160h-76q-12 54 0 123q-35 -59 -95 -99.5t-144 -40.5zM401 811q80 0 142.5 62t92.5 150.5t30 180.5q0 83 -37 129.5t-107 46.5 q-79 0 -141.5 -62.5t-93.5 -151.5t-31 -181q0 -82 38 -128t107 -46z" />
<glyph unicode="&#xab;" horiz-adv-x="827" d="M287 303l-142 359l293 358l66 -27l-268 -331l126 -332zM582 303l-140 359l293 358l66 -27l-269 -331l130 -332z" />
<glyph unicode="&#xac;" horiz-adv-x="1089" d="M842 311l78 361h-775l19 84h850l-96 -445h-76z" />
<glyph unicode="&#xad;" horiz-adv-x="907" d="M156 631l22 102h629l-23 -102h-628z" />
<glyph unicode="&#xae;" horiz-adv-x="890" d="M510 846q-129 0 -190.5 82.5t-32.5 218.5q29 137 125 220t225 83q128 0 189 -83.5t32 -219.5t-125 -218.5t-223 -82.5zM520 897q104 0 183.5 68t103.5 182q23 116 -26.5 184t-153.5 68q-105 0 -185 -68t-104 -184q-25 -114 26 -182t156 -68zM455 991l67 322h86 q45 0 68 -29t14 -74q-12 -63 -67 -88l34 -131h-55l-27 119h-45l-24 -119h-51zM539 1155h36q53 0 64 55q6 27 -5.5 41.5t-35.5 14.5h-35z" />
<glyph unicode="&#xaf;" horiz-adv-x="1183" d="M467 1346l16 73h484l-17 -73h-483z" />
<glyph unicode="&#xb0;" horiz-adv-x="796" d="M483 950q-100 0 -154 73t-32 177q23 103 108.5 176.5t184.5 73.5q98 0 153 -73.5t33 -176.5q-23 -104 -109 -177t-184 -73zM498 1016q72 0 134 53.5t79 130.5q15 75 -24.5 129.5t-111.5 54.5q-71 0 -133.5 -54t-79.5 -130q-15 -77 24.5 -130.5t111.5 -53.5z" />
<glyph unicode="&#xb1;" horiz-adv-x="1093" d="M639 776h383l-21 -84h-380l-89 -416h-86l89 416h-383l18 84h383l88 414h86zM6 0l17 84h849l-18 -84h-848z" />
<glyph unicode="&#xb2;" horiz-adv-x="514" d="M72 711l14 65l281 240q108 95 141 146.5t33 105.5q0 47 -32.5 74.5t-86.5 27.5q-105 0 -164 -84l-63 23q81 127 235 127q83 0 133.5 -47t50.5 -115q0 -73 -38.5 -132t-161.5 -165l-230 -201h346l-14 -65h-444z" />
<glyph unicode="&#xb3;" horiz-adv-x="546" d="M328 696q-92 0 -143.5 42t-61.5 104l67 24q11 -45 49.5 -73.5t100.5 -28.5q77 0 131.5 52.5t54.5 119.5q0 55 -41.5 83t-99.5 28h-76l13 61h77q80 0 131.5 48t51.5 118q0 45 -32 70.5t-83 25.5q-102 0 -160 -84l-63 23q35 58 96.5 92.5t138.5 34.5q78 0 128 -43.5 t50 -110.5t-42.5 -123.5t-112.5 -73.5l-2 -2q40 -13 70 -46.5t30 -90.5q0 -41 -17 -83.5t-49.5 -80.5t-86 -62t-119.5 -24z" />
<glyph unicode="&#xb4;" horiz-adv-x="1183" d="M483 1249l-24 68l479 199l29 -72z" />
<glyph unicode="&#xb5;" horiz-adv-x="1056" d="M-82 -399l320 1499h88l-160 -756q-29 -134 25 -210.5t174 -76.5q124 0 237 99.5t148 263.5l143 680h90l-172 -811q-39 -186 -16 -289h-90q-18 72 4 193q-54 -87 -154 -152.5t-217 -65.5q-90 0 -150 40.5t-82 111.5l-100 -526h-88z" />
<glyph unicode="&#xb6;" horiz-adv-x="878" d="M340 -242l164 777q-83 0 -148.5 25t-105 67.5t-64 99.5t-25.5 121t11 131q19 85 63 163.5t109 142t156 101t194 37.5h76l-354 -1665h-76zM535 -242l354 1665h76l-355 -1665h-75z" />
<glyph unicode="&#xb7;" horiz-adv-x="454" d="M242 627q-29 0 -44.5 20.5t-9.5 52.5q6 30 31 51t55 21q31 0 46.5 -20.5t9.5 -51.5q-6 -32 -31 -52.5t-57 -20.5z" />
<glyph unicode="&#xb8;" horiz-adv-x="1183" d="M328 -424q-103 0 -162 53l35 58q61 -49 139 -49q60 0 100.5 28.5t48.5 65.5q6 36 -18 61t-78 25q-46 0 -100 -23l-39 35l147 170h74l-121 -133q38 12 78 12q78 0 113 -42t22 -101q-13 -65 -76 -112.5t-163 -47.5z" />
<glyph unicode="&#xb9;" horiz-adv-x="339" d="M217 711l133 630l-157 -90l6 68l178 104h63l-151 -712h-72z" />
<glyph unicode="&#xba;" horiz-adv-x="675" d="M379 743q-100 0 -153.5 59.5t-53.5 168.5q0 87 23 171t66 153.5t112 112t153 42.5q99 0 154 -65t55 -175q0 -118 -42 -223.5t-125 -174.5t-189 -69zM393 811q81 0 143 61t91.5 147.5t29.5 178.5q0 85 -35 134.5t-106 49.5q-80 0 -143 -64t-94 -154t-31 -181 q0 -84 36.5 -128t108.5 -44z" />
<glyph unicode="&#xbb;" horiz-adv-x="827" d="M139 303l-65 27l270 332l-129 331l78 27l141 -358zM438 303l-67 27l268 332l-127 331l78 27l141 -358z" />
<glyph unicode="&#xbc;" horiz-adv-x="1003" d="M55 0h-80l928 1423h82zM217 711l133 630l-157 -90l6 68l178 104h63l-151 -712h-72zM700 0l33 162h-305l12 61l326 490h72l-322 -488h232l43 203h65l-43 -203h88l-14 -63h-86l-35 -162h-66z" />
<glyph unicode="&#xbd;" horiz-adv-x="1064" d="M55 0h-80l928 1423h82zM217 711l133 630l-157 -90l6 68l178 104h63l-151 -712h-72zM471 0l14 66l281 239q108 95 141 146.5t33 105.5q0 47 -32.5 74.5t-86.5 27.5q-105 0 -164 -84l-63 23q81 127 235 127q83 0 134 -47t51 -115q0 -72 -39 -131.5t-162 -165.5l-229 -200 h346l-15 -66h-444z" />
<glyph unicode="&#xbe;" horiz-adv-x="1210" d="M303 696q-92 0 -143.5 42t-61.5 104l68 24q11 -45 49 -73.5t100 -28.5q77 0 132 52.5t55 119.5q0 55 -42 83t-100 28h-75l12 61h78q80 0 131 48t51 118q0 45 -32 70.5t-83 25.5q-101 0 -159 -84l-64 23q35 58 97 92.5t139 34.5q78 0 128 -43.5t50 -110.5t-43 -123.5 t-113 -73.5l-2 -2q40 -13 70 -46.5t30 -90.5q0 -41 -17 -83.5t-49.5 -80.5t-86 -62t-119.5 -24zM262 0h-80l928 1423h82zM907 0l33 162h-305l12 61l326 490h71l-321 -488h231l43 203h66l-43 -203h88l-14 -63h-86l-35 -162h-66z" />
<glyph unicode="&#xbf;" horiz-adv-x="839" d="M573 981q-26 0 -42.5 15.5t-16.5 39.5q0 37 26.5 63.5t63.5 26.5q26 0 42 -15t16 -40q0 -34 -26 -62t-63 -28zM246 -338q-138 0 -230 74t-92 205q0 72 26 133t68.5 105t94.5 84t107 80.5t103.5 83.5t86.5 103.5t53 131.5l22 104h93l-23 -109q-16 -79 -54.5 -145 t-86.5 -112t-103 -87t-106 -77.5t-92.5 -75.5t-67 -90t-25.5 -111q0 -99 69 -155t175 -56q91 0 181 45.5t151 130.5l80 -37q-76 -107 -192 -166t-238 -59z" />
<glyph unicode="&#xc0;" horiz-adv-x="1146" d="M573 1810l469 -147l-28 -68l-471 144zM702 1423h115l168 -1423h-94l-45 391h-613l-210 -391h-95zM279 475h557l-99 856z" />
<glyph unicode="&#xc1;" horiz-adv-x="1146" d="M1049 1757l-488 -182l-22 67l483 189zM702 1423h115l168 -1423h-94l-45 391h-613l-210 -391h-95zM279 475h557l-99 856z" />
<glyph unicode="&#xc2;" horiz-adv-x="1146" d="M836 1778l-224 -228l-59 33l258 270h80l141 -270l-71 -33zM702 1423h115l168 -1423h-94l-45 391h-613l-210 -391h-95zM279 475h557l-99 856z" />
<glyph unicode="&#xc3;" horiz-adv-x="1146" d="M1008 1825l67 -17q-20 -59 -63.5 -97t-104.5 -38q-38 0 -104.5 14.5t-87.5 14.5q-31 0 -48 -17t-28 -57l-66 17q16 56 55 92.5t93 36.5q35 0 104.5 -15.5t94.5 -15.5q66 0 88 82zM702 1423h115l168 -1423h-94l-45 391h-613l-210 -391h-95zM279 475h557l-99 856z" />
<glyph unicode="&#xc4;" horiz-adv-x="1146" d="M647 1628q-22 0 -36.5 15t-14.5 38q0 30 22 53t56 23q22 0 36.5 -14t14.5 -37q0 -31 -22.5 -54.5t-55.5 -23.5zM983 1757q22 0 36.5 -14t14.5 -37q0 -31 -22.5 -54.5t-55.5 -23.5q-22 0 -36.5 15t-14.5 38q0 30 22 53t56 23zM702 1423h115l168 -1423h-94l-45 391h-613 l-210 -391h-95zM279 475h557l-99 856z" />
<glyph unicode="&#xc5;" horiz-adv-x="1146" d="M860 1896q70 0 107 -50t22 -124q-13 -74 -72.5 -124t-132.5 -50q-70 0 -105.5 49t-21.5 125q15 74 73 124t130 50zM924 1722q12 50 -10.5 82.5t-67.5 32.5q-41 0 -78 -32.5t-47 -82.5q-10 -51 12.5 -81.5t65.5 -30.5q44 0 80 30.5t45 81.5zM702 1423h115l168 -1423h-94 l-45 391h-613l-210 -391h-95zM279 475h557l-99 856z" />
<glyph unicode="&#xc6;" horiz-adv-x="1867" d="M1190 1339l-31 -147l-90 -430h567l-20 -84h-567l-80 -383l-45 -211h704l-16 -84h-799l96 453h-477l-342 -453h-108l1083 1423h790l-18 -84h-647zM498 537h430l168 790z" />
<glyph unicode="&#xc7;" horiz-adv-x="1253" d="M889 1450q169 0 271 -77t126 -189l-92 -35q-65 215 -311 215q-119 0 -225 -51t-183.5 -138t-134 -199.5t-85 -239t-28.5 -253.5q0 -208 102.5 -316t278.5 -108q253 0 406 215l76 -34q-34 -54 -78 -98.5t-103.5 -83.5t-138.5 -61.5t-170 -23.5l-96 -106q38 12 78 12 q78 0 113 -42t22 -101q-13 -65 -76.5 -112.5t-163.5 -47.5q-103 0 -162 53l35 58q61 -49 139 -49q61 0 101.5 28.5t48.5 65.5q6 36 -18 61t-78 25q-47 0 -101 -23l-39 35l127 145q-185 18 -291 145t-106 351q0 151 33 294.5t98.5 267t155.5 217t211 147t258 53.5z" />
<glyph unicode="&#xc8;" horiz-adv-x="1150" d="M1030 1595l-471 144l31 71l469 -147zM96 0l303 1423h740l-21 -84h-647l-121 -577h568l-21 -84h-565l-127 -594h704l-16 -84h-797z" />
<glyph unicode="&#xc9;" horiz-adv-x="1150" d="M578 1575l-23 67l483 189l27 -74zM96 0l303 1423h740l-21 -84h-647l-121 -577h568l-21 -84h-565l-127 -594h704l-16 -84h-797z" />
<glyph unicode="&#xca;" horiz-adv-x="1150" d="M629 1550l-60 33l258 270h80l142 -270l-72 -33l-125 228zM96 0l303 1423h740l-21 -84h-647l-121 -577h568l-21 -84h-565l-127 -594h704l-16 -84h-797z" />
<glyph unicode="&#xcb;" horiz-adv-x="1150" d="M664 1628q-22 0 -37 15t-15 38q0 30 22 53t56 23q22 0 36.5 -14t14.5 -37q0 -32 -22 -55t-55 -23zM973 1628q-22 0 -36.5 15t-14.5 38q0 31 21.5 53.5t55.5 22.5q22 0 37 -14t15 -37q0 -31 -22.5 -54.5t-55.5 -23.5zM96 0l303 1423h740l-21 -84h-647l-121 -577h568 l-21 -84h-565l-127 -594h704l-16 -84h-797z" />
<glyph unicode="&#xcc;" horiz-adv-x="516" d="M700 1595l-471 144l31 71l469 -147zM96 0l303 1423h93l-304 -1423h-92z" />
<glyph unicode="&#xcd;" horiz-adv-x="516" d="M248 1575l-23 67l484 189l26 -74zM96 0l303 1423h93l-304 -1423h-92z" />
<glyph unicode="&#xce;" horiz-adv-x="516" d="M299 1550l-59 33l258 270h80l141 -270l-72 -33l-125 228zM96 0l303 1423h93l-304 -1423h-92z" />
<glyph unicode="&#xcf;" horiz-adv-x="516" d="M334 1628q-22 0 -36.5 15t-14.5 38q0 31 21.5 53.5t55.5 22.5q22 0 37 -14t15 -37q0 -31 -22.5 -54.5t-55.5 -23.5zM643 1628q-22 0 -36.5 15t-14.5 38q0 30 22 53t56 23q22 0 36.5 -14t14.5 -37q0 -31 -22.5 -54.5t-55.5 -23.5zM96 0l303 1423h93l-304 -1423h-92z" />
<glyph unicode="&#xd0;" horiz-adv-x="1325" d="M739 1423q102 0 188 -24.5t158 -76t115 -132t57 -193t-16 -258.5q-35 -186 -111.5 -329t-183 -231.5t-233.5 -133.5t-271 -45h-346l144 674h-185l17 80h184l143 669h340zM1145 731q21 112 19 201t-29 156.5t-68 115t-98.5 77.5t-120 44t-133.5 14h-244l-125 -585h373 l-17 -80h-372l-125 -590h241q89 0 175.5 23t170 73.5t152 124.5t122 183.5t79.5 242.5z" />
<glyph unicode="&#xd1;" horiz-adv-x="1409" d="M758 1628l-66 17q16 56 55 92.5t93 36.5q35 0 104 -15.5t94 -15.5q66 0 88 82l68 -17q-20 -59 -63.5 -97t-104.5 -38q-38 0 -104.5 14.5t-87.5 14.5q-31 0 -48 -17t-28 -57zM96 0l303 1423h95l526 -1269l270 1269h92l-303 -1423h-94l-528 1272l-269 -1272h-92z" />
<glyph unicode="&#xd2;" horiz-adv-x="1339" d="M1112 1595l-471 144l31 71l469 -147zM547 -27q-187 0 -301.5 125.5t-114.5 354.5q0 149 30.5 293t92 271.5t147.5 224t204.5 152.5t254.5 56q202 0 311 -116t109 -345q0 -152 -30.5 -299t-92.5 -276.5t-148 -228t-205.5 -155.5t-256.5 -57zM567 59q113 0 213.5 54 t173 146t126 210.5t80 250t26.5 263.5q0 193 -89 287t-253 94q-119 0 -221.5 -54t-174 -144.5t-123 -208t-76 -245t-24.5 -255.5q0 -190 95 -294t247 -104z" />
<glyph unicode="&#xd3;" horiz-adv-x="1339" d="M659 1575l-22 67l483 189l27 -74zM547 -27q-187 0 -301.5 125.5t-114.5 354.5q0 149 30.5 293t92 271.5t147.5 224t204.5 152.5t254.5 56q202 0 311 -116t109 -345q0 -152 -30.5 -299t-92.5 -276.5t-148 -228t-205.5 -155.5t-256.5 -57zM567 59q113 0 213.5 54t173 146 t126 210.5t80 250t26.5 263.5q0 193 -89 287t-253 94q-119 0 -221.5 -54t-174 -144.5t-123 -208t-76 -245t-24.5 -255.5q0 -190 95 -294t247 -104z" />
<glyph unicode="&#xd4;" horiz-adv-x="1339" d="M711 1550l-60 33l258 270h80l141 -270l-71 -33l-125 228zM547 -27q-187 0 -301.5 125.5t-114.5 354.5q0 149 30.5 293t92 271.5t147.5 224t204.5 152.5t254.5 56q202 0 311 -116t109 -345q0 -152 -30.5 -299t-92.5 -276.5t-148 -228t-205.5 -155.5t-256.5 -57zM567 59 q113 0 213.5 54t173 146t126 210.5t80 250t26.5 263.5q0 193 -89 287t-253 94q-119 0 -221.5 -54t-174 -144.5t-123 -208t-76 -245t-24.5 -255.5q0 -190 95 -294t247 -104z" />
<glyph unicode="&#xd5;" horiz-adv-x="1339" d="M737 1628l-65 17q16 57 55 93t92 36q35 0 104.5 -15.5t94.5 -15.5q66 0 88 82l68 -17q-20 -59 -63.5 -97t-104.5 -38q-38 0 -105 14.5t-88 14.5q-31 0 -48 -17t-28 -57zM547 -27q-187 0 -301.5 125.5t-114.5 354.5q0 149 30.5 293t92 271.5t147.5 224t204.5 152.5 t254.5 56q202 0 311 -116t109 -345q0 -152 -30.5 -299t-92.5 -276.5t-148 -228t-205.5 -155.5t-256.5 -57zM567 59q113 0 213.5 54t173 146t126 210.5t80 250t26.5 263.5q0 193 -89 287t-253 94q-119 0 -221.5 -54t-174 -144.5t-123 -208t-76 -245t-24.5 -255.5 q0 -190 95 -294t247 -104z" />
<glyph unicode="&#xd6;" horiz-adv-x="1339" d="M745 1628q-22 0 -36.5 15t-14.5 38q0 30 22 53t56 23q22 0 36.5 -14t14.5 -37q0 -31 -22.5 -54.5t-55.5 -23.5zM1055 1628q-22 0 -36.5 15t-14.5 38q0 31 21.5 53.5t55.5 22.5q22 0 37 -14t15 -37q0 -31 -22.5 -54.5t-55.5 -23.5zM547 -27q-187 0 -301.5 125.5 t-114.5 354.5q0 149 30.5 293t92 271.5t147.5 224t204.5 152.5t254.5 56q202 0 311 -116t109 -345q0 -152 -30.5 -299t-92.5 -276.5t-148 -228t-205.5 -155.5t-256.5 -57zM567 59q113 0 213.5 54t173 146t126 210.5t80 250t26.5 263.5q0 193 -89 287t-253 94 q-119 0 -221.5 -54t-174 -144.5t-123 -208t-76 -245t-24.5 -255.5q0 -190 95 -294t247 -104z" />
<glyph unicode="&#xd7;" horiz-adv-x="1038" d="M1026 1061l-418 -361l266 -356l-71 -61l-264 358l-416 -358l-45 61l416 358l-265 359l70 57l264 -356l414 356z" />
<glyph unicode="&#xd8;" horiz-adv-x="1339" d="M1145 1360q135 -117 135 -371q0 -152 -30.5 -299t-92.5 -276.5t-148 -228t-205.5 -155.5t-256.5 -57q-128 0 -219 58l-92 -150l-64 25l100 164q-141 131 -141 383q0 149 30.5 293t92 271.5t147.5 224t204.5 152.5t254.5 56q138 0 230 -51l86 139l63 -25zM225 457 q0 -188 101 -301l714 1161q-75 47 -196 47q-119 0 -221.5 -54t-174 -144.5t-123 -208t-76 -245t-24.5 -255.5zM567 59q113 0 213.5 54t173 146t126 210.5t80 250t26.5 263.5q0 196 -94 293l-713 -1163q82 -54 188 -54z" />
<glyph unicode="&#xd9;" horiz-adv-x="1298" d="M1090 1595l-472 144l31 71l469 -147zM541 -27q-207 0 -308 141.5t-45 401.5l195 907h92l-194 -907q-16 -77 -17.5 -144t15.5 -125t51 -99.5t92.5 -65t136.5 -23.5q79 0 145 24t112.5 64.5t83 100t59.5 124.5t40 144l195 907h94l-194 -917q-59 -272 -194 -402.5 t-359 -130.5z" />
<glyph unicode="&#xda;" horiz-adv-x="1298" d="M637 1575l-23 67l484 189l26 -74zM541 -27q-207 0 -308 141.5t-45 401.5l195 907h92l-194 -907q-16 -77 -17.5 -144t15.5 -125t51 -99.5t92.5 -65t136.5 -23.5q79 0 145 24t112.5 64.5t83 100t59.5 124.5t40 144l195 907h94l-194 -917q-59 -272 -194 -402.5t-359 -130.5z " />
<glyph unicode="&#xdb;" horiz-adv-x="1298" d="M688 1550l-59 33l258 270h80l141 -270l-72 -33l-125 228zM541 -27q-207 0 -308 141.5t-45 401.5l195 907h92l-194 -907q-16 -77 -17.5 -144t15.5 -125t51 -99.5t92.5 -65t136.5 -23.5q79 0 145 24t112.5 64.5t83 100t59.5 124.5t40 144l195 907h94l-194 -917 q-59 -272 -194 -402.5t-359 -130.5z" />
<glyph unicode="&#xdc;" horiz-adv-x="1298" d="M723 1628q-22 0 -36.5 15t-14.5 38q0 30 22 53t56 23q22 0 36.5 -14t14.5 -37q0 -31 -22.5 -54.5t-55.5 -23.5zM1032 1628q-22 0 -36.5 15t-14.5 38q0 30 22 53t56 23q22 0 36.5 -14t14.5 -37q0 -31 -22.5 -54.5t-55.5 -23.5zM541 -27q-207 0 -308 141.5t-45 401.5 l195 907h92l-194 -907q-16 -77 -17.5 -144t15.5 -125t51 -99.5t92.5 -65t136.5 -23.5q79 0 145 24t112.5 64.5t83 100t59.5 124.5t40 144l195 907h94l-194 -917q-59 -272 -194 -402.5t-359 -130.5z" />
<glyph unicode="&#xdd;" horiz-adv-x="1157" d="M569 1575l-22 67l483 189l27 -74zM414 0l114 535l-264 888h103l229 -784l567 784h103l-645 -888l-115 -535h-92z" />
<glyph unicode="&#xde;" horiz-adv-x="1052" d="M96 0l303 1423h93l-62 -278h268q189 0 272.5 -110.5t43.5 -299.5q-43 -204 -180.5 -320t-335.5 -116h-246l-64 -299h-92zM268 377h246q153 0 261 95t143 257q33 154 -33 244t-217 90h-254z" />
<glyph unicode="&#xdf;" horiz-adv-x="1159" d="M670 -27q-136 0 -228.5 73.5t-122.5 170.5l66 51q27 -88 104.5 -149.5t192.5 -61.5q121 0 198.5 67t77.5 179q0 47 -22.5 84t-58.5 62t-79.5 47t-86.5 45t-79 50t-58.5 67.5t-22.5 91.5q0 58 24.5 107t63.5 83.5t86 65.5t94 59.5t86 58t63.5 69.5t24.5 87q0 80 -70 126 t-163 46q-75 0 -144.5 -31t-125 -100t-76.5 -166l-246 -1155h-90l246 1153q21 101 68 177t109.5 120t132 65t144.5 21q124 0 216.5 -66t92.5 -176q0 -76 -45.5 -139t-110 -106.5t-129 -84t-110 -91.5t-45.5 -109q0 -41 22.5 -74.5t58 -57t79 -45.5t87 -47t79 -54t58 -73 t22.5 -98q0 -151 -107 -246.5t-276 -95.5z" />
<glyph unicode="&#xe0;" horiz-adv-x="1120" d="M934 1272l-471 143l31 72l469 -148zM399 -27q-163 0 -246 99t-83 274q0 150 39 289.5t110 249t181.5 175.5t242.5 66q71 0 128.5 -23t93 -61.5t56 -82.5t25.5 -91l49 232h90l-180 -856q-22 -101 -22 -176q0 -38 6 -68h-92q-6 30 -6 68q0 70 20 168q-25 -49 -62.5 -93.5 t-88.5 -83.5t-119 -62.5t-142 -23.5zM428 57q87 0 164 40.5t132.5 109t96 156.5t60.5 184.5t20 191.5q0 147 -67.5 225t-194.5 78q-86 0 -163 -40t-133 -107.5t-97 -154.5t-61.5 -183t-20.5 -190q0 -149 68.5 -229.5t195.5 -80.5z" />
<glyph unicode="&#xe1;" horiz-adv-x="1120" d="M481 1251l-22 68l483 188l27 -73zM399 -27q-163 0 -246 99t-83 274q0 150 39 289.5t110 249t181.5 175.5t242.5 66q71 0 128.5 -23t93 -61.5t56 -82.5t25.5 -91l49 232h90l-180 -856q-22 -101 -22 -176q0 -38 6 -68h-92q-6 30 -6 68q0 70 20 168q-25 -49 -62.5 -93.5 t-88.5 -83.5t-119 -62.5t-142 -23.5zM428 57q87 0 164 40.5t132.5 109t96 156.5t60.5 184.5t20 191.5q0 147 -67.5 225t-194.5 78q-86 0 -163 -40t-133 -107.5t-97 -154.5t-61.5 -183t-20.5 -190q0 -149 68.5 -229.5t195.5 -80.5z" />
<glyph unicode="&#xe2;" horiz-adv-x="1120" d="M532 1227l-59 33l258 270h80l141 -270l-71 -33l-125 227zM399 -27q-163 0 -246 99t-83 274q0 150 39 289.5t110 249t181.5 175.5t242.5 66q71 0 128.5 -23t93 -61.5t56 -82.5t25.5 -91l49 232h90l-180 -856q-22 -101 -22 -176q0 -38 6 -68h-92q-6 30 -6 68q0 70 20 168 q-25 -49 -62.5 -93.5t-88.5 -83.5t-119 -62.5t-142 -23.5zM428 57q87 0 164 40.5t132.5 109t96 156.5t60.5 184.5t20 191.5q0 147 -67.5 225t-194.5 78q-86 0 -163 -40t-133 -107.5t-97 -154.5t-61.5 -183t-20.5 -190q0 -149 68.5 -229.5t195.5 -80.5z" />
<glyph unicode="&#xe3;" horiz-adv-x="1120" d="M559 1305l-65 16q16 57 55 93t92 36q35 0 104.5 -15.5t94.5 -15.5q66 0 88 82l67 -16q-20 -59 -63.5 -97t-104.5 -38q-38 0 -104.5 14t-87.5 14q-31 0 -48 -17t-28 -56zM399 -27q-163 0 -246 99t-83 274q0 150 39 289.5t110 249t181.5 175.5t242.5 66q71 0 128.5 -23 t93 -61.5t56 -82.5t25.5 -91l49 232h90l-180 -856q-22 -101 -22 -176q0 -38 6 -68h-92q-6 30 -6 68q0 70 20 168q-25 -49 -62.5 -93.5t-88.5 -83.5t-119 -62.5t-142 -23.5zM428 57q87 0 164 40.5t132.5 109t96 156.5t60.5 184.5t20 191.5q0 147 -67.5 225t-194.5 78 q-86 0 -163 -40t-133 -107.5t-97 -154.5t-61.5 -183t-20.5 -190q0 -149 68.5 -229.5t195.5 -80.5z" />
<glyph unicode="&#xe4;" horiz-adv-x="1120" d="M567 1305q-22 0 -36.5 15t-14.5 38q0 30 22 53t56 23q22 0 36.5 -14.5t14.5 -37.5q0 -31 -22.5 -54t-55.5 -23zM877 1305q-22 0 -37 15t-15 38q0 30 22 53t56 23q22 0 36.5 -14.5t14.5 -37.5q0 -31 -22 -54t-55 -23zM399 -27q-163 0 -246 99t-83 274q0 150 39 289.5 t110 249t181.5 175.5t242.5 66q71 0 128.5 -23t93 -61.5t56 -82.5t25.5 -91l49 232h90l-180 -856q-22 -101 -22 -176q0 -38 6 -68h-92q-6 30 -6 68q0 70 20 168q-25 -49 -62.5 -93.5t-88.5 -83.5t-119 -62.5t-142 -23.5zM428 57q87 0 164 40.5t132.5 109t96 156.5 t60.5 184.5t20 191.5q0 147 -67.5 225t-194.5 78q-86 0 -163 -40t-133 -107.5t-97 -154.5t-61.5 -183t-20.5 -190q0 -149 68.5 -229.5t195.5 -80.5z" />
<glyph unicode="&#xe5;" horiz-adv-x="1120" d="M705 1225q-70 0 -105.5 49t-21.5 125q15 74 72.5 124t129.5 50q70 0 107 -50t22 -124q-13 -74 -72 -124t-132 -50zM719 1286q44 0 80 31t45 82q12 50 -10.5 82t-67.5 32q-41 0 -78 -32t-47 -82q-10 -51 12.5 -82t65.5 -31zM399 -27q-163 0 -246 99t-83 274 q0 150 39 289.5t110 249t181.5 175.5t242.5 66q71 0 128.5 -23t93 -61.5t56 -82.5t25.5 -91l49 232h90l-180 -856q-22 -101 -22 -176q0 -38 6 -68h-92q-6 30 -6 68q0 70 20 168q-25 -49 -62.5 -93.5t-88.5 -83.5t-119 -62.5t-142 -23.5zM428 57q87 0 164 40.5t132.5 109 t96 156.5t60.5 184.5t20 191.5q0 147 -67.5 225t-194.5 78q-86 0 -163 -40t-133 -107.5t-97 -154.5t-61.5 -183t-20.5 -190q0 -149 68.5 -229.5t195.5 -80.5z" />
<glyph unicode="&#xe6;" horiz-adv-x="1820" d="M1268 59q104 0 206 56t164 157l68 -45q-70 -119 -187.5 -186.5t-271.5 -67.5q-129 0 -217 71.5t-117 199.5l-49 -244h-90l55 264q-51 -122 -166.5 -206.5t-263.5 -84.5q-163 0 -246 99t-83 274q0 150 39 289.5t110 249t181.5 175.5t242.5 66q71 0 128.5 -23t93 -61.5 t56 -82.5t25.5 -91l49 232h90l-47 -232q78 120 187.5 189t240.5 69q125 0 189.5 -55.5t64.5 -142.5q0 -70 -42 -144.5t-117.5 -138t-194 -104.5t-256.5 -41q-54 0 -109 6q-8 -49 -8 -113q0 -156 71.5 -245t203.5 -89zM428 57q87 0 164 40.5t132.5 109t96 156.5t60.5 184.5 t20 191.5q0 147 -67.5 225t-194.5 78q-86 0 -163 -40t-133 -107.5t-97 -154.5t-61.5 -183t-20.5 -190q0 -149 68.5 -229.5t195.5 -80.5zM1452 1042q-78 0 -150 -37.5t-127 -101t-95 -145t-62 -172.5q50 -6 96 -6q117 0 217.5 32.5t163.5 82.5t98 107t35 109q0 59 -44.5 95 t-131.5 36z" />
<glyph unicode="&#xe7;" horiz-adv-x="974" d="M633 1042q-98 0 -187.5 -60t-150.5 -154.5t-97 -210.5t-36 -228q0 -153 68.5 -241.5t189.5 -88.5q99 0 190.5 56t151.5 153l74 -30q-58 -110 -168.5 -185.5t-249.5 -79.5l-96 -106q38 12 77 12q78 0 113.5 -42t22.5 -101q-13 -65 -76.5 -112.5t-163.5 -47.5 q-103 0 -162 53l35 58q61 -49 139 -49q61 0 101.5 28.5t48.5 65.5q6 36 -18.5 61t-78.5 25q-46 0 -100 -23l-39 35l127 147q-130 19 -204 125.5t-74 272.5q0 105 26.5 212.5t78 203.5t119.5 171t159 119.5t190 44.5q131 0 212 -74t87 -192l-86 -29q-9 97 -70 154t-153 57z " />
<glyph unicode="&#xe8;" horiz-adv-x="995" d="M911 1339l-28 -67l-471 143l30 72zM283 500q-51 0 -107 6q-8 -49 -8 -113q0 -156 71 -245t203 -89q104 0 205.5 56t165.5 157l68 -45q-69 -119 -187.5 -186.5t-271.5 -67.5q-160 0 -255 107.5t-95 292.5q0 112 25.5 222t76 205.5t118.5 168.5t158.5 115t190.5 42 q123 0 188.5 -56t65.5 -142q0 -56 -26 -115t-78.5 -115t-124 -100t-171.5 -71t-212 -27zM627 1042q-79 0 -151 -37.5t-126.5 -101t-94.5 -145t-62 -172.5q49 -6 96 -6q116 0 216.5 32.5t163.5 82.5t98.5 107t35.5 109q0 58 -45 94.5t-131 36.5z" />
<glyph unicode="&#xe9;" horiz-adv-x="995" d="M918 1434l-488 -183l-22 68l483 188zM283 500q-51 0 -107 6q-8 -49 -8 -113q0 -156 71 -245t203 -89q104 0 205.5 56t165.5 157l68 -45q-69 -119 -187.5 -186.5t-271.5 -67.5q-160 0 -255 107.5t-95 292.5q0 112 25.5 222t76 205.5t118.5 168.5t158.5 115t190.5 42 q123 0 188.5 -56t65.5 -142q0 -56 -26 -115t-78.5 -115t-124 -100t-171.5 -71t-212 -27zM627 1042q-79 0 -151 -37.5t-126.5 -101t-94.5 -145t-62 -172.5q49 -6 96 -6q116 0 216.5 32.5t163.5 82.5t98.5 107t35.5 109q0 58 -45 94.5t-131 36.5z" />
<glyph unicode="&#xea;" horiz-adv-x="995" d="M705 1454l-224 -227l-59 33l258 270h80l141 -270l-72 -33zM283 500q-51 0 -107 6q-8 -49 -8 -113q0 -156 71 -245t203 -89q104 0 205.5 56t165.5 157l68 -45q-69 -119 -187.5 -186.5t-271.5 -67.5q-160 0 -255 107.5t-95 292.5q0 112 25.5 222t76 205.5t118.5 168.5 t158.5 115t190.5 42q123 0 188.5 -56t65.5 -142q0 -56 -26 -115t-78.5 -115t-124 -100t-171.5 -71t-212 -27zM627 1042q-79 0 -151 -37.5t-126.5 -101t-94.5 -145t-62 -172.5q49 -6 96 -6q116 0 216.5 32.5t163.5 82.5t98.5 107t35.5 109q0 58 -45 94.5t-131 36.5z" />
<glyph unicode="&#xeb;" horiz-adv-x="995" d="M516 1305q-22 0 -36.5 15t-14.5 38q0 30 22 53t56 23q22 0 36.5 -14.5t14.5 -37.5q0 -31 -22.5 -54t-55.5 -23zM825 1305q-22 0 -36.5 15t-14.5 38q0 30 22 53t56 23q22 0 36.5 -14.5t14.5 -37.5q0 -31 -22.5 -54t-55.5 -23zM283 500q-51 0 -107 6q-8 -49 -8 -113 q0 -156 71 -245t203 -89q104 0 205.5 56t165.5 157l68 -45q-69 -119 -187.5 -186.5t-271.5 -67.5q-160 0 -255 107.5t-95 292.5q0 112 25.5 222t76 205.5t118.5 168.5t158.5 115t190.5 42q123 0 188.5 -56t65.5 -142q0 -56 -26 -115t-78.5 -115t-124 -100t-171.5 -71 t-212 -27zM627 1042q-79 0 -151 -37.5t-126.5 -101t-94.5 -145t-62 -172.5q49 -6 96 -6q116 0 216.5 32.5t163.5 82.5t98.5 107t35.5 109q0 58 -45 94.5t-131 36.5z" />
<glyph unicode="&#xec;" horiz-adv-x="477" d="M612 1272l-471 143l31 72l469 -148zM78 0l233 1100h88l-233 -1100h-88z" />
<glyph unicode="&#xed;" horiz-adv-x="477" d="M160 1251l-23 68l484 188l26 -73zM78 0l233 1100h88l-233 -1100h-88z" />
<glyph unicode="&#xee;" horiz-adv-x="477" d="M211 1227l-59 33l258 270h79l142 -270l-72 -33l-125 227zM78 0l233 1100h88l-233 -1100h-88z" />
<glyph unicode="&#xef;" horiz-adv-x="477" d="M246 1305q-22 0 -36.5 15t-14.5 38q0 31 21.5 53.5t55.5 22.5q22 0 37 -14.5t15 -37.5q0 -31 -22.5 -54t-55.5 -23zM555 1305q-22 0 -36.5 15t-14.5 38q0 30 22 53t56 23q22 0 36.5 -14.5t14.5 -37.5q0 -31 -22.5 -54t-55.5 -23zM78 0l233 1100h88l-233 -1100h-88z" />
<glyph unicode="&#xf0;" horiz-adv-x="1015" d="M817 1311q60 -101 94 -220.5t41 -265t-28 -299.5v-2q-55 -257 -201.5 -404t-339.5 -147q-192 0 -274 147.5t-27 403.5t198.5 401.5t335.5 145.5q138 0 218 -74q-36 152 -111 277l-238 -92l-16 61l217 86q-81 117 -182 170l82 55q112 -67 196 -188l232 90l18 -61zM401 55 q156 0 268.5 122.5t159.5 346.5q47 222 -13 343.5t-216 121.5q-157 0 -268 -121t-158 -344q-47 -225 11.5 -347t215.5 -122z" />
<glyph unicode="&#xf1;" horiz-adv-x="1144" d="M569 1305l-65 16q16 57 55 93t92 36q35 0 104.5 -15.5t94.5 -15.5q66 0 88 82l68 -16q-20 -59 -63.5 -97t-104.5 -38q-38 0 -105 14t-88 14q-31 0 -48 -17t-28 -56zM78 0l233 1100h88l-41 -185q51 83 147 147t210 64q159 0 235.5 -110.5t32.5 -317.5l-149 -698h-89 l146 686q37 171 -25 262.5t-186 91.5q-119 0 -227 -98t-144 -274l-143 -668h-88z" />
<glyph unicode="&#xf2;" horiz-adv-x="1060" d="M903 1272l-471 143l31 72l469 -148zM406 -27q-163 0 -250.5 97t-87.5 278q0 145 41 284t114 249t185 177.5t243 67.5q165 0 253.5 -96t88.5 -276q0 -116 -26 -229.5t-77 -212.5t-120.5 -175t-163.5 -120t-200 -44zM424 57q108 0 200 61.5t150.5 160t91.5 217.5t33 239 q0 148 -67.5 227.5t-196.5 79.5q-87 0 -163.5 -40t-132.5 -107.5t-96.5 -155t-60.5 -183.5t-20 -191q0 -148 67.5 -228t194.5 -80z" />
<glyph unicode="&#xf3;" horiz-adv-x="1060" d="M451 1251l-23 68l483 188l27 -73zM406 -27q-163 0 -250.5 97t-87.5 278q0 145 41 284t114 249t185 177.5t243 67.5q165 0 253.5 -96t88.5 -276q0 -116 -26 -229.5t-77 -212.5t-120.5 -175t-163.5 -120t-200 -44zM424 57q108 0 200 61.5t150.5 160t91.5 217.5t33 239 q0 148 -67.5 227.5t-196.5 79.5q-87 0 -163.5 -40t-132.5 -107.5t-96.5 -155t-60.5 -183.5t-20 -191q0 -148 67.5 -228t194.5 -80z" />
<glyph unicode="&#xf4;" horiz-adv-x="1060" d="M502 1227l-60 33l258 270h80l142 -270l-72 -33l-125 227zM406 -27q-163 0 -250.5 97t-87.5 278q0 145 41 284t114 249t185 177.5t243 67.5q165 0 253.5 -96t88.5 -276q0 -116 -26 -229.5t-77 -212.5t-120.5 -175t-163.5 -120t-200 -44zM424 57q108 0 200 61.5t150.5 160 t91.5 217.5t33 239q0 148 -67.5 227.5t-196.5 79.5q-87 0 -163.5 -40t-132.5 -107.5t-96.5 -155t-60.5 -183.5t-20 -191q0 -148 67.5 -228t194.5 -80z" />
<glyph unicode="&#xf5;" horiz-adv-x="1060" d="M528 1305l-65 16q16 57 55 93t92 36q35 0 104.5 -15.5t94.5 -15.5q66 0 88 82l68 -16q-20 -59 -63.5 -97t-104.5 -38q-38 0 -105 14t-88 14q-32 0 -48.5 -17t-27.5 -56zM406 -27q-163 0 -250.5 97t-87.5 278q0 145 41 284t114 249t185 177.5t243 67.5q165 0 253.5 -96 t88.5 -276q0 -116 -26 -229.5t-77 -212.5t-120.5 -175t-163.5 -120t-200 -44zM424 57q108 0 200 61.5t150.5 160t91.5 217.5t33 239q0 148 -67.5 227.5t-196.5 79.5q-87 0 -163.5 -40t-132.5 -107.5t-96.5 -155t-60.5 -183.5t-20 -191q0 -148 67.5 -228t194.5 -80z" />
<glyph unicode="&#xf6;" horiz-adv-x="1060" d="M537 1305q-22 0 -37 15t-15 38q0 30 22 53t56 23q22 0 36.5 -14.5t14.5 -37.5q0 -31 -22 -54t-55 -23zM846 1305q-22 0 -36.5 15t-14.5 38q0 31 21.5 53.5t55.5 22.5q22 0 37 -14.5t15 -37.5q0 -31 -22.5 -54t-55.5 -23zM406 -27q-163 0 -250.5 97t-87.5 278 q0 145 41 284t114 249t185 177.5t243 67.5q165 0 253.5 -96t88.5 -276q0 -116 -26 -229.5t-77 -212.5t-120.5 -175t-163.5 -120t-200 -44zM424 57q108 0 200 61.5t150.5 160t91.5 217.5t33 239q0 148 -67.5 227.5t-196.5 79.5q-87 0 -163.5 -40t-132.5 -107.5t-96.5 -155 t-60.5 -183.5t-20 -191q0 -148 67.5 -228t194.5 -80z" />
<glyph unicode="&#xf7;" horiz-adv-x="1089" d="M618 1014q-31 0 -47.5 20.5t-7.5 52.5q6 31 30.5 51.5t55.5 20.5t47.5 -20.5t10.5 -51.5q-9 -32 -33.5 -52.5t-55.5 -20.5zM145 672l19 84h850l-21 -84h-848zM459 268q-31 0 -47 20t-9 52q6 31 30.5 51.5t55.5 20.5t47.5 -20.5t10.5 -51.5q-7 -32 -32 -52t-56 -20z" />
<glyph unicode="&#xf8;" horiz-adv-x="1060" d="M993 1153l-88 -123q88 -97 88 -276q0 -116 -26 -229.5t-77 -212.5t-120.5 -175t-163.5 -120t-200 -44q-130 0 -216 64l-75 -105l-45 31l80 113q-82 97 -82 272q0 145 41 284t114 249t185 177.5t243 67.5q130 0 213 -59l84 117zM162 365q0 -129 49 -205l596 827 q-64 55 -172 55q-87 0 -163.5 -40t-132.5 -107.5t-96.5 -155t-60.5 -183.5t-20 -191zM899 735q0 135 -55 211l-596 -829q66 -60 176 -60q108 0 200 61.5t150.5 160t91.5 217.5t33 239z" />
<glyph unicode="&#xf9;" horiz-adv-x="1026" d="M868 1272l-471 143l31 72l469 -148zM330 -27q-151 0 -220 101.5t-36 257.5l164 768h88l-160 -756q-29 -135 25 -211t174 -76q124 0 237 99.5t148 263.5l143 680h90l-172 -811q-40 -182 -16 -289h-90q-20 69 2 193q-56 -88 -157.5 -154t-219.5 -66z" />
<glyph unicode="&#xfa;" horiz-adv-x="1026" d="M416 1251l-23 68l484 188l26 -73zM330 -27q-151 0 -220 101.5t-36 257.5l164 768h88l-160 -756q-29 -135 25 -211t174 -76q124 0 237 99.5t148 263.5l143 680h90l-172 -811q-40 -182 -16 -289h-90q-20 69 2 193q-56 -88 -157.5 -154t-219.5 -66z" />
<glyph unicode="&#xfb;" horiz-adv-x="1026" d="M467 1227l-59 33l258 270h79l142 -270l-72 -33l-125 227zM330 -27q-151 0 -220 101.5t-36 257.5l164 768h88l-160 -756q-29 -135 25 -211t174 -76q124 0 237 99.5t148 263.5l143 680h90l-172 -811q-40 -182 -16 -289h-90q-20 69 2 193q-56 -88 -157.5 -154t-219.5 -66z " />
<glyph unicode="&#xfc;" horiz-adv-x="1026" d="M502 1305q-22 0 -36.5 15t-14.5 38q0 31 21.5 53.5t55.5 22.5q22 0 37 -14.5t15 -37.5q0 -31 -22.5 -54t-55.5 -23zM811 1305q-22 0 -36.5 15t-14.5 38q0 30 22 53t56 23q22 0 36.5 -14.5t14.5 -37.5q0 -31 -22.5 -54t-55.5 -23zM330 -27q-151 0 -220 101.5t-36 257.5 l164 768h88l-160 -756q-29 -135 25 -211t174 -76q124 0 237 99.5t148 263.5l143 680h90l-172 -811q-40 -182 -16 -289h-90q-20 69 2 193q-56 -88 -157.5 -154t-219.5 -66z" />
<glyph unicode="&#xfd;" horiz-adv-x="1003" d="M403 1251l-22 68l483 188l27 -73zM293 -426q-138 0 -226 67.5t-108 194.5l80 33q15 -103 81.5 -158t180.5 -55q71 0 142.5 36t131.5 112.5t80 177.5l47 217q-56 -88 -154.5 -152.5t-215.5 -64.5q-151 0 -220.5 100t-35.5 254l162 764h88l-160 -750q-27 -135 27 -211 t174 -76q124 0 236 99t147 262l143 676h90l-238 -1114q-28 -132 -96 -226.5t-159 -140t-197 -45.5z" />
<glyph unicode="&#xfe;" horiz-adv-x="1159" d="M-8 -399l411 1935h89l-144 -678q25 45 60.5 87t86.5 85t122 69.5t149 26.5q157 0 241.5 -93.5t84.5 -272.5q0 -116 -25 -229.5t-74.5 -214t-117 -177.5t-159.5 -121.5t-196 -44.5q-63 0 -114 18t-83.5 44.5t-56 62.5t-35 68t-16.5 65l-135 -630h-88zM522 55 q86 0 163 40.5t133 108.5t97 155.5t61.5 184t20.5 191.5q0 149 -67 229t-193 80q-86 0 -163.5 -43.5t-133.5 -114.5t-97.5 -160t-62 -182t-20.5 -179q0 -149 67.5 -229.5t194.5 -80.5z" />
<glyph unicode="&#xff;" horiz-adv-x="1003" d="M489 1305q-22 0 -36.5 15t-14.5 38q0 30 22 53t56 23q22 0 36.5 -14.5t14.5 -37.5q0 -31 -22.5 -54t-55.5 -23zM799 1305q-22 0 -36.5 15t-14.5 38q0 31 21.5 53.5t55.5 22.5q22 0 37 -14.5t15 -37.5q0 -31 -22.5 -54t-55.5 -23zM293 -426q-138 0 -226 67.5t-108 194.5 l80 33q15 -103 81.5 -158t180.5 -55q71 0 142.5 36t131.5 112.5t80 177.5l47 217q-56 -88 -154.5 -152.5t-215.5 -64.5q-151 0 -220.5 100t-35.5 254l162 764h88l-160 -750q-27 -135 27 -211t174 -76q124 0 236 99t147 262l143 676h90l-238 -1114q-28 -132 -96 -226.5 t-159 -140t-197 -45.5z" />
<glyph unicode="&#x100;" horiz-adv-x="1146" d="M584 1743h483l-16 -74h-484zM702 1423h115l168 -1423h-94l-45 391h-613l-210 -391h-95zM279 475h557l-99 856z" />
<glyph unicode="&#x101;" horiz-adv-x="1120" d="M487 1346l17 73h483l-16 -73h-484zM399 -27q-163 0 -246 99t-83 274q0 150 39 289.5t110 249t181.5 175.5t242.5 66q71 0 128.5 -23t93 -61.5t56 -82.5t25.5 -91l49 232h90l-180 -856q-22 -101 -22 -176q0 -38 6 -68h-92q-6 30 -6 68q0 70 20 168q-25 -49 -62.5 -93.5 t-88.5 -83.5t-119 -62.5t-142 -23.5zM428 57q87 0 164 40.5t132.5 109t96 156.5t60.5 184.5t20 191.5q0 147 -67.5 225t-194.5 78q-86 0 -163 -40t-133 -107.5t-97 -154.5t-61.5 -183t-20.5 -190q0 -149 68.5 -229.5t195.5 -80.5z" />
<glyph unicode="&#x102;" horiz-adv-x="1146" d="M803 1587q-101 0 -155.5 63t-29.5 185h76q-17 -83 14 -128.5t99 -45.5q66 0 117 45.5t69 128.5h76q-27 -124 -98 -186t-168 -62zM702 1423h115l168 -1423h-94l-45 391h-613l-210 -391h-95zM279 475h557l-99 856z" />
<glyph unicode="&#x103;" horiz-adv-x="1120" d="M723 1264q-101 0 -155 62.5t-29 184.5h75q-17 -83 14 -128.5t99 -45.5q66 0 117 45.5t69 128.5h76q-27 -124 -98 -185.5t-168 -61.5zM399 -27q-163 0 -246 99t-83 274q0 150 39 289.5t110 249t181.5 175.5t242.5 66q71 0 128.5 -23t93 -61.5t56 -82.5t25.5 -91l49 232h90 l-180 -856q-22 -101 -22 -176q0 -38 6 -68h-92q-6 30 -6 68q0 70 20 168q-25 -49 -62.5 -93.5t-88.5 -83.5t-119 -62.5t-142 -23.5zM428 57q87 0 164 40.5t132.5 109t96 156.5t60.5 184.5t20 191.5q0 147 -67.5 225t-194.5 78q-86 0 -163 -40t-133 -107.5t-97 -154.5 t-61.5 -183t-20.5 -190q0 -149 68.5 -229.5t195.5 -80.5z" />
<glyph unicode="&#x104;" horiz-adv-x="1146" d="M817 1423l168 -1423h-22q-33 -32 -53 -53.5t-40.5 -54.5t-27.5 -64q-10 -55 14 -85t80 -30l-27 -65q-84 0 -122 45.5t-19 122.5q9 52 45.5 101t77.5 83l-45 391h-613l-210 -391h-95l774 1423h115zM279 475h557l-99 856z" />
<glyph unicode="&#x105;" horiz-adv-x="1120" d="M399 -27q-163 0 -246 99t-83 274q0 150 39 289.5t110 249t181.5 175.5t242.5 66q71 0 128.5 -23t93 -61.5t56 -82.5t25.5 -91l49 232h90l-180 -856q-22 -101 -22 -176q0 -38 6 -68h-92q-6 30 -6 68q0 70 20 168q-25 -49 -62.5 -93.5t-88.5 -83.5t-119 -62.5t-142 -23.5z M428 57q87 0 164 40.5t132.5 109t96 156.5t60.5 184.5t20 191.5q0 147 -67.5 225t-194.5 78q-86 0 -163 -40t-133 -107.5t-97 -154.5t-61.5 -183t-20.5 -190q0 -149 68.5 -229.5t195.5 -80.5zM727 -352q-84 0 -122 45.5t-19 122.5q9 52 45.5 101t77.5 83h71 q-33 -32 -53 -53.5t-40.5 -54.5t-27.5 -64q-10 -55 14.5 -85t80.5 -30z" />
<glyph unicode="&#x106;" horiz-adv-x="1253" d="M696 1575l-22 67l483 189l27 -74zM588 -27q-210 0 -332.5 128t-122.5 370q0 151 33 294.5t98.5 267t155.5 217t211 147t258 53.5q169 0 271 -77t126 -189l-92 -35q-65 215 -311 215q-119 0 -225 -51t-183.5 -138t-134 -199.5t-85 -239t-28.5 -253.5q0 -208 102.5 -316 t278.5 -108q253 0 406 215l76 -34q-172 -267 -502 -267z" />
<glyph unicode="&#x107;" horiz-adv-x="974" d="M446 1251l-22 68l483 188l27 -73zM401 -27q-153 0 -242 109t-89 293q0 105 26.5 212.5t78 203.5t119.5 171t159 119.5t190 44.5q131 0 212 -74t87 -192l-86 -29q-9 97 -70 154t-153 57q-98 0 -187.5 -60t-150.5 -154.5t-97 -210.5t-36 -228q0 -153 68.5 -241.5 t189.5 -88.5q99 0 190.5 56t151.5 153l74 -30q-60 -114 -175.5 -189.5t-259.5 -75.5z" />
<glyph unicode="&#x108;" horiz-adv-x="1253" d="M748 1550l-60 33l258 270h80l141 -270l-71 -33l-125 228zM588 -27q-210 0 -332.5 128t-122.5 370q0 151 33 294.5t98.5 267t155.5 217t211 147t258 53.5q169 0 271 -77t126 -189l-92 -35q-65 215 -311 215q-119 0 -225 -51t-183.5 -138t-134 -199.5t-85 -239 t-28.5 -253.5q0 -208 102.5 -316t278.5 -108q253 0 406 215l76 -34q-172 -267 -502 -267z" />
<glyph unicode="&#x109;" horiz-adv-x="974" d="M498 1227l-60 33l258 270h80l142 -270l-72 -33l-125 227zM401 -27q-153 0 -242 109t-89 293q0 105 26.5 212.5t78 203.5t119.5 171t159 119.5t190 44.5q131 0 212 -74t87 -192l-86 -29q-9 97 -70 154t-153 57q-98 0 -187.5 -60t-150.5 -154.5t-97 -210.5t-36 -228 q0 -153 68.5 -241.5t189.5 -88.5q99 0 190.5 56t151.5 153l74 -30q-60 -114 -175.5 -189.5t-259.5 -75.5z" />
<glyph unicode="&#x10a;" horiz-adv-x="1253" d="M936 1622q-24 0 -38.5 17t-8.5 44t28 45.5t46 18.5q25 0 40 -18.5t9 -45.5q-4 -27 -26.5 -44t-49.5 -17zM588 -27q-210 0 -332.5 128t-122.5 370q0 151 33 294.5t98.5 267t155.5 217t211 147t258 53.5q169 0 271 -77t126 -189l-92 -35q-65 215 -311 215q-119 0 -225 -51 t-183.5 -138t-134 -199.5t-85 -239t-28.5 -253.5q0 -208 102.5 -316t278.5 -108q253 0 406 215l76 -34q-172 -267 -502 -267z" />
<glyph unicode="&#x10b;" horiz-adv-x="974" d="M692 1325q-25 0 -39 18.5t-8 45.5q6 26 27.5 43.5t46.5 17.5t40 -17.5t9 -43.5q-6 -27 -28.5 -45.5t-47.5 -18.5zM401 -27q-153 0 -242 109t-89 293q0 105 26.5 212.5t78 203.5t119.5 171t159 119.5t190 44.5q131 0 212 -74t87 -192l-86 -29q-9 97 -70 154t-153 57 q-98 0 -187.5 -60t-150.5 -154.5t-97 -210.5t-36 -228q0 -153 68.5 -241.5t189.5 -88.5q99 0 190.5 56t151.5 153l74 -30q-60 -114 -175.5 -189.5t-259.5 -75.5z" />
<glyph unicode="&#x10c;" horiz-adv-x="1253" d="M891 1559l-166 247l76 33l139 -209l227 209l62 -33l-273 -247h-65zM588 -27q-210 0 -332.5 128t-122.5 370q0 151 33 294.5t98.5 267t155.5 217t211 147t258 53.5q169 0 271 -77t126 -189l-92 -35q-65 215 -311 215q-119 0 -225 -51t-183.5 -138t-134 -199.5t-85 -239 t-28.5 -253.5q0 -208 102.5 -316t278.5 -108q253 0 406 215l76 -34q-172 -267 -502 -267z" />
<glyph unicode="&#x10d;" horiz-adv-x="974" d="M641 1235l-166 248l76 33l139 -209l228 209l61 -33l-272 -248h-66zM401 -27q-153 0 -242 109t-89 293q0 105 26.5 212.5t78 203.5t119.5 171t159 119.5t190 44.5q131 0 212 -74t87 -192l-86 -29q-9 97 -70 154t-153 57q-98 0 -187.5 -60t-150.5 -154.5t-97 -210.5 t-36 -228q0 -153 68.5 -241.5t189.5 -88.5q99 0 190.5 56t151.5 153l74 -30q-60 -114 -175.5 -189.5t-259.5 -75.5z" />
<glyph unicode="&#x10e;" horiz-adv-x="1325" d="M784 1559l-166 247l76 33l140 -209l227 209l61 -33l-272 -247h-66zM96 0l303 1423h340q102 0 188 -24.5t158 -76t115 -132t57 -193t-16 -258.5q-35 -186 -111.5 -329t-183 -231.5t-233.5 -133.5t-271 -45h-346zM205 84h241q89 0 175.5 23t170 73.5t152 124.5t122 183.5 t79.5 242.5q21 112 19 201t-29 156.5t-68 115t-98.5 77.5t-120 44t-133.5 14h-244z" />
<glyph unicode="&#x10f;" horiz-adv-x="1120" d="M399 -27q-161 0 -244 106.5t-83 282.5q0 116 25 228t75 208.5t118 170t160 115.5t195 42q75 0 133 -22.5t92.5 -60.5t53 -80.5t24.5 -90.5l142 664h88l-273 -1292q-27 -130 -16 -244h-88q-17 81 14 233q-27 -50 -64.5 -93.5t-89 -82.5t-119 -61.5t-143.5 -22.5z M1223 1159l114 377h82l-127 -377h-69zM430 57q87 0 164 40.5t132.5 109t96 156.5t60.5 184.5t20 191.5q0 147 -67.5 225t-194.5 78q-87 0 -164 -40t-133 -107.5t-96.5 -154.5t-61 -182.5t-20.5 -190.5q0 -150 67.5 -230t196.5 -80z" />
<glyph unicode="&#x110;" horiz-adv-x="1325" d="M739 1423q102 0 188 -24.5t158 -76t115 -132t57 -193t-16 -258.5q-35 -186 -111.5 -329t-183 -231.5t-233.5 -133.5t-271 -45h-346l144 674h-185l17 80h184l143 669h340zM1145 731q21 112 19 201t-29 156.5t-68 115t-98.5 77.5t-120 44t-133.5 14h-244l-125 -585h373 l-17 -80h-372l-125 -590h241q89 0 175.5 23t170 73.5t152 124.5t122 183.5t79.5 242.5z" />
<glyph unicode="&#x111;" horiz-adv-x="1120" d="M1282 1366l-16 -72h-140l-221 -1050q-27 -130 -16 -244h-88q-17 81 14 233q-27 -50 -64.5 -93.5t-89 -82.5t-119 -61.5t-143.5 -22.5q-161 0 -244 106.5t-83 282.5q0 116 25 228t75 208.5t118 170t160 115.5t195 42q75 0 133 -22.5t92.5 -60.5t53 -80.5t24.5 -90.5 l90 422h-299l17 72h297l37 170h88l-35 -170h139zM430 57q87 0 164 40.5t132.5 109t96 156.5t60.5 184.5t20 191.5q0 147 -67.5 225t-194.5 78q-87 0 -164 -40t-133 -107.5t-96.5 -154.5t-61 -182.5t-20.5 -190.5q0 -150 67.5 -230t196.5 -80z" />
<glyph unicode="&#x112;" horiz-adv-x="1150" d="M584 1669l16 74h483l-16 -74h-483zM96 0l303 1423h740l-21 -84h-647l-121 -577h568l-21 -84h-565l-127 -594h704l-16 -84h-797z" />
<glyph unicode="&#x113;" horiz-adv-x="995" d="M453 1419h483l-16 -73h-484zM283 500q-51 0 -107 6q-8 -49 -8 -113q0 -156 71 -245t203 -89q104 0 205.5 56t165.5 157l68 -45q-69 -119 -187.5 -186.5t-271.5 -67.5q-160 0 -255 107.5t-95 292.5q0 112 25.5 222t76 205.5t118.5 168.5t158.5 115t190.5 42 q123 0 188.5 -56t65.5 -142q0 -56 -26 -115t-78.5 -115t-124 -100t-171.5 -71t-212 -27zM627 1042q-79 0 -151 -37.5t-126.5 -101t-94.5 -145t-62 -172.5q49 -6 96 -6q116 0 216.5 32.5t163.5 82.5t98.5 107t35.5 109q0 58 -45 94.5t-131 36.5z" />
<glyph unicode="&#x114;" horiz-adv-x="1150" d="M819 1587q-101 0 -155 63t-29 185h76q-17 -83 14 -128.5t98 -45.5q66 0 117.5 45.5t69.5 128.5h75q-27 -124 -98 -186t-168 -62zM96 0l303 1423h740l-21 -84h-647l-121 -577h568l-21 -84h-565l-127 -594h704l-16 -84h-797z" />
<glyph unicode="&#x115;" horiz-adv-x="995" d="M672 1264q-101 0 -155.5 62.5t-29.5 184.5h76q-17 -83 14 -128.5t99 -45.5q66 0 117 45.5t69 128.5h76q-27 -124 -98 -185.5t-168 -61.5zM283 500q-51 0 -107 6q-8 -49 -8 -113q0 -156 71 -245t203 -89q104 0 205.5 56t165.5 157l68 -45q-69 -119 -187.5 -186.5 t-271.5 -67.5q-160 0 -255 107.5t-95 292.5q0 112 25.5 222t76 205.5t118.5 168.5t158.5 115t190.5 42q123 0 188.5 -56t65.5 -142q0 -56 -26 -115t-78.5 -115t-124 -100t-171.5 -71t-212 -27zM627 1042q-79 0 -151 -37.5t-126.5 -101t-94.5 -145t-62 -172.5q49 -6 96 -6 q116 0 216.5 32.5t163.5 82.5t98.5 107t35.5 109q0 58 -45 94.5t-131 36.5z" />
<glyph unicode="&#x116;" horiz-adv-x="1150" d="M817 1622q-24 0 -38.5 17t-8.5 44t28 45.5t46 18.5q25 0 40 -18.5t9 -45.5q-4 -27 -26.5 -44t-49.5 -17zM96 0l303 1423h740l-21 -84h-647l-121 -577h568l-21 -84h-565l-127 -594h704l-16 -84h-797z" />
<glyph unicode="&#x117;" horiz-adv-x="995" d="M676 1325q-25 0 -39 18.5t-8 45.5q6 26 27 43.5t46 17.5t40.5 -17.5t9.5 -43.5q-6 -27 -28.5 -45.5t-47.5 -18.5zM442 59q104 0 205.5 56t165.5 157l68 -45q-69 -119 -187.5 -186.5t-271.5 -67.5q-160 0 -255 107.5t-95 292.5q0 112 25.5 222t76 205.5t118.5 168.5 t158.5 115t190.5 42q123 0 188.5 -56t65.5 -142q0 -56 -26 -115t-78.5 -115t-124 -100t-171.5 -71t-212 -27q-51 0 -107 6q-8 -49 -8 -113q0 -156 71 -245t203 -89zM627 1042q-79 0 -151 -37.5t-126.5 -101t-94.5 -145t-62 -172.5q49 -6 96 -6q116 0 216.5 32.5t163.5 82.5 t98.5 107t35.5 109q0 58 -45 94.5t-131 36.5z" />
<glyph unicode="&#x118;" horiz-adv-x="1150" d="M1118 1339h-647l-121 -577h568l-21 -84h-565l-127 -594h704l-16 -84q-33 -32 -53 -53.5t-40.5 -54.5t-27.5 -64q-10 -55 14 -85t80 -30l-26 -65q-84 0 -122.5 45.5t-19.5 122.5q9 52 45.5 101t77.5 83h-725l303 1423h740z" />
<glyph unicode="&#x119;" horiz-adv-x="995" d="M442 59q104 0 205.5 56t165.5 157l68 -45q-55 -94 -142.5 -157t-199.5 -84q-91 -91 -105 -158q-10 -55 14 -85t80 -30l-26 -65q-84 0 -122.5 45.5t-19.5 122.5q15 77 95 157h-33q-160 0 -255 107.5t-95 292.5q0 112 25.5 222t76 205.5t118.5 168.5t158.5 115t190.5 42 q123 0 188.5 -56t65.5 -142q0 -56 -26 -115t-78.5 -115t-124 -100t-171.5 -71t-212 -27q-51 0 -107 6q-8 -49 -8 -113q0 -156 71 -245t203 -89zM627 1042q-79 0 -151 -37.5t-126.5 -101t-94.5 -145t-62 -172.5q49 -6 96 -6q116 0 216.5 32.5t163.5 82.5t98.5 107t35.5 109 q0 58 -45 94.5t-131 36.5z" />
<glyph unicode="&#x11a;" horiz-adv-x="1150" d="M772 1559l-166 247l76 33l139 -209l228 209l61 -33l-272 -247h-66zM96 0l303 1423h740l-21 -84h-647l-121 -577h568l-21 -84h-565l-127 -594h704l-16 -84h-797z" />
<glyph unicode="&#x11b;" horiz-adv-x="995" d="M690 1235h-65l-166 248l76 33l139 -209l227 209l62 -33zM283 500q-51 0 -107 6q-8 -49 -8 -113q0 -156 71 -245t203 -89q104 0 205.5 56t165.5 157l68 -45q-69 -119 -187.5 -186.5t-271.5 -67.5q-160 0 -255 107.5t-95 292.5q0 112 25.5 222t76 205.5t118.5 168.5 t158.5 115t190.5 42q123 0 188.5 -56t65.5 -142q0 -56 -26 -115t-78.5 -115t-124 -100t-171.5 -71t-212 -27zM627 1042q-79 0 -151 -37.5t-126.5 -101t-94.5 -145t-62 -172.5q49 -6 96 -6q116 0 216.5 32.5t163.5 82.5t98.5 107t35.5 109q0 58 -45 94.5t-131 36.5z" />
<glyph unicode="&#x11c;" horiz-adv-x="1390" d="M737 1550l-59 33l258 270h80l141 -270l-72 -33l-124 228zM1286 1180l-94 -31q-27 95 -106.5 155t-208.5 60q-223 0 -397 -189t-232 -483q-30 -139 -14 -255.5t66 -200.5t136 -130.5t197 -46.5q128 0 242 45.5t198 131.5l80 389h-457l19 84h551l-111 -510 q-101 -107 -244 -166.5t-299 -59.5q-128 0 -229 53.5t-160.5 148.5t-81 226t10.5 285q42 223 147.5 396.5t260.5 270.5t333 97q169 0 268 -77t125 -193z" />
<glyph unicode="&#x11d;" horiz-adv-x="1161" d="M524 1229l-59 33l258 270h80l141 -270l-72 -33l-124 227zM326 -426q-122 0 -216.5 57.5t-134.5 167.5l80 39q30 -88 105.5 -135t175.5 -47q160 0 277.5 93t154.5 269l47 215q-23 -41 -58 -80.5t-86 -80t-121.5 -65.5t-148.5 -25q-158 0 -242.5 102.5t-84.5 280.5 q0 112 24.5 221.5t73.5 206.5t116.5 171.5t159 118t195.5 43.5q63 0 115.5 -17.5t85 -44t56.5 -61t35 -65t15 -59.5l47 221h90l-229 -1077q-49 -229 -187.5 -339t-344.5 -110zM430 61q98 0 187.5 62t151 159.5t98 219.5t36.5 241q0 143 -71.5 223.5t-188.5 80.5 q-108 0 -200 -61.5t-150.5 -160t-91.5 -217.5t-33 -239q0 -148 67.5 -228t194.5 -80z" />
<glyph unicode="&#x11e;" horiz-adv-x="1390" d="M928 1587q-101 0 -155.5 63t-29.5 185h76q-17 -83 14 -128.5t99 -45.5q66 0 117 45.5t69 128.5h76q-27 -124 -98 -186t-168 -62zM1286 1180l-94 -31q-27 95 -106.5 155t-208.5 60q-223 0 -397 -189t-232 -483q-30 -139 -14 -255.5t66 -200.5t136 -130.5t197 -46.5 q128 0 242 45.5t198 131.5l80 389h-457l19 84h551l-111 -510q-101 -107 -244 -166.5t-299 -59.5q-128 0 -229 53.5t-160.5 148.5t-81 226t10.5 285q42 223 147.5 396.5t260.5 270.5t333 97q169 0 268 -77t125 -193z" />
<glyph unicode="&#x11f;" horiz-adv-x="1161" d="M715 1266q-101 0 -155.5 62.5t-29.5 184.5h76q-17 -83 14 -128.5t99 -45.5q66 0 117 45.5t69 128.5h76q-27 -124 -98 -185.5t-168 -61.5zM326 -426q-122 0 -216.5 57.5t-134.5 167.5l80 39q30 -88 105.5 -135t175.5 -47q160 0 277.5 93t154.5 269l47 215 q-23 -41 -58 -80.5t-86 -80t-121.5 -65.5t-148.5 -25q-158 0 -242.5 102.5t-84.5 280.5q0 112 24.5 221.5t73.5 206.5t116.5 171.5t159 118t195.5 43.5q63 0 115.5 -17.5t85 -44t56.5 -61t35 -65t15 -59.5l47 221h90l-229 -1077q-49 -229 -187.5 -339t-344.5 -110zM430 61 q98 0 187.5 62t151 159.5t98 219.5t36.5 241q0 143 -71.5 223.5t-188.5 80.5q-108 0 -200 -61.5t-150.5 -160t-91.5 -217.5t-33 -239q0 -148 67.5 -228t194.5 -80z" />
<glyph unicode="&#x120;" horiz-adv-x="1390" d="M926 1622q-24 0 -38.5 17t-8.5 44t27.5 45.5t45.5 18.5q25 0 40 -18.5t9 -45.5q-4 -27 -26 -44t-49 -17zM1286 1180l-94 -31q-27 95 -106.5 155t-208.5 60q-223 0 -397 -189t-232 -483q-30 -139 -14 -255.5t66 -200.5t136 -130.5t197 -46.5q128 0 242 45.5t198 131.5 l80 389h-457l19 84h551l-111 -510q-101 -107 -244 -166.5t-299 -59.5q-128 0 -229 53.5t-160.5 148.5t-81 226t10.5 285q42 223 147.5 396.5t260.5 270.5t333 97q169 0 268 -77t125 -193z" />
<glyph unicode="&#x121;" horiz-adv-x="1161" d="M719 1327q-25 0 -39 18.5t-8 45.5q6 26 27 43.5t46 17.5t40.5 -17.5t9.5 -43.5q-6 -27 -28.5 -45.5t-47.5 -18.5zM326 -426q-122 0 -216.5 57.5t-134.5 167.5l80 39q30 -88 105.5 -135t175.5 -47q160 0 277.5 93t154.5 269l47 215q-23 -41 -58 -80.5t-86 -80 t-121.5 -65.5t-148.5 -25q-158 0 -242.5 102.5t-84.5 280.5q0 112 24.5 221.5t73.5 206.5t116.5 171.5t159 118t195.5 43.5q63 0 115.5 -17.5t85 -44t56.5 -61t35 -65t15 -59.5l47 221h90l-229 -1077q-49 -229 -187.5 -339t-344.5 -110zM430 61q98 0 187.5 62t151 159.5 t98 219.5t36.5 241q0 143 -71.5 223.5t-188.5 80.5q-108 0 -200 -61.5t-150.5 -160t-91.5 -217.5t-33 -239q0 -148 67.5 -228t194.5 -80z" />
<glyph unicode="&#x122;" horiz-adv-x="1390" d="M1286 1180l-94 -31q-27 95 -106.5 155t-208.5 60q-223 0 -397 -189t-232 -483q-30 -139 -14 -255.5t66 -200.5t136 -130.5t197 -46.5q128 0 242 45.5t198 131.5l80 389h-457l19 84h551l-111 -510q-101 -107 -244 -166.5t-299 -59.5q-128 0 -229 53.5t-160.5 148.5 t-81 226t10.5 285q42 223 147.5 396.5t260.5 270.5t333 97q169 0 268 -77t125 -193zM483 -457l-30 49q115 59 141 179q-18 -15 -39 -15q-33 0 -47 21t-8 49q5 28 29.5 49t60.5 21q47 0 67.5 -32t8.5 -83q-14 -72 -61 -135t-122 -103z" />
<glyph unicode="&#x123;" horiz-adv-x="1161" d="M713 1264q-45 0 -66 31.5t-12 84.5q16 71 63 134t123 102l27 -49q-108 -55 -141 -178q20 14 41 14q33 0 47.5 -20t9.5 -48q-7 -29 -31.5 -50t-60.5 -21zM326 -426q-122 0 -216.5 57.5t-134.5 167.5l80 39q30 -88 105.5 -135t175.5 -47q160 0 277.5 93t154.5 269l47 215 q-23 -41 -58 -80.5t-86 -80t-121.5 -65.5t-148.5 -25q-158 0 -242.5 102.5t-84.5 280.5q0 112 24.5 221.5t73.5 206.5t116.5 171.5t159 118t195.5 43.5q63 0 115.5 -17.5t85 -44t56.5 -61t35 -65t15 -59.5l47 221h90l-229 -1077q-49 -229 -187.5 -339t-344.5 -110zM430 61 q98 0 187.5 62t151 159.5t98 219.5t36.5 241q0 143 -71.5 223.5t-188.5 80.5q-108 0 -200 -61.5t-150.5 -160t-91.5 -217.5t-33 -239q0 -148 67.5 -228t194.5 -80z" />
<glyph unicode="&#x124;" horiz-adv-x="1439" d="M764 1550l-59 33l258 270h79l142 -270l-72 -33l-125 228zM96 0l303 1423h93l-142 -661h832l141 661h92l-303 -1423h-92l143 680h-831l-144 -680h-92z" />
<glyph unicode="&#x125;" horiz-adv-x="1144" d="M274 1589l-59 33l258 270h80l141 -270l-71 -33l-125 228zM78 0l325 1536h89l-132 -621q51 83 146.5 147t208.5 64q159 0 235.5 -110.5t32.5 -317.5l-149 -698h-89l146 686q37 171 -25 262.5t-186 91.5q-119 0 -227 -98t-144 -274l-143 -668h-88z" />
<glyph unicode="&#x126;" horiz-adv-x="1439" d="M1526 1165l-17 -78h-166l-231 -1087h-92l143 680h-831l-144 -680h-92l232 1087h-160l16 78h160l55 258h93l-56 -258h832l55 258h92l-55 -258h166zM1182 762l69 325h-831l-70 -325h832z" />
<glyph unicode="&#x127;" horiz-adv-x="1144" d="M715 1126q159 0 235.5 -110.5t32.5 -317.5l-149 -698h-89l146 686q37 171 -25 262.5t-186 91.5q-119 0 -227 -98t-144 -274l-143 -668h-88l287 1350h-172l16 71h170l24 115h89l-25 -115h268l-16 -71h-266l-93 -435q51 83 146.5 147t208.5 64z" />
<glyph unicode="&#x128;" horiz-adv-x="516" d="M326 1628l-66 17q16 56 55 92.5t93 36.5q35 0 104 -15.5t94 -15.5q66 0 88 82l68 -17q-20 -59 -63.5 -97t-104.5 -38q-38 0 -105 14.5t-88 14.5q-31 0 -47.5 -17t-27.5 -57zM96 0l303 1423h93l-304 -1423h-92z" />
<glyph unicode="&#x129;" horiz-adv-x="477" d="M238 1305l-66 16q16 57 55 93t92 36q35 0 104.5 -15.5t94.5 -15.5q66 0 88 82l68 -16q-20 -59 -63.5 -97t-104.5 -38q-38 0 -105 14t-88 14q-31 0 -47.5 -16.5t-27.5 -56.5zM78 0l233 1100h88l-233 -1100h-88z" />
<glyph unicode="&#x12a;" horiz-adv-x="516" d="M254 1669l16 74h484l-17 -74h-483zM96 0l303 1423h93l-304 -1423h-92z" />
<glyph unicode="&#x12b;" horiz-adv-x="477" d="M166 1346l16 73h484l-17 -73h-483zM78 0l233 1100h88l-233 -1100h-88z" />
<glyph unicode="&#x12c;" horiz-adv-x="516" d="M489 1587q-101 0 -155 63t-29 185h76q-17 -83 14 -128.5t99 -45.5q66 0 117 45.5t69 128.5h76q-27 -124 -98.5 -186t-168.5 -62zM96 0l303 1423h93l-304 -1423h-92z" />
<glyph unicode="&#x12d;" horiz-adv-x="477" d="M401 1264q-101 0 -155 62.5t-29 184.5h76q-17 -83 14 -128.5t99 -45.5q66 0 117 45.5t69 128.5h76q-27 -124 -98.5 -185.5t-168.5 -61.5zM78 0l233 1100h88l-233 -1100h-88z" />
<glyph unicode="&#x12e;" horiz-adv-x="516" d="M399 1423h93l-304 -1423h-16q-33 -32 -53 -53.5t-40.5 -54.5t-27.5 -64q-10 -55 14 -85t80 -30l-26 -65q-84 0 -122.5 45.5t-19.5 122.5q9 52 45.5 101t77.5 83h-4z" />
<glyph unicode="&#x12f;" horiz-adv-x="477" d="M451 1540q27 0 43 -18.5t10 -48.5q-6 -29 -30 -48.5t-52 -19.5q-25 0 -41 19.5t-10 48.5q6 30 29.5 48.5t50.5 18.5zM78 0l233 1100h88l-233 -1100h-12q-33 -32 -53 -53.5t-40.5 -54.5t-27.5 -64q-10 -55 14 -85t80 -30l-27 -65q-84 0 -122 45.5t-19 122.5q9 52 45.5 101 t77.5 83h-4z" />
<glyph unicode="&#x130;" horiz-adv-x="516" d="M487 1622q-24 0 -38.5 17t-8.5 44t28 45.5t46 18.5q25 0 40 -18.5t9 -45.5q-4 -27 -26.5 -44t-49.5 -17zM96 0l303 1423h93l-304 -1423h-92z" />
<glyph unicode="&#x131;" horiz-adv-x="477" d="M78 0l233 1100h88l-233 -1100h-88z" />
<glyph unicode="&#x132;" horiz-adv-x="1392" d="M96 0l303 1423h93l-304 -1423h-92zM504 0l16 84h117q183 0 299 109t158 309l178 837h-408l19 84h499l-196 -921q-52 -241 -196.5 -371.5t-371.5 -130.5h-114z" />
<glyph unicode="&#x133;" horiz-adv-x="987" d="M422 1405q-25 0 -41 19.5t-10 48.5q6 30 29.5 48.5t50.5 18.5t43 -18.5t10 -48.5q-6 -29 -30 -48.5t-52 -19.5zM934 1405q-25 0 -41 19.5t-10 48.5q6 30 29.5 48.5t50.5 18.5t43 -18.5t10 -48.5q-6 -29 -30 -48.5t-52 -19.5zM78 0l233 1100h88l-233 -1100h-88zM287 -426 l16 80q108 0 171.5 54.5t94.5 197.5l254 1194h90l-254 -1188q-21 -100 -56 -168t-84.5 -104.5t-104.5 -51t-127 -14.5z" />
<glyph unicode="&#x134;" horiz-adv-x="892" d="M535 1550l-60 33l258 270h80l141 -270l-71 -33l-125 228zM4 0l16 84h117q183 0 299 109t158 309l178 837h-407l18 84h500l-197 -921q-52 -241 -196 -371.5t-371 -130.5h-115z" />
<glyph unicode="&#x135;" horiz-adv-x="473" d="M209 1227l-59 33l258 270h79l142 -270l-72 -33l-125 227zM-227 -426l16 80q108 0 171.5 54.5t94.5 197.5l254 1194h90l-254 -1188q-21 -100 -56 -168t-84.5 -104.5t-104.5 -51t-127 -14.5z" />
<glyph unicode="&#x136;" horiz-adv-x="1163" d="M1212 1423l-647 -632l422 -791h-113l-385 717l-188 -185l-113 -532h-92l303 1423h93l-160 -745l760 745h120zM496 -104q47 0 67 -31.5t8 -83.5q-14 -72 -60.5 -135t-121.5 -103l-31 49q116 60 142 179q-18 -15 -39 -15q-33 0 -47 21t-8 49q5 28 29.5 49t60.5 21z" />
<glyph unicode="&#x137;" horiz-adv-x="1067" d="M1077 1100l-522 -449l315 -651h-110l-283 586l-229 -197l-82 -389h-88l325 1536h89l-216 -1018l678 582h123zM432 -104q47 0 67.5 -32t8.5 -83q-14 -72 -60.5 -135t-121.5 -103l-31 49q115 59 141 179q-18 -15 -39 -15q-33 0 -47 21t-8 49q5 28 29.5 49t60.5 21z" />
<glyph unicode="&#x138;" horiz-adv-x="950" d="M963 1100l-488 -484l301 -616h-112l-269 539l-145 -144l-84 -395h-88l233 1100h88l-118 -563l571 563h111z" />
<glyph unicode="&#x139;" horiz-adv-x="1112" d="M285 1575l-23 67l483 189l27 -74zM96 0l303 1423h93l-287 -1339h678l-17 -84h-770z" />
<glyph unicode="&#x13a;" horiz-adv-x="565" d="M229 1679l-22 68l483 188l27 -73zM315 -25q-94 0 -151.5 50t-57.5 159q0 40 13 107l264 1245h88l-260 -1235q-54 -244 129 -244q42 0 102 17l-6 -82q-70 -17 -121 -17z" />
<glyph unicode="&#x13b;" horiz-adv-x="1112" d="M96 0l303 1423h93l-287 -1339h678l-17 -84h-770zM354 -457l-30 49q115 59 141 179q-18 -15 -39 -15q-33 0 -47 21t-8 49q5 28 29.5 49t60.5 21q47 0 67.5 -32t8.5 -83q-14 -72 -61 -135t-122 -103z" />
<glyph unicode="&#x13c;" horiz-adv-x="565" d="M315 -25q-94 0 -151.5 50t-57.5 159q0 40 13 107l264 1245h88l-260 -1235q-54 -244 129 -244q42 0 102 17l-6 -82q-70 -17 -121 -17zM109 -457l-31 49q115 59 141 179q-18 -15 -39 -15q-33 0 -47 21t-8 49q5 28 29.5 49t60.5 21q47 0 67.5 -32t8.5 -83 q-14 -72 -60.5 -135t-121.5 -103z" />
<glyph unicode="&#x13d;" horiz-adv-x="1112" d="M96 0l303 1423h93l-287 -1339h678l-17 -84h-770zM612 1047l115 376h82l-127 -376h-70z" />
<glyph unicode="&#x13e;" horiz-adv-x="565" d="M315 -25q-94 0 -151.5 50t-57.5 159q0 40 13 107l264 1245h88l-260 -1235q-54 -244 129 -244q42 0 102 17l-6 -82q-70 -17 -121 -17zM516 1159l115 377h82l-127 -377h-70z" />
<glyph unicode="&#x13f;" horiz-adv-x="1169" d="M96 0l303 1423h93l-287 -1339h678l-17 -84h-770zM682 664q-29 0 -44 20.5t-9 52.5q6 30 31 51t55 21t45.5 -20.5t9.5 -51.5q-6 -32 -31 -52.5t-57 -20.5z" />
<glyph unicode="&#x140;" horiz-adv-x="579" d="M315 -25q-94 0 -151.5 50t-57.5 159q0 40 13 107l264 1245h88l-260 -1235q-54 -244 129 -244q42 0 102 17l-6 -82q-70 -17 -121 -17zM502 737q-29 0 -44 21t-9 53q6 30 31 51t55 21t45.5 -20.5t9.5 -51.5q-6 -32 -31 -53t-57 -21z" />
<glyph unicode="&#x141;" horiz-adv-x="1112" d="M205 84h678l-17 -84h-770l133 629l-198 -35l18 84l199 35l151 710h93l-148 -692l268 47l-16 -84l-270 -47z" />
<glyph unicode="&#x142;" horiz-adv-x="565" d="M309 772l-98 -471q-54 -244 129 -244q42 0 102 17l-6 -82q-70 -17 -121 -17q-94 0 -151.5 50t-57.5 159q0 40 13 107l96 448l-160 -53l21 84l155 53l152 713h88l-143 -680l229 78l-18 -84z" />
<glyph unicode="&#x143;" horiz-adv-x="1409" d="M680 1575l-23 67l484 189l26 -74zM96 0l303 1423h95l526 -1269l270 1269h92l-303 -1423h-94l-528 1272l-269 -1272h-92z" />
<glyph unicode="&#x144;" horiz-adv-x="1144" d="M492 1251l-23 68l483 188l27 -73zM78 0l233 1100h88l-41 -185q51 83 147 147t210 64q159 0 235.5 -110.5t32.5 -317.5l-149 -698h-89l146 686q37 171 -25 262.5t-186 91.5q-119 0 -227 -98t-144 -274l-143 -668h-88z" />
<glyph unicode="&#x145;" horiz-adv-x="1409" d="M96 0l303 1423h95l526 -1269l270 1269h92l-303 -1423h-94l-528 1272l-269 -1272h-92zM444 -457l-30 49q115 59 141 179q-18 -15 -39 -15q-33 0 -47 21t-8 49q5 28 29.5 49t60.5 21q47 0 67.5 -32t8.5 -83q-14 -72 -61 -135t-122 -103z" />
<glyph unicode="&#x146;" horiz-adv-x="1144" d="M78 0l233 1100h88l-41 -185q51 83 147 147t210 64q159 0 235.5 -110.5t32.5 -317.5l-149 -698h-89l146 686q37 171 -25 262.5t-186 91.5q-119 0 -227 -98t-144 -274l-143 -668h-88zM346 -457l-31 49q116 60 142 179q-18 -15 -39 -15q-33 0 -47.5 21t-8.5 49q5 28 30 49 t61 21q47 0 67 -31.5t8 -83.5q-14 -72 -60.5 -135t-121.5 -103z" />
<glyph unicode="&#x147;" horiz-adv-x="1409" d="M874 1559l-165 247l75 33l140 -209l227 209l61 -33l-272 -247h-66zM96 0l303 1423h95l526 -1269l270 1269h92l-303 -1423h-94l-528 1272l-269 -1272h-92z" />
<glyph unicode="&#x148;" horiz-adv-x="1144" d="M686 1235l-166 248l76 33l139 -209l228 209l61 -33l-272 -248h-66zM78 0l233 1100h88l-41 -185q51 83 147 147t210 64q159 0 235.5 -110.5t32.5 -317.5l-149 -698h-89l146 686q37 171 -25 262.5t-186 91.5q-119 0 -227 -98t-144 -274l-143 -668h-88z" />
<glyph unicode="&#x14a;" horiz-adv-x="1409" d="M688 -399l21 80q106 0 170.5 53.5t93.5 191.5l16 84l-532 1262l-269 -1272h-92l303 1423h95l526 -1265l270 1265h92l-317 -1491q-21 -98 -57 -164.5t-87 -102t-106.5 -50t-126.5 -14.5z" />
<glyph unicode="&#x14b;" horiz-adv-x="1114" d="M393 -399l19 80q61 0 107 12t89.5 42t74.5 88t50 144l154 719q36 172 -25 263t-184 91q-75 0 -148.5 -39.5t-135 -126.5t-85.5 -206l-143 -668h-88l233 1100h88l-41 -185q49 82 144 146.5t211 64.5q157 0 233 -110.5t31 -323.5l-154 -719q-19 -90 -51.5 -157 t-71.5 -107.5t-90.5 -65t-102.5 -33.5t-114 -9z" />
<glyph unicode="&#x14c;" horiz-adv-x="1339" d="M666 1669l16 74h483l-16 -74h-483zM547 -27q-187 0 -301.5 125.5t-114.5 354.5q0 149 30.5 293t92 271.5t147.5 224t204.5 152.5t254.5 56q202 0 311 -116t109 -345q0 -152 -30.5 -299t-92.5 -276.5t-148 -228t-205.5 -155.5t-256.5 -57zM567 59q113 0 213.5 54t173 146 t126 210.5t80 250t26.5 263.5q0 193 -89 287t-253 94q-119 0 -221.5 -54t-174 -144.5t-123 -208t-76 -245t-24.5 -255.5q0 -190 95 -294t247 -104z" />
<glyph unicode="&#x14d;" horiz-adv-x="1060" d="M457 1346l16 73h483l-16 -73h-483zM406 -27q-163 0 -250.5 97t-87.5 278q0 145 41 284t114 249t185 177.5t243 67.5q165 0 253.5 -96t88.5 -276q0 -116 -26 -229.5t-77 -212.5t-120.5 -175t-163.5 -120t-200 -44zM424 57q108 0 200 61.5t150.5 160t91.5 217.5t33 239 q0 148 -67.5 227.5t-196.5 79.5q-87 0 -163.5 -40t-132.5 -107.5t-96.5 -155t-60.5 -183.5t-20 -191q0 -148 67.5 -228t194.5 -80z" />
<glyph unicode="&#x14e;" horiz-adv-x="1339" d="M901 1587q-101 0 -155 63t-29 185h76q-17 -83 14 -128.5t98 -45.5q66 0 117.5 45.5t69.5 128.5h75q-27 -124 -98 -186t-168 -62zM547 -27q-187 0 -301.5 125.5t-114.5 354.5q0 149 30.5 293t92 271.5t147.5 224t204.5 152.5t254.5 56q202 0 311 -116t109 -345 q0 -152 -30.5 -299t-92.5 -276.5t-148 -228t-205.5 -155.5t-256.5 -57zM567 59q113 0 213.5 54t173 146t126 210.5t80 250t26.5 263.5q0 193 -89 287t-253 94q-119 0 -221.5 -54t-174 -144.5t-123 -208t-76 -245t-24.5 -255.5q0 -190 95 -294t247 -104z" />
<glyph unicode="&#x14f;" horiz-adv-x="1060" d="M692 1264q-101 0 -155 62.5t-29 184.5h76q-17 -83 14 -128.5t98 -45.5q66 0 117.5 45.5t69.5 128.5h75q-27 -124 -98 -185.5t-168 -61.5zM406 -27q-163 0 -250.5 97t-87.5 278q0 145 41 284t114 249t185 177.5t243 67.5q165 0 253.5 -96t88.5 -276q0 -116 -26 -229.5 t-77 -212.5t-120.5 -175t-163.5 -120t-200 -44zM424 57q108 0 200 61.5t150.5 160t91.5 217.5t33 239q0 148 -67.5 227.5t-196.5 79.5q-87 0 -163.5 -40t-132.5 -107.5t-96.5 -155t-60.5 -183.5t-20 -191q0 -148 67.5 -228t194.5 -80z" />
<glyph unicode="&#x150;" horiz-adv-x="1339" d="M741 1571l242 325h88l-246 -325h-84zM940 1571l246 325h90l-250 -325h-86zM547 -27q-187 0 -301.5 125.5t-114.5 354.5q0 149 30.5 293t92 271.5t147.5 224t204.5 152.5t254.5 56q202 0 311 -116t109 -345q0 -152 -30.5 -299t-92.5 -276.5t-148 -228t-205.5 -155.5 t-256.5 -57zM567 59q113 0 213.5 54t173 146t126 210.5t80 250t26.5 263.5q0 193 -89 287t-253 94q-119 0 -221.5 -54t-174 -144.5t-123 -208t-76 -245t-24.5 -255.5q0 -190 95 -294t247 -104z" />
<glyph unicode="&#x151;" horiz-adv-x="1060" d="M532 1247l242 326h88l-246 -326h-84zM731 1247l246 326h90l-250 -326h-86zM406 -27q-163 0 -250.5 97t-87.5 278q0 145 41 284t114 249t185 177.5t243 67.5q165 0 253.5 -96t88.5 -276q0 -116 -26 -229.5t-77 -212.5t-120.5 -175t-163.5 -120t-200 -44zM424 57 q108 0 200 61.5t150.5 160t91.5 217.5t33 239q0 148 -67.5 227.5t-196.5 79.5q-87 0 -163.5 -40t-132.5 -107.5t-96.5 -155t-60.5 -183.5t-20 -191q0 -148 67.5 -228t194.5 -80z" />
<glyph unicode="&#x152;" horiz-adv-x="1779" d="M551 -27q-189 0 -304.5 126t-115.5 356q0 150 30.5 294.5t92.5 271t147.5 222.5t204.5 151.5t256 55.5q111 0 185 -27h720l-18 -84h-647l-123 -577h567l-18 -84h-567l-127 -594h706l-18 -84h-779q-114 -27 -192 -27zM571 59q87 0 172 27l267 1249q-64 29 -162 29 q-119 0 -222 -53.5t-175 -143.5t-123.5 -207t-76 -244.5t-24.5 -256.5q0 -192 95.5 -296t248.5 -104z" />
<glyph unicode="&#x153;" horiz-adv-x="1792" d="M1239 59q104 0 205.5 56t165.5 157l67 -45q-69 -119 -187 -186.5t-271 -67.5q-140 0 -231 82t-114 228q-79 -143 -198.5 -226.5t-269.5 -83.5q-163 0 -250.5 97t-87.5 278q0 145 41 284t114 249t185 177.5t243 67.5q144 0 231 -75.5t107 -216.5q77 135 192.5 213.5 t256.5 78.5q123 0 188.5 -56t65.5 -142q0 -70 -42.5 -144.5t-118 -138t-194.5 -104.5t-258 -41q-51 0 -106 6q-8 -49 -8 -113q0 -156 71 -245t203 -89zM424 57q108 0 200 61.5t150.5 160t91.5 217.5t33 239q0 148 -67.5 227.5t-196.5 79.5q-87 0 -163.5 -40t-132.5 -107.5 t-96.5 -155t-60.5 -183.5t-20 -191q0 -148 67.5 -228t194.5 -80zM1423 1042q-79 0 -151 -37.5t-126.5 -101t-94.5 -145t-62 -172.5q49 -6 96 -6q116 0 216.5 32.5t163.5 82.5t98.5 107t35.5 109q0 58 -45 94.5t-131 36.5z" />
<glyph unicode="&#x154;" horiz-adv-x="1130" d="M1030 1757l-487 -182l-23 67l484 189zM1094 1137q0 -202 -101.5 -345.5t-285.5 -185.5l254 -606h-105l-242 594q-16 -2 -47 -2h-256l-123 -592h-92l303 1423h367q50 0 95 -8t88.5 -28t75 -51.5t50.5 -82.5t19 -116zM332 676h250q189 0 302 124.5t113 313.5 q0 113 -65.5 169t-183.5 56h-277z" />
<glyph unicode="&#x155;" horiz-adv-x="806" d="M406 1251l-23 68l483 188l27 -73zM78 0l233 1100h88l-41 -189q64 100 147 157.5t177 57.5q60 0 103 -19.5t83 -64.5l-59 -73q-65 71 -154 71q-114 0 -215 -111.5t-137 -285.5l-137 -643h-88z" />
<glyph unicode="&#x156;" horiz-adv-x="1130" d="M1094 1137q0 -202 -101.5 -345.5t-285.5 -185.5l254 -606h-105l-242 594q-16 -2 -47 -2h-256l-123 -592h-92l303 1423h367q50 0 95 -8t88.5 -28t75 -51.5t50.5 -82.5t19 -116zM332 676h250q189 0 302 124.5t113 313.5q0 113 -65.5 169t-183.5 56h-277zM518 -104 q47 0 67.5 -32t8.5 -83q-14 -72 -60.5 -135t-121.5 -103l-31 49q115 59 141 179q-18 -15 -39 -15q-33 0 -47 21t-8 49q5 28 29.5 49t60.5 21z" />
<glyph unicode="&#x157;" horiz-adv-x="806" d="M78 0l233 1100h88l-41 -189q64 100 147 157.5t177 57.5q60 0 103 -19.5t83 -64.5l-59 -73q-65 71 -154 71q-114 0 -215 -111.5t-137 -285.5l-137 -643h-88zM-6 -457l-31 49q115 59 141 179q-18 -15 -38 -15q-33 0 -47.5 21t-8.5 49q5 28 29.5 49t60.5 21q47 0 67.5 -32 t8.5 -83q-14 -72 -60.5 -135t-121.5 -103z" />
<glyph unicode="&#x158;" horiz-adv-x="1130" d="M803 1559h-66l-166 247l76 33l139 -209l228 209l61 -33zM1094 1137q0 -202 -101.5 -345.5t-285.5 -185.5l254 -606h-105l-242 594q-16 -2 -47 -2h-256l-123 -592h-92l303 1423h367q50 0 95 -8t88.5 -28t75 -51.5t50.5 -82.5t19 -116zM332 676h250q189 0 302 124.5 t113 313.5q0 113 -65.5 169t-183.5 56h-277z" />
<glyph unicode="&#x159;" horiz-adv-x="806" d="M600 1235l-166 248l76 33l139 -209l228 209l61 -33l-272 -248h-66zM78 0l233 1100h88l-41 -189q64 100 147 157.5t177 57.5q60 0 103 -19.5t83 -64.5l-59 -73q-65 71 -154 71q-114 0 -215 -111.5t-137 -285.5l-137 -643h-88z" />
<glyph unicode="&#x15a;" horiz-adv-x="1064" d="M508 1575l-23 67l484 189l26 -74zM438 -27q-145 0 -256.5 71.5t-146.5 176.5l90 39q30 -92 121 -146.5t207 -54.5q161 0 263.5 88t102.5 220q0 66 -32.5 119.5t-84.5 90t-114.5 70t-125 68t-114.5 74t-84.5 98t-32.5 131.5q0 192 136.5 312t345.5 120q143 0 238.5 -60.5 t125.5 -164.5l-92 -37q-25 84 -99.5 130t-183.5 46q-152 0 -260 -95.5t-108 -230.5q0 -64 32.5 -115.5t84 -87t114 -68t125 -66.5t114 -74t84 -100.5t32.5 -135.5q0 -183 -134 -300.5t-348 -117.5z" />
<glyph unicode="&#x15b;" horiz-adv-x="917" d="M344 1251l-22 68l483 188l26 -73zM393 -27q-155 0 -255 68.5t-122 183.5l78 43q20 -99 99.5 -156t201.5 -57t198.5 66t76.5 178q0 52 -27 92t-71 66t-96.5 49t-105 49t-96.5 57t-71 81t-27 114q0 148 99 233.5t255 85.5q124 0 221 -57.5t117 -142.5l-75 -47 q-21 73 -100.5 119t-168.5 46q-109 0 -181.5 -62.5t-72.5 -160.5q0 -53 27.5 -94t71 -68t96.5 -50.5t106 -49t96.5 -56t71 -78.5t27.5 -110q0 -158 -104 -250t-269 -92z" />
<glyph unicode="&#x15c;" horiz-adv-x="1064" d="M559 1550l-59 33l258 270h80l141 -270l-72 -33l-125 228zM438 -27q-145 0 -256.5 71.5t-146.5 176.5l90 39q30 -92 121 -146.5t207 -54.5q161 0 263.5 88t102.5 220q0 66 -32.5 119.5t-84.5 90t-114.5 70t-125 68t-114.5 74t-84.5 98t-32.5 131.5q0 192 136.5 312 t345.5 120q143 0 238.5 -60.5t125.5 -164.5l-92 -37q-25 84 -99.5 130t-183.5 46q-152 0 -260 -95.5t-108 -230.5q0 -64 32.5 -115.5t84 -87t114 -68t125 -66.5t114 -74t84 -100.5t32.5 -135.5q0 -183 -134 -300.5t-348 -117.5z" />
<glyph unicode="&#x15d;" horiz-adv-x="917" d="M395 1227l-59 33l258 270h80l141 -270l-72 -33l-125 227zM393 -27q-155 0 -255 68.5t-122 183.5l78 43q20 -99 99.5 -156t201.5 -57t198.5 66t76.5 178q0 52 -27 92t-71 66t-96.5 49t-105 49t-96.5 57t-71 81t-27 114q0 148 99 233.5t255 85.5q124 0 221 -57.5 t117 -142.5l-75 -47q-21 73 -100.5 119t-168.5 46q-109 0 -181.5 -62.5t-72.5 -160.5q0 -53 27.5 -94t71 -68t96.5 -50.5t106 -49t96.5 -56t71 -78.5t27.5 -110q0 -158 -104 -250t-269 -92z" />
<glyph unicode="&#x15e;" horiz-adv-x="1064" d="M713 1450q143 0 238.5 -60.5t125.5 -164.5l-92 -37q-25 84 -99.5 130t-183.5 46q-152 0 -260 -95.5t-108 -230.5q0 -64 32.5 -115.5t84 -87t114 -68t125 -66.5t114 -74t84 -100.5t32.5 -135.5q0 -181 -133 -299t-345 -119l-96 -106q38 12 78 12q78 0 113 -42t22 -101 q-13 -65 -76.5 -112.5t-163.5 -47.5q-102 0 -161 53l35 58q61 -49 139 -49q60 0 100.5 28.5t48.5 65.5q6 36 -18 61t-78 25q-46 0 -100 -23l-39 35l127 147q-123 15 -214.5 83t-123.5 161l90 39q30 -92 121 -146.5t207 -54.5q161 0 263.5 88t102.5 220q0 66 -32.5 119.5 t-84.5 90t-114.5 70t-125 68t-114.5 74t-84.5 98t-32.5 131.5q0 192 136.5 312t345.5 120z" />
<glyph unicode="&#x15f;" horiz-adv-x="917" d="M524 1044q-109 0 -181.5 -62.5t-72.5 -160.5q0 -53 27.5 -94t71 -68t96.5 -50.5t106 -49t96.5 -56t71 -78.5t27.5 -110q0 -154 -99 -245.5t-257 -96.5l-97 -106q37 12 78 12q78 0 113 -42t22 -101q-13 -65 -76.5 -112.5t-162.5 -47.5q-103 0 -162 53l35 58 q61 -49 139 -49q61 0 101.5 28.5t48.5 65.5q6 36 -18.5 61t-78.5 25q-46 0 -100 -23l-39 35l127 145q-133 12 -218 79t-106 171l78 43q20 -99 99.5 -156t201.5 -57t198.5 66t76.5 178q0 52 -27 92t-71 66t-96.5 49t-105 49t-96.5 57t-71 81t-27 114q0 148 99 233.5t255 85.5 q124 0 221 -57.5t117 -142.5l-75 -47q-21 73 -100.5 119t-168.5 46z" />
<glyph unicode="&#x160;" horiz-adv-x="1064" d="M702 1559l-165 247l75 33l140 -209l227 209l61 -33l-272 -247h-66zM438 -27q-145 0 -256.5 71.5t-146.5 176.5l90 39q30 -92 121 -146.5t207 -54.5q161 0 263.5 88t102.5 220q0 66 -32.5 119.5t-84.5 90t-114.5 70t-125 68t-114.5 74t-84.5 98t-32.5 131.5 q0 192 136.5 312t345.5 120q143 0 238.5 -60.5t125.5 -164.5l-92 -37q-25 84 -99.5 130t-183.5 46q-152 0 -260 -95.5t-108 -230.5q0 -64 32.5 -115.5t84 -87t114 -68t125 -66.5t114 -74t84 -100.5t32.5 -135.5q0 -183 -134 -300.5t-348 -117.5z" />
<glyph unicode="&#x161;" horiz-adv-x="917" d="M539 1235l-166 248l76 33l139 -209l227 209l62 -33l-273 -248h-65zM393 -27q-155 0 -255 68.5t-122 183.5l78 43q20 -99 99.5 -156t201.5 -57t198.5 66t76.5 178q0 52 -27 92t-71 66t-96.5 49t-105 49t-96.5 57t-71 81t-27 114q0 148 99 233.5t255 85.5q124 0 221 -57.5 t117 -142.5l-75 -47q-21 73 -100.5 119t-168.5 46q-109 0 -181.5 -62.5t-72.5 -160.5q0 -53 27.5 -94t71 -68t96.5 -50.5t106 -49t96.5 -56t71 -78.5t27.5 -110q0 -158 -104 -250t-269 -92z" />
<glyph unicode="&#x162;" horiz-adv-x="1193" d="M250 1423h1048l-18 -84h-479l-283 -1339h-10l-121 -133q37 12 78 12q78 0 113 -42t22 -101q-13 -65 -76.5 -112.5t-163.5 -47.5q-102 0 -161 53l34 58q61 -49 140 -49q60 0 100.5 28.5t48.5 65.5q6 36 -18 61t-78 25q-46 0 -100 -23l-39 35l147 170h-8l283 1339h-478z " />
<glyph unicode="&#x163;" horiz-adv-x="739" d="M426 1018l-154 -725q-26 -123 1.5 -177.5t115.5 -54.5q79 0 170 48v-82q-97 -54 -197 -54h-14l-96 -106q38 12 78 12q78 0 113 -42t22 -101q-13 -65 -76.5 -112.5t-163.5 -47.5q-103 0 -162 53l35 58q61 -49 140 -49q60 0 100.5 28.5t48.5 65.5q6 36 -18 61t-78 25 q-47 0 -101 -23l-38 35l133 154q-157 44 -105 295l158 739h-199l17 82h198l72 334l92 16l-74 -350h283l-16 -82h-285z" />
<glyph unicode="&#x164;" horiz-adv-x="1193" d="M780 1559l-166 247l76 33l139 -209l228 209l61 -33l-272 -247h-66zM426 0l283 1339h-478l19 84h1048l-18 -84h-479l-283 -1339h-92z" />
<glyph unicode="&#x165;" horiz-adv-x="739" d="M580 1159l114 377h82l-127 -377h-69zM362 -27q-246 0 -182 306l158 739h-199l17 82h198l72 334l92 16l-74 -350h283l-16 -82h-285l-154 -725q-26 -123 1.5 -177.5t115.5 -54.5q79 0 170 48v-82q-97 -54 -197 -54z" />
<glyph unicode="&#x166;" horiz-adv-x="1193" d="M1280 1339h-479l-117 -553h277l-17 -79h-276l-150 -707h-92l149 707h-278l16 79h279l117 553h-478l19 84h1048z" />
<glyph unicode="&#x167;" horiz-adv-x="739" d="M711 1018h-285l-76 -354h199l-14 -74h-199l-64 -297q-26 -123 1.5 -177.5t115.5 -54.5q79 0 170 48v-82q-97 -54 -197 -54q-246 0 -182 306l66 311h-133l16 74h133l76 354h-199l17 82h198l72 334l92 16l-74 -350h283z" />
<glyph unicode="&#x168;" horiz-adv-x="1298" d="M715 1628l-66 17q16 56 55 92.5t93 36.5q35 0 104 -15.5t94 -15.5q66 0 88 82l68 -17q-20 -59 -63.5 -97t-104.5 -38q-38 0 -104.5 14.5t-87.5 14.5q-31 0 -48 -17t-28 -57zM541 -27q-207 0 -308 141.5t-45 401.5l195 907h92l-194 -907q-16 -77 -17.5 -144t15.5 -125 t51 -99.5t92.5 -65t136.5 -23.5q79 0 145 24t112.5 64.5t83 100t59.5 124.5t40 144l195 907h94l-194 -917q-59 -272 -194 -402.5t-359 -130.5z" />
<glyph unicode="&#x169;" horiz-adv-x="1026" d="M494 1305l-66 16q16 57 55 93t92 36q35 0 104.5 -15.5t94.5 -15.5q66 0 88 82l68 -16q-20 -59 -63.5 -97t-104.5 -38q-38 0 -105 14t-88 14q-31 0 -47.5 -16.5t-27.5 -56.5zM330 -27q-151 0 -220 101.5t-36 257.5l164 768h88l-160 -756q-29 -135 25 -211t174 -76 q124 0 237 99.5t148 263.5l143 680h90l-172 -811q-40 -182 -16 -289h-90q-20 69 2 193q-56 -88 -157.5 -154t-219.5 -66z" />
<glyph unicode="&#x16a;" horiz-adv-x="1298" d="M643 1669l16 74h484l-17 -74h-483zM541 -27q-207 0 -308 141.5t-45 401.5l195 907h92l-194 -907q-16 -77 -17.5 -144t15.5 -125t51 -99.5t92.5 -65t136.5 -23.5q79 0 145 24t112.5 64.5t83 100t59.5 124.5t40 144l195 907h94l-194 -917q-59 -272 -194 -402.5t-359 -130.5 z" />
<glyph unicode="&#x16b;" horiz-adv-x="1026" d="M422 1346l16 73h484l-17 -73h-483zM330 -27q-151 0 -220 101.5t-36 257.5l164 768h88l-160 -756q-29 -135 25 -211t174 -76q124 0 237 99.5t148 263.5l143 680h90l-172 -811q-40 -182 -16 -289h-90q-20 69 2 193q-56 -88 -157.5 -154t-219.5 -66z" />
<glyph unicode="&#x16c;" horiz-adv-x="1298" d="M879 1587q-101 0 -155.5 63t-29.5 185h76q-17 -83 14 -128.5t99 -45.5q66 0 117 45.5t69 128.5h76q-27 -124 -98 -186t-168 -62zM541 -27q-207 0 -308 141.5t-45 401.5l195 907h92l-194 -907q-16 -77 -17.5 -144t15.5 -125t51 -99.5t92.5 -65t136.5 -23.5q79 0 145 24 t112.5 64.5t83 100t59.5 124.5t40 144l195 907h94l-194 -917q-59 -272 -194 -402.5t-359 -130.5z" />
<glyph unicode="&#x16d;" horiz-adv-x="1026" d="M657 1264q-101 0 -155 62.5t-29 184.5h76q-17 -83 14 -128.5t99 -45.5q66 0 117 45.5t69 128.5h76q-27 -124 -98.5 -185.5t-168.5 -61.5zM330 -27q-151 0 -220 101.5t-36 257.5l164 768h88l-160 -756q-29 -135 25 -211t174 -76q124 0 237 99.5t148 263.5l143 680h90 l-172 -811q-40 -182 -16 -289h-90q-20 69 2 193q-56 -88 -157.5 -154t-219.5 -66z" />
<glyph unicode="&#x16e;" horiz-adv-x="1298" d="M860 1548q-70 0 -105.5 49t-21.5 125q15 74 73 124t130 50q70 0 107 -50t22 -124q-13 -74 -72.5 -124t-132.5 -50zM874 1610q44 0 80 30.5t45 81.5q12 51 -10 83t-67 32q-41 0 -78 -32.5t-47 -82.5q-10 -51 12 -81.5t65 -30.5zM541 -27q-207 0 -308 141.5t-45 401.5 l195 907h92l-194 -907q-16 -77 -17.5 -144t15.5 -125t51 -99.5t92.5 -65t136.5 -23.5q79 0 145 24t112.5 64.5t83 100t59.5 124.5t40 144l195 907h94l-194 -917q-59 -272 -194 -402.5t-359 -130.5z" />
<glyph unicode="&#x16f;" horiz-adv-x="1026" d="M639 1225q-70 0 -105.5 49t-21.5 125q15 74 73 124t130 50q70 0 107 -50t22 -124q-13 -74 -72.5 -124t-132.5 -50zM653 1286q44 0 80 31t45 82q12 50 -10.5 82t-67.5 32q-41 0 -78 -32t-47 -82q-10 -51 12.5 -82t65.5 -31zM330 -27q-151 0 -220 101.5t-36 257.5l164 768 h88l-160 -756q-29 -135 25 -211t174 -76q124 0 237 99.5t148 263.5l143 680h90l-172 -811q-40 -182 -16 -289h-90q-20 69 2 193q-56 -88 -157.5 -154t-219.5 -66z" />
<glyph unicode="&#x170;" horiz-adv-x="1298" d="M719 1571l242 325h88l-246 -325h-84zM918 1571l245 325h90l-249 -325h-86zM541 -27q-207 0 -308 141.5t-45 401.5l195 907h92l-194 -907q-16 -77 -17.5 -144t15.5 -125t51 -99.5t92.5 -65t136.5 -23.5q79 0 145 24t112.5 64.5t83 100t59.5 124.5t40 144l195 907h94 l-194 -917q-59 -272 -194 -402.5t-359 -130.5z" />
<glyph unicode="&#x171;" horiz-adv-x="1026" d="M498 1247l241 326h88l-245 -326h-84zM696 1247l246 326h90l-250 -326h-86zM330 -27q-151 0 -220 101.5t-36 257.5l164 768h88l-160 -756q-29 -135 25 -211t174 -76q124 0 237 99.5t148 263.5l143 680h90l-172 -811q-40 -182 -16 -289h-90q-20 69 2 193 q-56 -88 -157.5 -154t-219.5 -66z" />
<glyph unicode="&#x172;" horiz-adv-x="1298" d="M1194 1423h94l-194 -917q-55 -261 -182 -391.5t-334 -141.5q-81 -81 -95 -145q-10 -55 14.5 -85t80.5 -30l-27 -65q-84 0 -122 45.5t-19 122.5q15 76 94 159q-123 7 -205.5 70t-115 181t4.5 290l195 907h92l-194 -907q-16 -77 -17.5 -144t15.5 -125t51 -99.5t92.5 -65 t136.5 -23.5q79 0 145 24t112.5 64.5t83 100t59.5 124.5t40 144z" />
<glyph unicode="&#x173;" horiz-adv-x="1026" d="M983 1100l-172 -811q-40 -182 -16 -289h-19q-33 -32 -53 -53.5t-40.5 -54.5t-27.5 -64q-10 -55 14.5 -85t80.5 -30l-27 -65q-84 0 -122 45.5t-19 122.5q9 52 45.5 101t77.5 83q-20 69 2 193q-56 -88 -157.5 -154t-219.5 -66q-151 0 -220 101.5t-36 257.5l164 768h88 l-160 -756q-29 -135 25 -211t174 -76q124 0 237 99.5t148 263.5l143 680h90z" />
<glyph unicode="&#x174;" horiz-adv-x="1830" d="M958 1550l-59 33l258 270h80l141 -270l-71 -33l-125 228zM340 0l-57 1423h98l43 -1310l620 1310h119l58 -1310l602 1310h98l-664 -1423h-118l-62 1300l-618 -1300h-119z" />
<glyph unicode="&#x175;" horiz-adv-x="1622" d="M780 1227l-59 33l258 270h80l141 -270l-72 -33l-124 227zM295 0l-94 1100h92l80 -983l501 983h109l78 -983l500 983h94l-563 -1100h-107l-80 997l-506 -997h-104z" />
<glyph unicode="&#x176;" horiz-adv-x="1157" d="M621 1550l-60 33l258 270h80l141 -270l-71 -33l-125 228zM414 0l114 535l-264 888h103l229 -784l567 784h103l-645 -888l-115 -535h-92z" />
<glyph unicode="&#x177;" horiz-adv-x="1003" d="M455 1227l-60 33l258 270h80l141 -270l-71 -33l-125 227zM293 -426q-138 0 -226 67.5t-108 194.5l80 33q15 -103 81.5 -158t180.5 -55q71 0 142.5 36t131.5 112.5t80 177.5l47 217q-56 -88 -154.5 -152.5t-215.5 -64.5q-151 0 -220.5 100t-35.5 254l162 764h88l-160 -750 q-27 -135 27 -211t174 -76q124 0 236 99t147 262l143 676h90l-238 -1114q-28 -132 -96 -226.5t-159 -140t-197 -45.5z" />
<glyph unicode="&#x178;" horiz-adv-x="1157" d="M655 1628q-22 0 -36.5 15t-14.5 38q0 30 22 53t56 23q22 0 36.5 -14t14.5 -37q0 -31 -22.5 -54.5t-55.5 -23.5zM965 1628q-22 0 -37 15t-15 38q0 30 22 53t56 23q22 0 36.5 -14t14.5 -37q0 -32 -22 -55t-55 -23zM414 0l114 535l-264 888h103l229 -784l567 784h103 l-645 -888l-115 -535h-92z" />
<glyph unicode="&#x179;" horiz-adv-x="1183" d="M614 1575l-22 67l483 189l27 -74zM4 0l16 78l1080 1261h-793l19 84h903l-17 -73l-1083 -1266h834l-17 -84h-942z" />
<glyph unicode="&#x17a;" horiz-adv-x="1040" d="M446 1251l-22 68l483 188l27 -73zM25 0l14 76l842 940h-633l18 84h750l-17 -72l-841 -944h645l-17 -84h-761z" />
<glyph unicode="&#x17b;" horiz-adv-x="1183" d="M854 1622q-24 0 -38.5 17t-8.5 44t28 45.5t46 18.5q25 0 40 -18.5t9 -45.5q-4 -27 -26.5 -44t-49.5 -17zM4 0l16 78l1080 1261h-793l19 84h903l-17 -73l-1083 -1266h834l-17 -84h-942z" />
<glyph unicode="&#x17c;" horiz-adv-x="1040" d="M692 1325q-25 0 -39 18.5t-8 45.5q6 26 27.5 43.5t46.5 17.5t40 -17.5t9 -43.5q-6 -27 -28.5 -45.5t-47.5 -18.5zM25 0l14 76l842 940h-633l18 84h750l-17 -72l-841 -944h645l-17 -84h-761z" />
<glyph unicode="&#x17d;" horiz-adv-x="1183" d="M809 1559l-166 247l76 33l139 -209l227 209l62 -33l-273 -247h-65zM4 0l16 78l1080 1261h-793l19 84h903l-17 -73l-1083 -1266h834l-17 -84h-942z" />
<glyph unicode="&#x17e;" horiz-adv-x="1040" d="M641 1235l-166 248l76 33l139 -209l228 209l61 -33l-272 -248h-66zM25 0l14 76l842 940h-633l18 84h750l-17 -72l-841 -944h645l-17 -84h-761z" />
<glyph unicode="&#x18f;" horiz-adv-x="1259" d="M705 1450q97 0 182.5 -32.5t154 -95.5t108.5 -165.5t40 -232.5q0 -118 -22 -233.5t-63 -221.5t-104 -196.5t-141.5 -157t-180 -104.5t-214.5 -38q-98 0 -177.5 30t-130 82t-77.5 118.5t-27 142.5q0 78 27.5 154t84 144.5t135 120t190 82t239.5 30.5q165 0 363 -56 q4 66 4 99q0 108 -33 194.5t-89.5 140t-128 81.5t-151.5 28q-112 0 -220 -53.5t-181 -151.5l-55 66q86 108 210.5 166.5t256.5 58.5zM481 59q154 0 283 96.5t208.5 248.5t108.5 335q-188 56 -352 56q-113 0 -210 -26.5t-164 -70.5t-115 -101t-70.5 -119t-22.5 -124 q0 -124 88 -209.5t246 -85.5z" />
<glyph unicode="&#x192;" horiz-adv-x="837" d="M35 -27q-71 0 -123 27l41 78q52 -21 88 -21q218 0 274 271l78 362h-287l17 70h287l69 334q37 180 134 268t241 88q71 0 139 -33l-43 -78q-46 27 -104 27q-215 0 -271 -268l-71 -338h284l-16 -70h-285l-75 -358q-37 -173 -132.5 -266t-244.5 -93z" />
<glyph unicode="&#x19d;" horiz-adv-x="1409" d="M-203 -399l19 80q107 0 171 54t95 197l317 1491h99l522 -1269l270 1269h92l-303 -1423h-96l-526 1272l-283 -1333q-21 -100 -57 -168t-87 -104t-106.5 -51t-126.5 -15z" />
<glyph unicode="&#x1e6;" horiz-adv-x="1390" d="M881 1559l-166 247l76 33l139 -209l227 209l62 -33l-273 -247h-65zM1286 1180l-94 -31q-27 95 -106.5 155t-208.5 60q-223 0 -397 -189t-232 -483q-30 -139 -14 -255.5t66 -200.5t136 -130.5t197 -46.5q128 0 242 45.5t198 131.5l80 389h-457l19 84h551l-111 -510 q-101 -107 -244 -166.5t-299 -59.5q-128 0 -229 53.5t-160.5 148.5t-81 226t10.5 285q42 223 147.5 396.5t260.5 270.5t333 97q169 0 268 -77t125 -193z" />
<glyph unicode="&#x1e7;" horiz-adv-x="1161" d="M668 1237l-166 248l76 33l139 -209l227 209l62 -33l-273 -248h-65zM326 -426q-122 0 -216.5 57.5t-134.5 167.5l80 39q30 -88 105.5 -135t175.5 -47q160 0 277.5 93t154.5 269l47 215q-23 -41 -58 -80.5t-86 -80t-121.5 -65.5t-148.5 -25q-158 0 -242.5 102.5 t-84.5 280.5q0 112 24.5 221.5t73.5 206.5t116.5 171.5t159 118t195.5 43.5q63 0 115.5 -17.5t85 -44t56.5 -61t35 -65t15 -59.5l47 221h90l-229 -1077q-49 -229 -187.5 -339t-344.5 -110zM430 61q98 0 187.5 62t151 159.5t98 219.5t36.5 241q0 143 -71.5 223.5t-188.5 80.5 q-108 0 -200 -61.5t-150.5 -160t-91.5 -217.5t-33 -239q0 -148 67.5 -228t194.5 -80z" />
<glyph unicode="&#x1ea;" horiz-adv-x="1339" d="M602 -25q-80 -80 -94 -145q-10 -55 14 -85t80 -30l-27 -65q-84 0 -122 45.5t-19 122.5q13 76 92 155q-179 8 -287 132.5t-108 347.5q0 149 30.5 293t92 271.5t147.5 224t204.5 152.5t254.5 56q202 0 311 -116t109 -345q0 -121 -20 -240t-58.5 -228.5t-97.5 -205 t-132.5 -167.5t-168.5 -117.5t-201 -55.5zM225 457q0 -190 95 -294t247 -104q113 0 213.5 54t173 146t126 210.5t80 250t26.5 263.5q0 193 -89 287t-253 94q-119 0 -221.5 -54t-174 -144.5t-123 -208t-76 -245t-24.5 -255.5z" />
<glyph unicode="&#x1eb;" horiz-adv-x="1060" d="M428 -27q-77 -77 -92 -143q-10 -55 14 -85t80 -30l-27 -65q-84 0 -122 45.5t-19 122.5q15 78 94 157q-140 15 -214 110.5t-74 262.5q0 145 41 284t114 249t185 177.5t243 67.5q165 0 253.5 -96t88.5 -276q0 -143 -40 -280t-111 -246.5t-179 -179t-235 -75.5zM162 365 q0 -148 67.5 -228t194.5 -80q108 0 200 61.5t150.5 160t91.5 217.5t33 239q0 148 -67.5 227.5t-196.5 79.5q-87 0 -163.5 -40t-132.5 -107.5t-96.5 -155t-60.5 -183.5t-20 -191z" />
<glyph unicode="&#x1fa;" horiz-adv-x="1146" d="M1141 2093l-488 -182l-22 67l483 189zM860 1896q70 0 107 -50t22 -124q-13 -74 -72.5 -124t-132.5 -50q-70 0 -105.5 49t-21.5 125q15 74 73 124t130 50zM924 1722q12 50 -10.5 82.5t-67.5 32.5q-41 0 -78 -32.5t-47 -82.5q-10 -51 12.5 -81.5t65.5 -30.5q44 0 80 30.5 t45 81.5zM702 1423h115l168 -1423h-94l-45 391h-613l-210 -391h-95zM279 475h557l-99 856z" />
<glyph unicode="&#x1fb;" horiz-adv-x="1120" d="M573 1587l-22 68l483 188l27 -74zM705 1225q-70 0 -105.5 49t-21.5 125q15 74 72.5 124t129.5 50q70 0 107 -50t22 -124q-13 -74 -72 -124t-132 -50zM719 1286q44 0 80 31t45 82q12 50 -10.5 82t-67.5 32q-41 0 -78 -32t-47 -82q-10 -51 12.5 -82t65.5 -31zM399 -27 q-163 0 -246 99t-83 274q0 150 39 289.5t110 249t181.5 175.5t242.5 66q71 0 128.5 -23t93 -61.5t56 -82.5t25.5 -91l49 232h90l-180 -856q-22 -101 -22 -176q0 -38 6 -68h-92q-6 30 -6 68q0 70 20 168q-25 -49 -62.5 -93.5t-88.5 -83.5t-119 -62.5t-142 -23.5zM428 57 q87 0 164 40.5t132.5 109t96 156.5t60.5 184.5t20 191.5q0 147 -67.5 225t-194.5 78q-86 0 -163 -40t-133 -107.5t-97 -154.5t-61.5 -183t-20.5 -190q0 -149 68.5 -229.5t195.5 -80.5z" />
<glyph unicode="&#x1fc;" horiz-adv-x="1867" d="M1686 1757l-488 -182l-22 67l483 189zM1190 1339l-31 -147l-90 -430h567l-20 -84h-567l-80 -383l-45 -211h704l-16 -84h-799l96 453h-477l-342 -453h-108l1083 1423h790l-18 -84h-647zM498 537h430l168 790z" />
<glyph unicode="&#x1fd;" horiz-adv-x="1820" d="M1366 1434l-487 -183l-23 68l483 188zM1268 59q104 0 206 56t164 157l68 -45q-70 -119 -187.5 -186.5t-271.5 -67.5q-129 0 -217 71.5t-117 199.5l-49 -244h-90l55 264q-51 -122 -166.5 -206.5t-263.5 -84.5q-163 0 -246 99t-83 274q0 150 39 289.5t110 249t181.5 175.5 t242.5 66q71 0 128.5 -23t93 -61.5t56 -82.5t25.5 -91l49 232h90l-47 -232q78 120 187.5 189t240.5 69q125 0 189.5 -55.5t64.5 -142.5q0 -70 -42 -144.5t-117.5 -138t-194 -104.5t-256.5 -41q-54 0 -109 6q-8 -49 -8 -113q0 -156 71.5 -245t203.5 -89zM428 57 q87 0 164 40.5t132.5 109t96 156.5t60.5 184.5t20 191.5q0 147 -67.5 225t-194.5 78q-86 0 -163 -40t-133 -107.5t-97 -154.5t-61.5 -183t-20.5 -190q0 -149 68.5 -229.5t195.5 -80.5zM1452 1042q-78 0 -150 -37.5t-127 -101t-95 -145t-62 -172.5q50 -6 96 -6 q117 0 217.5 32.5t163.5 82.5t98 107t35 109q0 59 -44.5 95t-131.5 36z" />
<glyph unicode="&#x1fe;" horiz-adv-x="1339" d="M1153 1757l-487 -182l-23 67l483 189zM1145 1360q135 -117 135 -371q0 -152 -30.5 -299t-92.5 -276.5t-148 -228t-205.5 -155.5t-256.5 -57q-128 0 -219 58l-92 -150l-64 25l100 164q-141 131 -141 383q0 149 30.5 293t92 271.5t147.5 224t204.5 152.5t254.5 56 q138 0 230 -51l86 139l63 -25zM225 457q0 -188 101 -301l714 1161q-75 47 -196 47q-119 0 -221.5 -54t-174 -144.5t-123 -208t-76 -245t-24.5 -255.5zM567 59q113 0 213.5 54t173 146t126 210.5t80 250t26.5 263.5q0 196 -94 293l-713 -1163q82 -54 188 -54z" />
<glyph unicode="&#x1ff;" horiz-adv-x="1060" d="M936 1434l-487 -183l-23 68l483 188zM993 1153l-88 -123q88 -97 88 -276q0 -116 -26 -229.5t-77 -212.5t-120.5 -175t-163.5 -120t-200 -44q-130 0 -216 64l-75 -105l-45 31l80 113q-82 97 -82 272q0 145 41 284t114 249t185 177.5t243 67.5q130 0 213 -59l84 117z M162 365q0 -129 49 -205l596 827q-64 55 -172 55q-87 0 -163.5 -40t-132.5 -107.5t-96.5 -155t-60.5 -183.5t-20 -191zM899 735q0 135 -55 211l-596 -829q66 -60 176 -60q108 0 200 61.5t150.5 160t91.5 217.5t33 239z" />
<glyph unicode="&#x218;" horiz-adv-x="1064" d="M438 -27q-145 0 -256.5 71.5t-146.5 176.5l90 39q30 -92 121 -146.5t207 -54.5q161 0 263.5 88t102.5 220q0 66 -32.5 119.5t-84.5 90t-114.5 70t-125 68t-114.5 74t-84.5 98t-32.5 131.5q0 192 136.5 312t345.5 120q143 0 238.5 -60.5t125.5 -164.5l-92 -37 q-25 84 -99.5 130t-183.5 46q-152 0 -260 -95.5t-108 -230.5q0 -64 32.5 -115.5t84 -87t114 -68t125 -66.5t114 -74t84 -100.5t32.5 -135.5q0 -183 -134 -300.5t-348 -117.5zM299 -457l-31 49q116 60 142 179q-18 -15 -39 -15q-33 0 -47.5 21t-8.5 49q5 28 30 49t61 21 q47 0 67 -31.5t8 -83.5q-14 -72 -60.5 -135t-121.5 -103z" />
<glyph unicode="&#x219;" horiz-adv-x="917" d="M393 -27q-155 0 -255 68.5t-122 183.5l78 43q20 -99 99.5 -156t201.5 -57t198.5 66t76.5 178q0 52 -27 92t-71 66t-96.5 49t-105 49t-96.5 57t-71 81t-27 114q0 148 99 233.5t255 85.5q124 0 221 -57.5t117 -142.5l-75 -47q-21 73 -100.5 119t-168.5 46 q-109 0 -181.5 -62.5t-72.5 -160.5q0 -53 27.5 -94t71 -68t96.5 -50.5t106 -49t96.5 -56t71 -78.5t27.5 -110q0 -158 -104 -250t-269 -92zM266 -457l-30 49q115 59 141 179q-18 -15 -39 -15q-33 0 -47 21t-8 49q5 28 29.5 49t60.5 21q47 0 67.5 -32t8.5 -83 q-14 -72 -61 -135t-122 -103z" />
<glyph unicode="&#x21a;" horiz-adv-x="1193" d="M426 0l283 1339h-478l19 84h1048l-18 -84h-479l-283 -1339h-92zM340 -457l-31 49q116 60 142 179q-18 -15 -39 -15q-33 0 -47.5 21t-8.5 49q5 28 29.5 49t60.5 21q47 0 67.5 -32t8.5 -83q-14 -72 -60.5 -135t-121.5 -103z" />
<glyph unicode="&#x21b;" horiz-adv-x="739" d="M362 -27q-246 0 -182 306l158 739h-199l17 82h198l72 334l92 16l-74 -350h283l-16 -82h-285l-154 -725q-26 -123 1.5 -177.5t115.5 -54.5q79 0 170 48v-82q-97 -54 -197 -54zM205 -457l-31 49q115 59 141 179q-18 -15 -39 -15q-33 0 -47 21t-8 49q5 28 29.5 49t60.5 21 q47 0 67.5 -32t8.5 -83q-14 -72 -60.5 -135t-121.5 -103z" />
<glyph unicode="&#x232;" horiz-adv-x="1157" d="M575 1669l17 74h483l-16 -74h-484zM414 0l114 535l-264 888h103l229 -784l567 784h103l-645 -888l-115 -535h-92z" />
<glyph unicode="&#x233;" horiz-adv-x="1003" d="M410 1346l16 73h483l-16 -73h-483zM293 -426q-138 0 -226 67.5t-108 194.5l80 33q15 -103 81.5 -158t180.5 -55q71 0 142.5 36t131.5 112.5t80 177.5l47 217q-56 -88 -154.5 -152.5t-215.5 -64.5q-151 0 -220.5 100t-35.5 254l162 764h88l-160 -750q-27 -135 27 -211 t174 -76q124 0 236 99t147 262l143 676h90l-238 -1114q-28 -132 -96 -226.5t-159 -140t-197 -45.5z" />
<glyph unicode="&#x237;" horiz-adv-x="473" d="M-227 -426l16 80q108 0 171.5 54.5t94.5 197.5l254 1194h90l-254 -1188q-21 -100 -56 -168t-84.5 -104.5t-104.5 -51t-127 -14.5z" />
<glyph unicode="&#x259;" horiz-adv-x="993" d="M571 1126q161 0 256 -107t95 -292q0 -141 -41.5 -276t-114 -241.5t-181 -171.5t-233.5 -65q-123 0 -188.5 56t-65.5 143q0 70 42.5 144.5t118 138t194.5 104.5t258 41q51 0 106 -6q8 49 8 113q0 156 -71 244.5t-203 88.5q-104 0 -205.5 -56t-165.5 -157l-67 45 q69 119 187 186.5t271 67.5zM367 57q104 0 195 65t150.5 166.5t88.5 225.5q-49 6 -96 6q-116 0 -217 -32.5t-164 -83t-98.5 -107.5t-35.5 -109q0 -58 45.5 -94.5t131.5 -36.5z" />
<glyph unicode="&#x272;" horiz-adv-x="1124" d="M-219 -399l18 80q99 0 159 58.5t89 192.5l248 1168h88l-41 -185q32 51 78.5 96t120.5 80t153 35q158 0 235 -110.5t32 -323.5l-148 -692h-88l145 686q36 172 -24.5 263t-181.5 91q-120 0 -226.5 -97.5t-144.5 -274.5l-156 -729q-39 -184 -127.5 -261t-228.5 -77z" />
<glyph unicode="&#x2c6;" horiz-adv-x="1183" d="M512 1229l-59 33l258 270h80l141 -270l-72 -33l-125 227z" />
<glyph unicode="&#x2c7;" horiz-adv-x="1183" d="M655 1235l-166 248l76 33l140 -209l227 209l61 -33l-272 -248h-66z" />
<glyph unicode="&#x2d8;" horiz-adv-x="1183" d="M705 1264q-101 0 -155.5 62.5t-29.5 184.5h76q-17 -83 14 -128.5t99 -45.5q66 0 117 45.5t69 128.5h76q-27 -124 -98 -185.5t-168 -61.5z" />
<glyph unicode="&#x2d9;" horiz-adv-x="1183" d="M723 1405q-25 0 -41 19.5t-10 48.5q6 30 29.5 48.5t50.5 18.5t43 -18.5t10 -48.5q-6 -29 -30 -48.5t-52 -19.5z" />
<glyph unicode="&#x2da;" horiz-adv-x="1183" d="M684 1225q-70 0 -105.5 49t-21.5 125q15 74 73 124t130 50q70 0 107 -50t22 -124q-13 -74 -72.5 -124t-132.5 -50zM698 1286q44 0 80 31t45 82q12 50 -10.5 82t-67.5 32q-41 0 -77.5 -32t-46.5 -82q-10 -51 12.5 -82t64.5 -31z" />
<glyph unicode="&#x2db;" horiz-adv-x="1183" d="M434 -352q-84 0 -122 45.5t-19 122.5q9 52 45.5 101t77.5 83h71q-50 -48 -80.5 -88t-39.5 -84q-10 -55 14 -85t80 -30z" />
<glyph unicode="&#x2dc;" horiz-adv-x="1183" d="M539 1305l-66 16q16 56 55 92.5t93 36.5q35 0 104 -15.5t94 -15.5q66 0 88 82l68 -16q-20 -59 -63.5 -97t-104.5 -38q-38 0 -105 14t-88 14q-31 0 -47.5 -16.5t-27.5 -56.5z" />
<glyph unicode="&#x2dd;" horiz-adv-x="1183" d="M459 1247l241 326h88l-245 -326h-84zM657 1247l246 326h90l-250 -326h-86z" />
<glyph unicode="&#x300;" d="M-145 1272l-471 143l30 72l469 -148z" />
<glyph unicode="&#x301;" d="M-600 1251l-23 68l484 188l26 -73z" />
<glyph unicode="&#x302;" d="M-571 1229l-60 33l258 270h80l141 -270l-71 -33l-125 227z" />
<glyph unicode="&#x303;" d="M-547 1305l-65 16q16 57 55 93t92 36q35 0 104.5 -15.5t94.5 -15.5q66 0 88 82l67 -16q-20 -59 -63.5 -97t-104.5 -38q-38 0 -104.5 14t-87.5 14q-31 0 -48 -17t-28 -56z" />
<glyph unicode="&#x304;" d="M-616 1346l16 73h483l-16 -73h-483z" />
<glyph unicode="&#x306;" d="M-381 1264q-101 0 -155 62.5t-29 184.5h76q-17 -83 14 -128.5t98 -45.5q66 0 117.5 45.5t69.5 128.5h75q-27 -124 -98 -185.5t-168 -61.5z" />
<glyph unicode="&#x307;" d="M-362 1405q-26 0 -42 20t-10 48q6 30 29.5 48.5t50.5 18.5t43 -18.5t10 -48.5q-6 -29 -29.5 -48.5t-51.5 -19.5z" />
<glyph unicode="&#x308;" d="M-535 1305q-22 0 -36.5 15t-14.5 38q0 30 22 53t56 23q22 0 36.5 -14.5t14.5 -37.5q0 -31 -22.5 -54t-55.5 -23zM-225 1305q-22 0 -36.5 15t-14.5 38q0 31 21.5 53.5t55.5 22.5q22 0 37 -14.5t15 -37.5q0 -31 -22.5 -54t-55.5 -23z" />
<glyph unicode="&#x30a;" d="M-403 1225q-70 0 -105.5 49t-21.5 125q15 74 72.5 124t129.5 50q70 0 107 -50t22 -124q-13 -74 -72 -124t-132 -50zM-389 1286q44 0 80 31t45 82q12 50 -10.5 82t-67.5 32q-41 0 -78 -32t-47 -82q-10 -51 12.5 -82t65.5 -31z" />
<glyph unicode="&#x30b;" d="M-627 1247l242 326h88l-246 -326h-84zM-428 1247l246 326h90l-250 -326h-86z" />
<glyph unicode="&#x30c;" d="M-428 1235l-166 248l76 33l139 -209l227 209l62 -33l-272 -248h-66z" />
<glyph unicode="&#x312;" d="M-381 1262q-45 0 -66 31.5t-12 84.5q16 71 63.5 133.5t123.5 102.5l26 -49q-108 -55 -141 -179q21 15 41 15q33 0 47.5 -20t9.5 -48q-7 -29 -31.5 -50t-60.5 -21z" />
<glyph unicode="&#x323;" d="M-731 -293q-20 0 -34.5 13t-14.5 34q0 30 23.5 54t51.5 24q22 0 38 -14t16 -35q0 -30 -24.5 -53t-55.5 -23z" />
<glyph unicode="&#x326;" d="M-801 -457l-30 49q115 59 141 179q-18 -15 -39 -15q-33 0 -47 21t-8 49q5 28 29.5 49t60.5 21q47 0 67.5 -32t8.5 -83q-14 -72 -61 -135t-122 -103z" />
<glyph unicode="&#x327;" d="M-760 -424q-103 0 -162 53l35 58q61 -49 139 -49q61 0 101.5 28.5t48.5 65.5q6 36 -18 61t-78 25q-47 0 -101 -23l-39 35l148 170h74l-121 -133q37 12 78 12q78 0 113 -42t22 -101q-13 -65 -76.5 -112.5t-163.5 -47.5z" />
<glyph unicode="&#x328;" d="M-649 -352q-84 0 -122.5 45.5t-19.5 122.5q9 52 45.5 101t77.5 83h72q-33 -32 -53 -53.5t-40.5 -54.5t-27.5 -64q-10 -55 14 -85t80 -30z" />
<glyph unicode="&#x335;" d="M-776 440l16 74h420l-14 -74h-422z" />
<glyph unicode="&#x336;" d="M-825 453l16 71h526l-16 -71h-526z" />
<glyph unicode="&#x337;" d="M-754 612l21 84l481 164l-18 -84z" />
<glyph unicode="&#x338;" d="M-975 -147l-45 30l879 1221l45 -31z" />
<glyph unicode="&#x384;" horiz-adv-x="1183" d="M692 1210l156 367h92l-164 -367h-84z" />
<glyph unicode="&#x385;" horiz-adv-x="1185" d="M696 1210l154 367h86l-166 -367h-74zM625 1339q-25 0 -40.5 18.5t-9.5 45.5t28.5 46t47.5 19q27 0 42 -19t9 -46t-29 -45.5t-48 -18.5zM967 1339q-25 0 -40 18.5t-9 45.5t28 46t47 19q27 0 42 -19t9 -46t-29 -45.5t-48 -18.5z" />
<glyph unicode="&#x386;" horiz-adv-x="1146" d="M891 0l-45 391h-613l-210 -391h-95l774 1423h115l168 -1423h-94zM547 1423l-209 -426h-76l205 426h80zM279 475h557l-99 856z" />
<glyph unicode="&#x388;" horiz-adv-x="1267" d="M141 997l205 426h80l-209 -426h-76zM213 0l303 1423h739l-20 -84h-647l-121 -577h567l-20 -84h-565l-127 -594h704l-16 -84h-797z" />
<glyph unicode="&#x389;" horiz-adv-x="1556" d="M141 997l205 426h80l-209 -426h-76zM213 0l303 1423h92l-141 -661h831l142 661h92l-303 -1423h-92l143 680h-831l-144 -680h-92z" />
<glyph unicode="&#x38a;" horiz-adv-x="632" d="M141 997l205 426h80l-209 -426h-76zM213 0l303 1423h92l-303 -1423h-92z" />
<glyph unicode="&#x38c;" horiz-adv-x="1357" d="M565 -27q-187 0 -301 125.5t-114 354.5q0 149 30.5 293t92 271.5t147.5 224t204.5 152.5t254.5 56q202 0 310.5 -115.5t108.5 -345.5q0 -152 -30.5 -299t-92.5 -276.5t-148 -228t-205.5 -155.5t-256.5 -57zM82 997l205 426h80l-209 -426h-76zM586 59q113 0 213 54 t173 146t126 210.5t79.5 250t26.5 263.5q0 193 -89 287t-253 94q-100 0 -188 -38t-154.5 -104t-120 -154t-87 -189.5t-51 -208.5t-17.5 -213q0 -190 95 -294t247 -104z" />
<glyph unicode="&#x38e;" horiz-adv-x="1189" d="M-25 997l205 426h80l-209 -426h-76zM446 0l115 535l-264 888h102l230 -784l567 784h102l-645 -888l-114 -535h-93z" />
<glyph unicode="&#x38f;" horiz-adv-x="1306" d="M-14 0l16 78l358 -4q-138 70 -211 200.5t-73 300.5q0 169 60.5 328.5t163 280t248 193.5t306.5 73q124 0 218.5 -40.5t151 -111.5t85 -160.5t28.5 -195.5q0 -285 -159 -523.5t-416 -344.5l360 4l-16 -78h-502l19 84q275 91 449.5 325.5t174.5 514.5q0 93 -24.5 171.5 t-73.5 139t-129 95t-184 34.5q-112 0 -216.5 -42t-185.5 -116.5t-142 -171t-93.5 -210.5t-32.5 -230q0 -176 85.5 -310t252.5 -200l-19 -84h-499zM8 997l205 426h80l-209 -426h-76z" />
<glyph unicode="&#x390;" horiz-adv-x="548" d="M352 1210l154 367h86l-166 -367h-74zM281 1339q-25 0 -40.5 18.5t-9.5 45.5t28.5 46t47.5 19q27 0 42 -19t9 -46t-29 -45.5t-48 -18.5zM623 1339q-25 0 -40.5 18.5t-9.5 45.5t28.5 46t47.5 19q27 0 42 -19t9 -46t-29 -45.5t-48 -18.5zM145 289l172 811h91l-172 -809 q-23 -108 6.5 -165.5t107.5 -57.5q22 0 49 6l-20 -86q-40 -4 -60 -4q-108 0 -157 75t-17 230z" />
<glyph unicode="&#x391;" horiz-adv-x="1146" d="M891 0l-45 391h-613l-210 -391h-95l774 1423h115l168 -1423h-94zM279 475h557l-99 856z" />
<glyph unicode="&#x392;" horiz-adv-x="1181" d="M96 0l303 1423h377q22 0 41.5 -1t45.5 -4t48.5 -9t47 -15t44.5 -23t38.5 -32t31 -43t20 -54.5t7 -68t-9.5 -83.5q-29 -145 -108 -235.5t-185 -121.5v-2q43 -12 78 -35.5t65 -65t37.5 -99.5t-4.5 -138q-71 -393 -486 -393h-391zM350 766h271q148 0 243 79.5t127 231.5 q8 53 7.5 93t-17 69t-38 48t-54.5 30t-66.5 15.5t-74.5 4.5h-277zM205 84h287q164 0 257 72.5t125 228.5q31 145 -35.5 220t-224.5 75h-282z" />
<glyph unicode="&#x393;" horiz-adv-x="1044" d="M96 0l303 1423h734l-19 -84h-643l-283 -1339h-92z" />
<glyph unicode="&#x394;" horiz-adv-x="1064" d="M-70 0l732 1423h116l123 -1423h-971zM61 82h748l-109 1245z" />
<glyph unicode="&#x395;" horiz-adv-x="1150" d="M96 0l303 1423h740l-21 -84h-647l-121 -577h568l-21 -84h-565l-127 -594h704l-16 -84h-797z" />
<glyph unicode="&#x396;" horiz-adv-x="1183" d="M4 0l16 78l1080 1261h-793l19 84h903l-17 -73l-1083 -1266h834l-17 -84h-942z" />
<glyph unicode="&#x397;" horiz-adv-x="1439" d="M96 0l303 1423h93l-142 -661h832l141 661h92l-303 -1423h-92l143 680h-831l-144 -680h-92z" />
<glyph unicode="&#x398;" horiz-adv-x="1339" d="M547 -27q-187 0 -301.5 125.5t-114.5 354.5q0 149 30.5 293t92 271.5t147.5 224t204.5 152.5t254.5 56q202 0 311 -116t109 -345q0 -152 -30.5 -299t-92.5 -276.5t-148 -228t-205.5 -155.5t-256.5 -57zM567 59q113 0 213.5 54t173 146t126 210.5t80 250t26.5 263.5 q0 193 -89 287t-253 94q-119 0 -221.5 -54t-174 -144.5t-123 -208t-76 -245t-24.5 -255.5q0 -190 95 -294t247 -104zM399 676l21 74h584l-19 -74h-586z" />
<glyph unicode="&#x399;" horiz-adv-x="516" d="M96 0l303 1423h93l-304 -1423h-92z" />
<glyph unicode="&#x39a;" horiz-adv-x="1163" d="M1212 1423l-647 -632l422 -791h-113l-385 717l-188 -185l-113 -532h-92l303 1423h93l-160 -745l760 745h120z" />
<glyph unicode="&#x39b;" horiz-adv-x="1146" d="M-72 0l774 1423h115l168 -1423h-94l-154 1331l-714 -1331h-95z" />
<glyph unicode="&#x39c;" horiz-adv-x="1619" d="M96 0l303 1423h103l289 -960l700 960h102l-303 -1423h-92l266 1255l-657 -909h-82l-270 909l-267 -1255h-92z" />
<glyph unicode="&#x39d;" horiz-adv-x="1409" d="M96 0l303 1423h95l526 -1269l270 1269h92l-303 -1423h-94l-528 1272l-269 -1272h-92z" />
<glyph unicode="&#x39e;" horiz-adv-x="1191" d="M326 1339l20 84h873l-19 -84h-874zM268 678l19 84h706l-18 -84h-707zM43 0l16 84h873l-17 -84h-872z" />
<glyph unicode="&#x39f;" horiz-adv-x="1339" d="M547 -27q-187 0 -301.5 125.5t-114.5 354.5q0 149 30.5 293t92 271.5t147.5 224t204.5 152.5t254.5 56q202 0 311 -116t109 -345q0 -152 -30.5 -299t-92.5 -276.5t-148 -228t-205.5 -155.5t-256.5 -57zM567 59q113 0 213.5 54t173 146t126 210.5t80 250t26.5 263.5 q0 193 -89 287t-253 94q-119 0 -221.5 -54t-174 -144.5t-123 -208t-76 -245t-24.5 -255.5q0 -190 95 -294t247 -104z" />
<glyph unicode="&#x3a0;" horiz-adv-x="1439" d="M96 0l303 1423h1016l-303 -1423h-92l283 1339h-832l-283 -1339h-92z" />
<glyph unicode="&#x3a1;" horiz-adv-x="1091" d="M96 0l303 1423h375q188 0 273 -109.5t45 -299.5q-43 -204 -183 -322.5t-338 -118.5h-262l-121 -573h-92zM326 657h264q154 0 262.5 95t140.5 254q34 154 -33.5 243.5t-216.5 89.5h-272z" />
<glyph unicode="&#x3a3;" horiz-adv-x="1249" d="M61 0l17 78l545 635l-267 633l17 77h880l-18 -84h-778l262 -626l-539 -629h793l-19 -84h-893z" />
<glyph unicode="&#x3a4;" horiz-adv-x="1193" d="M426 0l283 1339h-478l19 84h1048l-18 -84h-479l-283 -1339h-92z" />
<glyph unicode="&#x3a5;" horiz-adv-x="1157" d="M414 0l114 535l-264 888h103l229 -784l567 784h103l-645 -888l-115 -535h-92z" />
<glyph unicode="&#x3a6;" horiz-adv-x="1454" d="M559 -25l37 175h-27q-200 0 -323 115t-123 310q0 139 54.5 268t146.5 224t219.5 152t265.5 57h27l34 172h93l-35 -172h26q199 0 323 -116t124 -310q0 -139 -55 -268t-147 -223.5t-219 -151.5t-265 -57h-27l-37 -175h-92zM590 233h24l203 959h-24q-119 0 -227 -50.5 t-184 -133t-120.5 -192.5t-44.5 -226q0 -164 103.5 -260.5t269.5 -96.5zM707 233h24q158 0 291.5 85.5t208 223.5t74.5 294q0 164 -102.5 260t-268.5 96h-25z" />
<glyph unicode="&#x3a7;" horiz-adv-x="1280" d="M1331 1423l-600 -708l318 -715h-111l-285 641l-557 -641h-100l622 721l-313 702h113l278 -628l535 628h100z" />
<glyph unicode="&#x3a8;" horiz-adv-x="1454" d="M563 0l70 330h-27q-109 0 -195 36.5t-141 106.5t-73.5 171t8.5 230l119 549h92l-119 -549q-44 -215 50.5 -337.5t279.5 -122.5h24l215 1009h92l-215 -1009h29q119 0 225.5 52.5t186 158.5t110.5 249l117 549h92l-117 -549q-54 -251 -231.5 -397.5t-400.5 -146.5h-29 l-70 -330h-92z" />
<glyph unicode="&#x3a9;" horiz-adv-x="1288" d="M-33 0l17 78l358 -4q-138 70 -211.5 200.5t-73.5 300.5q0 169 60.5 328.5t163.5 280t248.5 193.5t306.5 73q124 0 218.5 -40.5t151 -111.5t85 -160.5t28.5 -195.5q0 -285 -159.5 -523t-416.5 -345l361 4l-17 -78h-501l18 84q275 91 450 325.5t175 514.5q0 93 -25 171.5 t-74 139t-129 95t-184 34.5q-112 0 -216.5 -42t-185.5 -116.5t-142 -171t-93.5 -210.5t-32.5 -230q0 -176 85.5 -310t252.5 -200l-18 -84h-500z" />
<glyph unicode="&#x3aa;" horiz-adv-x="516" d="M334 1628q-22 0 -36.5 15t-14.5 38q0 31 21.5 53.5t55.5 22.5q22 0 37 -14t15 -37q0 -31 -22.5 -54.5t-55.5 -23.5zM643 1628q-22 0 -36.5 15t-14.5 38q0 30 22 53t56 23q22 0 36.5 -14t14.5 -37q0 -31 -22.5 -54.5t-55.5 -23.5zM96 0l303 1423h93l-304 -1423h-92z" />
<glyph unicode="&#x3ab;" horiz-adv-x="1157" d="M653 1628q-22 0 -36.5 15t-14.5 38q0 30 22 53t56 23q22 0 36.5 -14t14.5 -37q0 -31 -22.5 -54.5t-55.5 -23.5zM963 1628q-22 0 -37 15t-15 38q0 30 22 53t56 23q22 0 36.5 -14t14.5 -37q0 -32 -22 -55t-55 -23zM414 0l114 535l-264 888h103l229 -784l567 784h103 l-645 -888l-115 -535h-92z" />
<glyph unicode="&#x3ac;" horiz-adv-x="1261" d="M631 1210l155 367h93l-164 -367h-84zM395 -27q-156 0 -240.5 97t-84.5 276q0 150 40.5 290t112.5 249.5t181 175t237 65.5t209 -66.5t104 -168.5l45 209h86l-161 -760q-24 -125 14.5 -193.5t138.5 -68.5l-22 -82q-116 0 -178 66t-50 165q-78 -121 -188 -187.5t-244 -66.5 zM424 57q87 0 164.5 42t133 111.5t96.5 157.5t61 182.5t20 184.5q0 149 -67 228t-195 79q-87 0 -164 -40t-132.5 -107.5t-96 -155t-60.5 -183.5t-20 -191q0 -149 66.5 -228.5t193.5 -79.5z" />
<glyph unicode="&#x3ad;" horiz-adv-x="968" d="M586 1210l155 367h93l-164 -367h-84zM389 -27q-142 0 -234 72t-92 188q0 129 85.5 221.5t211.5 116.5v2q-72 20 -114.5 70t-42.5 129q0 152 116 253t289 101q113 0 194 -55.5t109 -148.5l-92 -31q-21 73 -79 112t-138 39q-122 0 -215.5 -76.5t-93.5 -191.5q0 -90 69 -131 t168 -41h162l-16 -70h-158q-145 0 -252.5 -79t-107.5 -207q0 -88 75 -138.5t173 -50.5q205 0 327 170l74 -34q-145 -220 -418 -220z" />
<glyph unicode="&#x3ae;" horiz-adv-x="1185" d="M713 1210l155 367h93l-164 -367h-84zM700 -399l232 1085q37 171 -25 262.5t-186 91.5q-76 0 -149.5 -39.5t-135.5 -126.5t-86 -206l-143 -668h-88l182 862q22 104 -0.5 144.5t-81.5 40.5q-27 0 -57 -9l16 76q37 12 72 12q78 0 117.5 -48.5t23.5 -155.5q56 85 151 144.5 t210 59.5q159 0 237.5 -109.5t34.5 -318.5l-236 -1097h-88z" />
<glyph unicode="&#x3af;" horiz-adv-x="548" d="M348 1210l156 367h92l-164 -367h-84zM145 289l172 811h91l-172 -809q-23 -108 6.5 -165.5t107.5 -57.5q22 0 49 6l-20 -86q-40 -4 -60 -4q-108 0 -157 75t-17 230z" />
<glyph unicode="&#x3b0;" horiz-adv-x="999" d="M551 1210l154 367h86l-166 -367h-74zM479 1339q-25 0 -40 18.5t-9 45.5t28.5 46t47.5 19q27 0 42 -19t9 -46t-29.5 -45.5t-48.5 -18.5zM821 1339q-25 0 -40 18.5t-9 45.5t28.5 46t47.5 19q27 0 42 -19t9 -46t-29.5 -45.5t-48.5 -18.5zM358 -27q-167 0 -243 104.5 t-37 274.5l160 748h88l-156 -744q-33 -136 21 -217.5t184 -81.5q87 0 161.5 49.5t125.5 132.5t87 191.5t53 225t17 235.5q0 110 -12 209h90q14 -104 14 -219q0 -140 -20.5 -270t-65 -247t-108 -203.5t-156 -137t-203.5 -50.5z" />
<glyph unicode="&#x3b1;" horiz-adv-x="1261" d="M395 -27q-156 0 -240.5 97t-84.5 276q0 150 40.5 290t112.5 249.5t181 175t237 65.5t209 -66.5t104 -168.5l45 209h86l-161 -760q-24 -125 14.5 -193.5t138.5 -68.5l-22 -82q-116 0 -178 66t-50 165q-78 -121 -188 -187.5t-244 -66.5zM424 57q87 0 164.5 42t133 111.5 t96.5 157.5t61 182.5t20 184.5q0 149 -67 228t-195 79q-87 0 -164 -40t-132.5 -107.5t-96 -155t-60.5 -183.5t-20 -191q0 -149 66.5 -228.5t193.5 -79.5z" />
<glyph unicode="&#x3b2;" horiz-adv-x="1159" d="M-8 -399l313 1466q35 176 158.5 279.5t294.5 103.5q134 0 211.5 -71t77.5 -189t-69 -223.5t-171 -147.5q101 -28 157 -109t56 -196q0 -144 -68.5 -268.5t-188.5 -198.5t-261 -74q-121 0 -201 55.5t-98 139.5l-123 -567h-88zM508 57q116 0 213.5 64.5t151 167t53.5 215.5 q0 118 -73 187t-200 69h-78l17 82h74q82 0 149 48t103 121.5t36 153.5q0 93 -57 147t-156 54q-130 0 -225 -82t-123 -217l-133 -627q-34 -180 29 -281.5t219 -101.5z" />
<glyph unicode="&#x3b3;" horiz-adv-x="1050" d="M246 -399l92 426l-160 1073h101l139 -975q156 123 306.5 375t201.5 491q15 93 16 109h100q-8 -55 -14 -88q-56 -268 -223.5 -544.5t-376.5 -440.5l-92 -426h-90z" />
<glyph unicode="&#x3b4;" horiz-adv-x="1013" d="M381 -25q-156 0 -241 89.5t-85 250.5q0 156 54.5 291t162.5 226t250 108q-85 20 -139.5 74t-54.5 135q0 93 54 163.5t136 104t178 33.5q170 0 287 -94l-45 -72q-104 90 -242 90q-113 0 -193.5 -62.5t-80.5 -158.5q0 -47 27.5 -80t71.5 -53.5t97.5 -39.5t107 -45.5 t97.5 -63.5t71.5 -102t27.5 -153q0 -171 -65 -316t-190 -235t-286 -90zM401 59q129 0 228 80.5t147.5 203.5t48.5 263q0 128 -65 196t-189 68q-129 0 -227 -80.5t-146 -203.5t-48 -264q0 -127 64 -195t187 -68z" />
<glyph unicode="&#x3b5;" horiz-adv-x="968" d="M389 -27q-142 0 -234 72t-92 188q0 129 85.5 221.5t211.5 116.5v2q-72 20 -114.5 70t-42.5 129q0 152 116 253t289 101q113 0 194 -55.5t109 -148.5l-92 -31q-21 73 -79 112t-138 39q-122 0 -215.5 -76.5t-93.5 -191.5q0 -90 69 -131t168 -41h162l-16 -70h-158 q-145 0 -252.5 -79t-107.5 -207q0 -88 75 -138.5t173 -50.5q205 0 327 170l74 -34q-145 -220 -418 -220z" />
<glyph unicode="&#x3b6;" horiz-adv-x="954" d="M518 -408l-67 33q75 50 121 116.5t46 127.5q0 45 -28.5 78t-74 53.5t-100.5 38.5t-110 40t-100.5 50t-74 76t-28.5 112q0 72 29.5 153.5t76 157t116.5 159.5t139.5 154.5t156 148t155 133.5t147.5 118h-433l19 82h553l-23 -82q-280 -232 -377 -319q-360 -325 -438 -545 q-24 -67 -24 -127q0 -54 29 -94.5t75 -64t102 -43t112 -39.5t102 -44t75 -65t29 -96q0 -80 -56.5 -166t-148.5 -146z" />
<glyph unicode="&#x3b7;" horiz-adv-x="1185" d="M700 -399l232 1085q37 171 -25 262.5t-186 91.5q-76 0 -149.5 -39.5t-135.5 -126.5t-86 -206l-143 -668h-88l182 862q22 104 -0.5 144.5t-81.5 40.5q-27 0 -57 -9l16 76q37 12 72 12q78 0 117.5 -48.5t23.5 -155.5q56 85 151 144.5t210 59.5q159 0 237.5 -109.5 t34.5 -318.5l-236 -1097h-88z" />
<glyph unicode="&#x3b8;" horiz-adv-x="1132" d="M442 -27q-157 0 -239 104.5t-82 311.5q0 141 26 288t80 285.5t128 247t178.5 174.5t222.5 66q155 0 239 -104.5t84 -313.5q0 -117 -19 -240t-54.5 -241t-91.5 -222.5t-124.5 -184t-158.5 -125.5t-189 -46zM266 754h688q31 161 31 270q0 340 -248 340q-159 0 -280 -149.5 t-191 -460.5zM461 59q160 0 282 151t193 464h-688q-33 -172 -33 -277q0 -169 63.5 -253.5t182.5 -84.5z" />
<glyph unicode="&#x3b9;" horiz-adv-x="548" d="M145 289l172 811h91l-172 -809q-23 -108 6.5 -165.5t107.5 -57.5q22 0 49 6l-20 -86q-40 -4 -60 -4q-108 0 -157 75t-17 230z" />
<glyph unicode="&#x3ba;" horiz-adv-x="1052" d="M975 1126q61 0 110 -22l-34 -86q-50 20 -88 20q-78 0 -156 -75l-324 -320l367 -643h-109l-331 569l-152 -151l-88 -418h-92l233 1100h92l-118 -545l477 477q96 94 213 94z" />
<glyph unicode="&#x3bb;" horiz-adv-x="1124" d="M907 0h-96l-188 944l-574 -944h-98l649 1059l-27 131q-19 93 -54 135.5t-99 42.5q-46 0 -84 -14l2 80q58 20 108 20q86 0 139 -52t77 -173z" />
<glyph unicode="&#x3bc;" horiz-adv-x="1044" d="M-66 -399l320 1499h90l-162 -756q-28 -134 26.5 -210.5t172.5 -76.5q80 0 158.5 42t140.5 126.5t86 194.5l145 680h90l-172 -811q-41 -187 -18 -289h-88q-20 69 2 193q-52 -86 -152 -152t-217 -66q-90 0 -149.5 41t-81.5 113l-102 -528h-89z" />
<glyph unicode="&#x3bd;" horiz-adv-x="1159" d="M385 0l-207 1100h92l191 -996q151 122 310 389t210 506q15 81 16 101h97q-6 -40 -15 -86q-58 -273 -228 -559.5t-380 -454.5h-86z" />
<glyph unicode="&#x3be;" horiz-adv-x="880" d="M498 -406l-66 31q71 35 127.5 100.5t56.5 127.5q0 36 -24 63.5t-63 44.5t-88.5 35t-102 33.5t-102 42t-88.5 59t-63 86t-24 121.5q0 130 88 247t222 167q-60 31 -96.5 82t-36.5 116q0 121 80 230.5t217 160.5h-279l16 82h664l-18 -82h-156q-111 0 -211.5 -51.5 t-160.5 -136.5t-60 -180q0 -75 55 -127.5t156 -52.5h168l-17 -76h-170q-151 0 -260.5 -107t-109.5 -248q0 -59 24 -105t63 -74t89 -52t102.5 -39.5t102.5 -36t89 -42t63 -57t24 -81.5q0 -83 -58 -160t-153 -121z" />
<glyph unicode="&#x3bf;" horiz-adv-x="1060" d="M406 -27q-163 0 -250.5 97t-87.5 278q0 145 41 284t114 249t185 177.5t243 67.5q165 0 253.5 -96t88.5 -276q0 -116 -26 -229.5t-77 -212.5t-120.5 -175t-163.5 -120t-200 -44zM424 57q108 0 200 61.5t150.5 160t91.5 217.5t33 239q0 148 -67.5 227.5t-196.5 79.5 q-87 0 -163.5 -40t-132.5 -107.5t-96.5 -155t-60.5 -183.5t-20 -191q0 -148 67.5 -228t194.5 -80z" />
<glyph unicode="&#x3c0;" horiz-adv-x="1114" d="M887 -14q-132 -4 -177 66.5t-18 197.5l166 770h-489l-215 -1020h-91l218 1020h-168l16 80h1012l-17 -82h-176l-164 -772q-23 -106 10 -145.5t111 -39.5z" />
<glyph unicode="&#x3c1;" horiz-adv-x="1103" d="M-66 -399l203 950q58 273 206.5 424t352.5 151q164 0 252 -96t88 -276q0 -115 -25.5 -228t-76 -212.5t-119 -175.5t-161 -120.5t-195.5 -44.5q-126 0 -203.5 65t-97.5 187l-135 -624h-89zM469 57q108 0 200 61.5t150.5 160t91.5 217.5t33 239q0 148 -67.5 227.5 t-196.5 79.5q-87 0 -163.5 -40t-132.5 -107.5t-96.5 -155t-60.5 -183.5t-20 -191q0 -149 67 -228.5t195 -79.5z" />
<glyph unicode="&#x3c2;" horiz-adv-x="929" d="M510 -408l-72 33q75 50 122.5 118.5t47.5 139.5q0 56 -28 104.5t-72.5 86t-98.5 74t-108 76t-98.5 84.5t-72.5 107.5t-28 135.5q0 160 69.5 291.5t193.5 207.5t276 76q135 0 217.5 -74.5t87.5 -191.5l-90 -29q-8 97 -69 154t-160 57q-122 0 -222 -68.5t-154 -176.5 t-54 -228q0 -67 28 -123t73 -96.5t99.5 -77t109 -72.5t99.5 -75t73 -92.5t28 -116.5q0 -93 -55 -178t-142 -146z" />
<glyph unicode="&#x3c3;" horiz-adv-x="1087" d="M406 -27q-163 0 -250.5 97t-87.5 278q0 145 41 284t114 249t185 177.5t243 67.5h553l-18 -82l-318 -2q125 -84 125 -288q0 -116 -26 -229.5t-77 -212.5t-120.5 -175t-163.5 -120t-200 -44zM424 57q108 0 200 61.5t151.5 160t92.5 217.5t33 239q0 148 -68.5 227.5 t-197.5 79.5q-108 0 -199.5 -61t-150.5 -159t-92 -217.5t-33 -239.5q0 -148 68.5 -228t195.5 -80z" />
<glyph unicode="&#x3c4;" horiz-adv-x="739" d="M362 -27q-246 0 -182 306l158 739h-199l17 82h571l-16 -82h-285l-154 -725q-26 -123 1.5 -177.5t115.5 -54.5q79 0 170 48v-82q-97 -54 -197 -54z" />
<glyph unicode="&#x3c5;" horiz-adv-x="999" d="M358 -27q-167 0 -243 104.5t-37 274.5l160 748h88l-156 -744q-33 -136 21 -217.5t184 -81.5q87 0 161.5 49.5t125.5 132.5t87 191.5t53 225t17 235.5q0 110 -12 209h90q14 -104 14 -219q0 -140 -20.5 -270t-65 -247t-108 -203.5t-156 -137t-203.5 -50.5z" />
<glyph unicode="&#x3c6;" horiz-adv-x="1302" d="M406 -399l79 372q-191 12 -300 127.5t-109 302.5q0 192 84.5 353t234.5 259.5t336 110.5l62 289h88l-62 -289q192 -12 301 -127.5t109 -302.5q0 -138 -48 -265t-132 -225.5t-208 -161t-268 -71.5l-77 -372h-90zM502 55l211 989q-119 -10 -221.5 -65.5t-173 -141 t-110.5 -196t-40 -227.5q0 -158 88.5 -252.5t245.5 -106.5zM592 55q158 13 284 104.5t193.5 229.5t67.5 295t-88 252.5t-246 107.5z" />
<glyph unicode="&#x3c7;" horiz-adv-x="1155" d="M766 -221q25 -66 52.5 -89.5t64.5 -23.5q36 0 57 8l-20 -92q-24 -8 -66 -8q-122 0 -178 154l-191 540l-548 -667h-103l619 759l-195 551q-44 125 -119 125q-34 0 -61 -14l16 92q54 12 84 12q115 0 170 -161l182 -519l549 654h103l-619 -746z" />
<glyph unicode="&#x3c8;" horiz-adv-x="1208" d="M1130 834q0 -170 -41 -321t-117 -267.5t-193 -188.5t-261 -82l-80 -374h-90l80 374q-194 11 -285.5 130.5t-46.5 332.5l142 662h88l-140 -656q-37 -178 33 -276t227 -109l273 1282h90l-272 -1282q124 11 222 80t158.5 178t91.5 244t31 287q0 140 -28 252h88 q30 -117 30 -266z" />
<glyph unicode="&#x3c9;" horiz-adv-x="1626" d="M362 -27q-103 0 -172 45t-97.5 122.5t-31 182t26.5 224.5q57 269 215 553h88q-151 -280 -211 -553q-23 -105 -24.5 -191t19 -154.5t73 -106.5t133.5 -38q122 0 216 88.5t126 235.5l147 698h91l-148 -698q-32 -147 23.5 -235.5t177.5 -88.5q80 0 148.5 38t118.5 106.5 t85.5 154.5t58.5 191q59 286 21 553h90q38 -274 -18 -553q-27 -123 -72 -225t-108.5 -181t-150 -123.5t-188.5 -44.5q-112 0 -182 63t-90 167q-61 -104 -157 -167t-208 -63z" />
<glyph unicode="&#x3ca;" horiz-adv-x="548" d="M254 1305q-22 0 -36.5 15t-14.5 38q0 30 22 53t56 23q22 0 36.5 -14.5t14.5 -37.5q0 -31 -22.5 -54t-55.5 -23zM563 1305q-22 0 -36.5 15t-14.5 38q0 30 22 53t56 23q22 0 36.5 -14.5t14.5 -37.5q0 -31 -22.5 -54t-55.5 -23zM145 289l172 811h91l-172 -809 q-23 -108 6.5 -165.5t107.5 -57.5q22 0 49 6l-20 -86q-40 -4 -60 -4q-108 0 -157 75t-17 230z" />
<glyph unicode="&#x3cb;" horiz-adv-x="999" d="M453 1305q-22 0 -37 15t-15 38q0 30 22 53t56 23q22 0 36.5 -14.5t14.5 -37.5q0 -31 -22 -54t-55 -23zM762 1305q-22 0 -36.5 15t-14.5 38q0 31 21.5 53.5t55.5 22.5q22 0 37 -14.5t15 -37.5q0 -31 -22.5 -54t-55.5 -23zM358 -27q-167 0 -243 104.5t-37 274.5l160 748h88 l-156 -744q-33 -136 21 -217.5t184 -81.5q87 0 161.5 49.5t125.5 132.5t87 191.5t53 225t17 235.5q0 110 -12 209h90q14 -104 14 -219q0 -140 -20.5 -270t-65 -247t-108 -203.5t-156 -137t-203.5 -50.5z" />
<glyph unicode="&#x3cc;" horiz-adv-x="1060" d="M631 1210l155 367h93l-164 -367h-84zM406 -27q-163 0 -250.5 97t-87.5 278q0 145 41 284t114 249t185 177.5t243 67.5q165 0 253.5 -96t88.5 -276q0 -116 -26 -229.5t-77 -212.5t-120.5 -175t-163.5 -120t-200 -44zM424 57q108 0 200 61.5t150.5 160t91.5 217.5t33 239 q0 148 -67.5 227.5t-196.5 79.5q-87 0 -163.5 -40t-132.5 -107.5t-96.5 -155t-60.5 -183.5t-20 -191q0 -148 67.5 -228t194.5 -80z" />
<glyph unicode="&#x3cd;" horiz-adv-x="999" d="M547 1210l155 367h93l-164 -367h-84zM358 -27q-167 0 -243 104.5t-37 274.5l160 748h88l-156 -744q-33 -136 21 -217.5t184 -81.5q87 0 161.5 49.5t125.5 132.5t87 191.5t53 225t17 235.5q0 110 -12 209h90q14 -104 14 -219q0 -140 -20.5 -270t-65 -247t-108 -203.5 t-156 -137t-203.5 -50.5z" />
<glyph unicode="&#x3ce;" horiz-adv-x="1626" d="M905 1210l156 367h92l-164 -367h-84zM362 -27q-103 0 -172 45t-97.5 122.5t-31 182t26.5 224.5q57 269 215 553h88q-151 -280 -211 -553q-23 -105 -24.5 -191t19 -154.5t73 -106.5t133.5 -38q122 0 216 88.5t126 235.5l147 698h91l-148 -698q-32 -147 23.5 -235.5 t177.5 -88.5q80 0 148.5 38t118.5 106.5t85.5 154.5t58.5 191q59 286 21 553h90q38 -274 -18 -553q-27 -123 -72 -225t-108.5 -181t-150 -123.5t-188.5 -44.5q-112 0 -182 63t-90 167q-61 -104 -157 -167t-208 -63z" />
<glyph unicode="&#x401;" horiz-adv-x="1150" d="M664 1628q-22 0 -37 15t-15 38q0 30 22 53t56 23q22 0 36.5 -14t14.5 -37q0 -32 -22 -55t-55 -23zM973 1628q-22 0 -36.5 15t-14.5 38q0 31 21.5 53.5t55.5 22.5q22 0 37 -14t15 -37q0 -31 -22.5 -54.5t-55.5 -23.5zM96 0l303 1423h740l-21 -84h-647l-121 -577h568 l-21 -84h-565l-127 -594h704l-16 -84h-797z" />
<glyph unicode="&#x402;" horiz-adv-x="1458" d="M426 0l285 1339h-480l19 84h1048l-16 -84h-479l-150 -706q64 97 161.5 154t215.5 57q159 0 241.5 -85.5t82.5 -221.5q0 -154 -71 -277t-193.5 -191.5t-272.5 -68.5l14 82q120 0 218.5 61.5t153 161.5t54.5 215q0 106 -66 172t-192 66q-135 0 -249.5 -105.5t-147.5 -267.5 l-84 -385h-92z" />
<glyph unicode="&#x403;" horiz-adv-x="1044" d="M569 1575l-22 67l483 189l27 -74zM96 0l303 1423h734l-19 -84h-643l-283 -1339h-92z" />
<glyph unicode="&#x404;" horiz-adv-x="1253" d="M889 1450q169 0 271 -77t126 -189l-92 -35q-65 215 -311 215q-117 0 -221 -49t-181.5 -134t-133 -193.5t-85.5 -233.5h602l-18 -80h-600q-17 -107 -17 -191q0 -208 102 -316t277 -108q253 0 406 215l76 -34q-172 -267 -502 -267q-210 0 -332.5 128t-122.5 370 q0 151 33 294.5t98.5 267t155.5 217t211 147t258 53.5z" />
<glyph unicode="&#x405;" horiz-adv-x="1064" d="M438 -27q-145 0 -256.5 71.5t-146.5 176.5l90 39q30 -92 121 -146.5t207 -54.5q161 0 263.5 88t102.5 220q0 66 -32.5 119.5t-84.5 90t-114.5 70t-125 68t-114.5 74t-84.5 98t-32.5 131.5q0 192 136.5 312t345.5 120q143 0 238.5 -60.5t125.5 -164.5l-92 -37 q-25 84 -99.5 130t-183.5 46q-152 0 -260 -95.5t-108 -230.5q0 -64 32.5 -115.5t84 -87t114 -68t125 -66.5t114 -74t84 -100.5t32.5 -135.5q0 -183 -134 -300.5t-348 -117.5z" />
<glyph unicode="&#x406;" horiz-adv-x="516" d="M96 0l303 1423h93l-304 -1423h-92z" />
<glyph unicode="&#x407;" horiz-adv-x="516" d="M334 1628q-22 0 -36.5 15t-14.5 38q0 31 21.5 53.5t55.5 22.5q22 0 37 -14t15 -37q0 -31 -22.5 -54.5t-55.5 -23.5zM643 1628q-22 0 -36.5 15t-14.5 38q0 30 22 53t56 23q22 0 36.5 -14t14.5 -37q0 -31 -22.5 -54.5t-55.5 -23.5zM96 0l303 1423h93l-304 -1423h-92z" />
<glyph unicode="&#x408;" horiz-adv-x="892" d="M4 0l16 84h117q183 0 299 109t158 309l178 837h-407l18 84h500l-197 -921q-52 -241 -196 -371.5t-371 -130.5h-115z" />
<glyph unicode="&#x409;" horiz-adv-x="1847" d="M1395 762q164 0 247.5 -83.5t83.5 -211.5q0 -126 -66.5 -233.5t-180.5 -170.5t-248 -63h-506l285 1339h-469l-267 -977q-55 -197 -147 -279.5t-233 -82.5l16 84q104 0 170 64.5t106 216.5l287 1058h649l-141 -661h414zM1239 84q162 0 275.5 106.5t113.5 255.5 q0 100 -66 167t-196 67h-401l-127 -596h401z" />
<glyph unicode="&#x40a;" horiz-adv-x="2142" d="M1688 762q164 0 247.5 -83.5t83.5 -211.5q0 -126 -66.5 -233.5t-180.5 -170.5t-248 -63h-504l143 680h-831l-144 -680h-92l303 1423h93l-142 -661h832l141 661h92l-141 -661h414zM1532 84q162 0 275.5 106.5t113.5 255.5q0 100 -66 167t-196 67h-402l-127 -596h402z" />
<glyph unicode="&#x40b;" horiz-adv-x="1521" d="M424 0l285 1339h-478l19 84h1048l-18 -84h-479l-150 -706q63 94 167 152.5t212 58.5q154 0 235 -104.5t46 -266.5l-101 -473h-92l99 463q28 130 -35.5 211.5t-188.5 81.5q-133 0 -247 -106.5t-150 -272.5l-78 -377h-94z" />
<glyph unicode="&#x40c;" horiz-adv-x="1128" d="M1061 1757l-488 -182l-22 67l483 189zM1139 1450q58 0 94 -18l-35 -84q-36 16 -72 16q-48 0 -94.5 -30t-105.5 -111l-334 -455q70 -14 120.5 -59.5t77.5 -106t48 -142t33 -157t32.5 -160.5t46.5 -143h-106q-23 50 -41 129.5t-28.5 151.5t-30.5 149t-47 132.5t-78 91.5 t-123 36h-162l-146 -690h-92l303 1423h93l-140 -649h150l354 486q79 110 145 150t138 40z" />
<glyph unicode="&#x40e;" horiz-adv-x="1142" d="M768 1587q-101 0 -155 63t-29 185h75q-17 -83 14 -128.5t99 -45.5q66 0 117 45.5t69 128.5h76q-27 -124 -98 -186t-168 -62zM1153 1423h100l-708 -1134q-58 -93 -114 -153.5t-114 -93t-113.5 -44.5t-127.5 -12l12 86q53 0 95.5 9.5t91.5 35.5t99 79.5t101 135.5l8 12 l-219 1079h98l193 -964z" />
<glyph unicode="&#x40f;" horiz-adv-x="1404" d="M1380 1423l-303 -1423h-442l-66 -309h-86l66 309h-453l303 1423h93l-287 -1339h796l287 1339h92z" />
<glyph unicode="&#x410;" horiz-adv-x="1146" d="M891 0l-45 391h-613l-210 -391h-95l774 1423h115l168 -1423h-94zM279 475h557l-99 856z" />
<glyph unicode="&#x411;" horiz-adv-x="1216" d="M764 762q164 0 248 -83.5t84 -211.5q0 -126 -67 -233.5t-181 -170.5t-248 -63h-504l303 1423h582l-18 -84h-490l-123 -577h414zM608 84q162 0 275.5 106.5t113.5 255.5q0 100 -66 167t-196 67h-401l-127 -596h401z" />
<glyph unicode="&#x412;" horiz-adv-x="1181" d="M96 0l303 1423h377q22 0 41.5 -1t45.5 -4t48.5 -9t47 -15t44.5 -23t38.5 -32t31 -43t20 -54.5t7 -68t-9.5 -83.5q-29 -145 -108 -235.5t-185 -121.5v-2q43 -12 78 -35.5t65 -65t37.5 -99.5t-4.5 -138q-71 -393 -486 -393h-391zM350 766h271q148 0 243 79.5t127 231.5 q8 53 7.5 93t-17 69t-38 48t-54.5 30t-66.5 15.5t-74.5 4.5h-277zM205 84h287q164 0 257 72.5t125 228.5q31 145 -35.5 220t-224.5 75h-282z" />
<glyph unicode="&#x413;" horiz-adv-x="1044" d="M96 0l303 1423h734l-19 -84h-643l-283 -1339h-92z" />
<glyph unicode="&#x414;" horiz-adv-x="1452" d="M-150 -365l95 449h114q69 67 116.5 146t80.5 196l270 997h836l-287 -1339h144l-95 -449h-86l78 365h-1102l-77 -365h-87zM160 84h823l266 1255h-657l-254 -915q-58 -213 -178 -340z" />
<glyph unicode="&#x415;" horiz-adv-x="1150" d="M96 0l303 1423h740l-21 -84h-647l-121 -577h568l-21 -84h-565l-127 -594h704l-16 -84h-797z" />
<glyph unicode="&#x416;" horiz-adv-x="1738" d="M-55 0q51 58 108 143.5t101 161t100 157t108.5 142t123 105.5t147.5 57l-144 457q-26 81 -59.5 111t-79.5 30q-36 0 -82 -16v84q52 18 103 18q71 0 122 -40t85 -150l143 -486h151l140 649h92l-139 -649h151l352 486q77 109 144 149.5t137 40.5q55 0 96 -18l-35 -84 q-36 16 -73 16q-47 0 -93.5 -30t-105.5 -111l-336 -457q71 -12 122.5 -57t78 -105.5t48 -142t33.5 -157t32.5 -161t46.5 -143.5h-109q-22 50 -40 130t-28 151.5t-30.5 148.5t-47 132.5t-78.5 91.5t-124 36h-160l-145 -690h-92l145 690h-162q-72 0 -138.5 -36t-117 -91.5 t-103 -132.5t-93 -149t-92.5 -151.5t-97 -129.5h-106z" />
<glyph unicode="&#x417;" horiz-adv-x="1067" d="M416 -27q-91 0 -166 23.5t-123.5 63.5t-78.5 86t-42 96l90 39q28 -95 110.5 -158.5t219.5 -63.5q176 0 290.5 114t114.5 278q0 121 -89.5 183t-217.5 62h-186l18 80h185q178 0 294.5 104.5t116.5 266.5q0 100 -72.5 158.5t-177.5 58.5q-100 0 -194 -52t-160 -151l-78 35 q82 122 201.5 188t249.5 66q143 0 236.5 -77t93.5 -206q0 -147 -93 -270t-237 -156l-2 -2q28 -6 55.5 -18.5t56.5 -35t51 -52.5t36 -73t14 -93q0 -139 -64.5 -251.5t-183 -177.5t-268.5 -65z" />
<glyph unicode="&#x418;" horiz-adv-x="1409" d="M96 0l303 1423h93l-273 -1269l1069 1269h94l-303 -1423h-92l270 1272l-1067 -1272h-94z" />
<glyph unicode="&#x419;" horiz-adv-x="1409" d="M950 1587q-101 0 -155 63t-29 185h76q-17 -83 14 -128.5t98 -45.5q66 0 117.5 45.5t69.5 128.5h76q-27 -124 -98.5 -186t-168.5 -62zM96 0l303 1423h93l-273 -1269l1069 1269h94l-303 -1423h-92l270 1272l-1067 -1272h-94z" />
<glyph unicode="&#x41a;" horiz-adv-x="1128" d="M1139 1450q58 0 94 -18l-35 -84q-36 16 -72 16q-48 0 -94.5 -30t-105.5 -111l-334 -455q70 -14 120.5 -59.5t77.5 -106t48 -142t33 -157t32.5 -160.5t46.5 -143h-106q-23 50 -41 129.5t-28.5 151.5t-30.5 149t-47 132.5t-78 91.5t-123 36h-162l-146 -690h-92l303 1423h93 l-140 -649h150l354 486q79 110 145 150t138 40z" />
<glyph unicode="&#x41b;" horiz-adv-x="1146" d="M-106 0l16 84q104 0 170 64.5t106 216.5l287 1058h647l-303 -1423h-92l285 1339h-469l-267 -977q-55 -197 -147 -279.5t-233 -82.5z" />
<glyph unicode="&#x41c;" horiz-adv-x="1619" d="M96 0l303 1423h103l289 -960l700 960h102l-303 -1423h-92l266 1255l-657 -909h-82l-270 909l-267 -1255h-92z" />
<glyph unicode="&#x41d;" horiz-adv-x="1439" d="M96 0l303 1423h93l-142 -661h832l141 661h92l-303 -1423h-92l143 680h-831l-144 -680h-92z" />
<glyph unicode="&#x41e;" horiz-adv-x="1339" d="M547 -27q-187 0 -301.5 125.5t-114.5 354.5q0 149 30.5 293t92 271.5t147.5 224t204.5 152.5t254.5 56q202 0 311 -116t109 -345q0 -152 -30.5 -299t-92.5 -276.5t-148 -228t-205.5 -155.5t-256.5 -57zM567 59q113 0 213.5 54t173 146t126 210.5t80 250t26.5 263.5 q0 193 -89 287t-253 94q-119 0 -221.5 -54t-174 -144.5t-123 -208t-76 -245t-24.5 -255.5q0 -190 95 -294t247 -104z" />
<glyph unicode="&#x41f;" horiz-adv-x="1404" d="M96 0l303 1423h981l-303 -1423h-92l283 1339h-797l-283 -1339h-92z" />
<glyph unicode="&#x420;" horiz-adv-x="1091" d="M96 0l303 1423h375q188 0 273 -109.5t45 -299.5q-43 -204 -183 -322.5t-338 -118.5h-262l-121 -573h-92zM326 657h264q154 0 262.5 95t140.5 254q34 154 -33.5 243.5t-216.5 89.5h-272z" />
<glyph unicode="&#x421;" horiz-adv-x="1253" d="M588 -27q-210 0 -332.5 128t-122.5 370q0 151 33 294.5t98.5 267t155.5 217t211 147t258 53.5q169 0 271 -77t126 -189l-92 -35q-65 215 -311 215q-119 0 -225 -51t-183.5 -138t-134 -199.5t-85 -239t-28.5 -253.5q0 -208 102.5 -316t278.5 -108q253 0 406 215l76 -34 q-172 -267 -502 -267z" />
<glyph unicode="&#x422;" horiz-adv-x="1193" d="M426 0l283 1339h-478l19 84h1048l-18 -84h-479l-283 -1339h-92z" />
<glyph unicode="&#x423;" horiz-adv-x="1142" d="M1153 1423h100l-708 -1134q-58 -93 -114 -153.5t-114 -93t-113.5 -44.5t-127.5 -12l12 86q53 0 95.5 9.5t91.5 35.5t99 79.5t101 135.5l8 12l-219 1079h98l193 -964z" />
<glyph unicode="&#x424;" horiz-adv-x="1454" d="M559 -25l37 175h-27q-200 0 -323 115t-123 310q0 139 54.5 268t146.5 224t219.5 152t265.5 57h27l34 172h93l-35 -172h26q199 0 323 -116t124 -310q0 -139 -55 -268t-147 -223.5t-219 -151.5t-265 -57h-27l-37 -175h-92zM590 233h24l203 959h-24q-119 0 -227 -50.5 t-184 -133t-120.5 -192.5t-44.5 -226q0 -164 103.5 -260.5t269.5 -96.5zM707 233h24q158 0 291.5 85.5t208 223.5t74.5 294q0 164 -102.5 260t-268.5 96h-25z" />
<glyph unicode="&#x425;" horiz-adv-x="1280" d="M1331 1423l-600 -708l318 -715h-111l-285 641l-557 -641h-100l622 721l-313 702h113l278 -628l535 628h100z" />
<glyph unicode="&#x426;" horiz-adv-x="1415" d="M1001 -365l76 365h-981l303 1423h93l-287 -1339h796l287 1339h92l-286 -1339h88l-97 -449h-84z" />
<glyph unicode="&#x427;" horiz-adv-x="1155" d="M735 0l170 793q-64 -95 -169 -154t-214 -59q-154 0 -235.5 104t-46.5 266l102 473h92l-100 -462q-28 -130 35.5 -211.5t189.5 -81.5q139 0 250 103t145 265l84 387h92l-303 -1423h-92z" />
<glyph unicode="&#x428;" horiz-adv-x="2297" d="M96 0l303 1423h93l-287 -1339h796l287 1339h92l-286 -1339h798l287 1339h92l-303 -1423h-1872z" />
<glyph unicode="&#x429;" horiz-adv-x="2312" d="M2271 1423l-284 -1339h92l-94 -449h-82l75 365h-1882l303 1423h93l-287 -1339h796l287 1339h92l-286 -1339h798l287 1339h92z" />
<glyph unicode="&#x42a;" horiz-adv-x="1439" d="M985 762q164 0 248 -83.5t84 -211.5q0 -126 -67 -233.5t-181 -170.5t-248 -63h-504l285 1339h-409l18 84h502l-142 -661h414zM829 84q162 0 276 106.5t114 255.5q0 100 -66.5 167t-196.5 67h-401l-127 -596h401z" />
<glyph unicode="&#x42b;" horiz-adv-x="1642" d="M764 762q164 0 248 -83.5t84 -211.5q0 -126 -67 -233.5t-181 -170.5t-248 -63h-504l303 1423h93l-142 -661h414zM1526 1423h92l-303 -1423h-92zM608 84q162 0 275.5 106.5t113.5 255.5q0 100 -66 167t-196 67h-401l-127 -596h401z" />
<glyph unicode="&#x42c;" horiz-adv-x="1216" d="M764 762q164 0 248 -83.5t84 -211.5q0 -126 -67 -233.5t-181 -170.5t-248 -63h-504l303 1423h93l-142 -661h414zM608 84q162 0 275.5 106.5t113.5 255.5q0 100 -66 167t-196 67h-401l-127 -596h401z" />
<glyph unicode="&#x42d;" horiz-adv-x="1253" d="M733 1450q216 0 338 -134.5t115 -387.5q-5 -190 -60 -362t-150.5 -304t-237 -210.5t-308.5 -78.5q-169 0 -271 77t-126 190l92 34q32 -99 104.5 -157t208.5 -58q117 0 221.5 49t182 134t133 195t84.5 237h-606l18 80h604q15 103 15 166q6 218 -96 331t-281 113 q-253 0 -406 -215l-76 35q75 117 199 191.5t303 74.5z" />
<glyph unicode="&#x42e;" horiz-adv-x="1845" d="M1366 1450q202 0 311 -116t109 -345q0 -152 -30.5 -299t-92.5 -276.5t-148 -228t-205.5 -155.5t-256.5 -57q-187 0 -301.5 125.5t-114.5 354.5q0 113 18 227h-323l-144 -680h-92l303 1423h93l-142 -661h322q33 144 93.5 266.5t146.5 217.5t203 149.5t251 54.5zM1073 59 q113 0 213.5 54t173 146t126 210.5t80 250t26.5 263.5q0 193 -89 287t-253 94q-119 0 -221.5 -54t-174 -144.5t-123 -208t-76 -245t-24.5 -255.5q0 -190 95 -294t247 -104z" />
<glyph unicode="&#x42f;" horiz-adv-x="1155" d="M-35 0q54 61 130.5 167t133 186t137.5 163t160 127q-133 16 -201.5 98t-68.5 197q0 132 62.5 242t179.5 176.5t266 66.5h366l-303 -1423h-92l133 629h-123q-73 0 -142.5 -32.5t-123.5 -82.5t-111.5 -120.5t-101 -135t-98 -138.5t-96.5 -120h-107zM616 713h271l131 626 h-270q-109 0 -200 -54t-142.5 -142t-51.5 -189q0 -104 66.5 -172.5t195.5 -68.5z" />
<glyph unicode="&#x430;" horiz-adv-x="1120" d="M399 -27q-163 0 -246 99t-83 274q0 150 39 289.5t110 249t181.5 175.5t242.5 66q71 0 128.5 -23t93 -61.5t56 -82.5t25.5 -91l49 232h90l-180 -856q-22 -101 -22 -176q0 -38 6 -68h-92q-6 30 -6 68q0 70 20 168q-25 -49 -62.5 -93.5t-88.5 -83.5t-119 -62.5t-142 -23.5z M428 57q87 0 164 40.5t132.5 109t96 156.5t60.5 184.5t20 191.5q0 147 -67.5 225t-194.5 78q-86 0 -163 -40t-133 -107.5t-97 -154.5t-61.5 -183t-20.5 -190q0 -149 68.5 -229.5t195.5 -80.5z" />
<glyph unicode="&#x431;" horiz-adv-x="1060" d="M408 -27q-153 0 -238.5 96t-85.5 269q0 192 34 350t89.5 265t134 193.5t158.5 137t173.5 93t168.5 64.5t153 48t119 47l19 -74q-34 -19 -96.5 -41t-128.5 -43.5t-143.5 -51t-150.5 -71.5t-140 -96t-121.5 -133t-86.5 -174q75 106 176 160.5t205 54.5q137 0 227.5 -95.5 t90.5 -269.5q0 -134 -40 -264t-111 -233.5t-177.5 -167.5t-228.5 -64zM426 55q79 0 150.5 38t124.5 101.5t92 144.5t59 170t20 175q0 146 -69 222.5t-176 76.5q-77 0 -156 -43t-145.5 -120.5t-108 -199t-41.5 -264.5q0 -145 66.5 -223t183.5 -78z" />
<glyph unicode="&#x432;" horiz-adv-x="1069" d="M788 551q54 -29 83.5 -82t29.5 -117q0 -112 -58.5 -200t-153 -133.5t-204.5 -45.5q-82 0 -154 28t-128.5 83t-89.5 143.5t-33 200.5q0 124 37 245.5t106 223.5t180 165.5t246 63.5q148 0 238 -87t90 -203q0 -93 -49.5 -172t-139.5 -113zM637 1042q-87 0 -163.5 -37 t-132 -100.5t-94 -142t-57.5 -166.5h453q111 0 172.5 68t61.5 161q0 88 -66 152.5t-174 64.5zM498 57q123 0 213 79.5t90 217.5q0 72 -43 119t-125 47h-455q-6 -44 -6 -86q0 -182 95.5 -279.5t230.5 -97.5z" />
<glyph unicode="&#x433;" horiz-adv-x="956" d="M367 -27q-130 0 -214.5 70.5t-84.5 183.5q0 73 37.5 133t98 101t133.5 76.5t146 68t133.5 67.5t98 83.5t37.5 107.5q0 85 -62 132.5t-153 47.5q-87 0 -171 -43t-133 -122l-63 47q56 89 155 144.5t218 55.5q135 0 218 -68t83 -184q0 -73 -37.5 -133t-98 -101.5t-133.5 -78 t-146 -69.5t-133.5 -67.5t-98 -81t-37.5 -101.5q-1 -82 62 -134.5t159 -52.5q114 0 205 58.5t145 154.5l64 -43q-59 -110 -169 -181t-259 -71z" />
<glyph unicode="&#x434;" horiz-adv-x="1058" d="M346 1489q111 47 217 47q128 0 221.5 -76t140 -206t46.5 -298q0 -155 -19 -294t-63 -266.5t-110 -220t-166.5 -147.5t-225.5 -55q-154 0 -239 97t-85 272q0 137 40 268t110 233.5t174 165t223 62.5q97 0 168 -43t107 -127q1 160 -32.5 281t-110.5 195.5t-191 74.5 q-83 0 -195 -45zM403 55q102 0 190 60t144 155t87.5 207.5t31.5 222.5q0 141 -65 215t-187 74q-103 0 -190.5 -58t-143 -151.5t-86 -207t-30.5 -228.5q0 -140 64 -214.5t185 -74.5z" />
<glyph unicode="&#x435;" horiz-adv-x="995" d="M442 59q104 0 205.5 56t165.5 157l68 -45q-69 -119 -187.5 -186.5t-271.5 -67.5q-160 0 -255 107.5t-95 292.5q0 112 25.5 222t76 205.5t118.5 168.5t158.5 115t190.5 42q123 0 188.5 -56t65.5 -142q0 -56 -26 -115t-78.5 -115t-124 -100t-171.5 -71t-212 -27 q-51 0 -107 6q-8 -49 -8 -113q0 -156 71 -245t203 -89zM627 1042q-79 0 -151 -37.5t-126.5 -101t-94.5 -145t-62 -172.5q49 -6 96 -6q116 0 216.5 32.5t163.5 82.5t98.5 107t35.5 109q0 58 -45 94.5t-131 36.5z" />
<glyph unicode="&#x436;" horiz-adv-x="1798" d="M1673 1126q92 0 156 -36l-17 -86q-52 38 -143 38q-99 0 -188.5 -61t-149 -156.5t-94.5 -210.5t-35 -225q0 -154 69 -243t189 -89q94 0 174 45l-18 -86q-87 -43 -184 -43q-147 0 -233.5 106t-86.5 288q0 83 14 157h-190l-111 -524h-90l111 524h-184q-35 -148 -108.5 -271 t-186.5 -201.5t-242 -78.5q-90 0 -156 37l17 86q56 -39 143 -39q99 0 188.5 61t149 157t94.5 211t35 225q0 154 -69 242.5t-189 88.5q-94 0 -174 -45l18 86q87 43 185 43q147 0 233 -105.5t86 -287.5q0 -55 -10 -127h186l107 494h90l-107 -494h193q28 105 78 198 t116.5 165.5t153 114.5t180.5 42z" />
<glyph unicode="&#x437;" horiz-adv-x="976" d="M350 -27q-149 0 -235 64.5t-111 155.5l92 34q23 -71 91.5 -120.5t181.5 -49.5q129 0 229 85.5t100 205.5q0 90 -76.5 137t-183.5 47h-157l16 70h162q140 0 234.5 75t94.5 195q0 76 -59.5 122t-148.5 46q-83 0 -159.5 -38t-127.5 -111l-84 31q68 95 170.5 149.5 t218.5 54.5q124 0 205.5 -61.5t81.5 -165.5q0 -114 -76 -206t-193 -120v-2q30 -6 59 -20t57 -38t45.5 -62.5t17.5 -85.5q0 -164 -131.5 -278t-313.5 -114z" />
<glyph unicode="&#x438;" horiz-adv-x="1026" d="M330 -27q-151 0 -220 101.5t-36 257.5l164 768h88l-160 -756q-29 -135 25 -211t174 -76q124 0 237 99.5t148 263.5l143 680h90l-172 -811q-40 -182 -16 -289h-90q-20 69 2 193q-56 -88 -157.5 -154t-219.5 -66z" />
<glyph unicode="&#x439;" horiz-adv-x="1026" d="M657 1264q-101 0 -155 62.5t-29 184.5h76q-17 -83 14 -128.5t99 -45.5q66 0 117 45.5t69 128.5h76q-27 -124 -98.5 -185.5t-168.5 -61.5zM330 -27q-151 0 -220 101.5t-36 257.5l164 768h88l-160 -756q-29 -135 25 -211t174 -76q124 0 237 99.5t148 263.5l143 680h90 l-172 -811q-40 -182 -16 -289h-90q-20 69 2 193q-56 -88 -157.5 -154t-219.5 -66z" />
<glyph unicode="&#x43a;" horiz-adv-x="1013" d="M952 1126q45 0 86 -18l-37 -78q-33 14 -59 14q-84 0 -168 -106l-270 -338q70 -14 116.5 -60t71 -114.5t40 -138.5t37 -152t48.5 -135h-106q-20 38 -37 98t-27 114.5t-28 113.5t-41 101t-66 69.5t-102 27.5h-134l-110 -524h-88l233 1100h88l-104 -494h121l286 367 q68 87 128.5 120t121.5 33z" />
<glyph unicode="&#x43b;" horiz-adv-x="1077" d="M-92 -8l18 80q87 0 141.5 49t86.5 162l223 817h624l-233 -1100h-90l217 1020h-449l-204 -735q-44 -159 -125.5 -226t-208.5 -67z" />
<glyph unicode="&#x43c;" horiz-adv-x="1388" d="M78 0l233 1100h111l229 -738l551 738h109l-234 -1100h-90l203 958l-520 -704h-80l-219 704l-203 -958h-90z" />
<glyph unicode="&#x43d;" horiz-adv-x="1255" d="M78 0l233 1100h88l-106 -502h688l106 502h91l-234 -1100h-90l111 518h-689l-110 -518h-88z" />
<glyph unicode="&#x43e;" horiz-adv-x="1060" d="M406 -27q-163 0 -250.5 97t-87.5 278q0 145 41 284t114 249t185 177.5t243 67.5q165 0 253.5 -96t88.5 -276q0 -116 -26 -229.5t-77 -212.5t-120.5 -175t-163.5 -120t-200 -44zM424 57q108 0 200 61.5t150.5 160t91.5 217.5t33 239q0 148 -67.5 227.5t-196.5 79.5 q-87 0 -163.5 -40t-132.5 -107.5t-96.5 -155t-60.5 -183.5t-20 -191q0 -148 67.5 -228t194.5 -80z" />
<glyph unicode="&#x43f;" horiz-adv-x="1144" d="M78 0l233 1100h88l-41 -185q51 83 147 147t210 64q159 0 235.5 -110.5t32.5 -317.5l-149 -698h-89l146 686q37 171 -25 262.5t-186 91.5q-119 0 -227 -98t-144 -274l-143 -668h-88z" />
<glyph unicode="&#x440;" horiz-adv-x="1159" d="M-8 -399l319 1499h88l-51 -242q25 46 60.5 89.5t86.5 85.5t121.5 67.5t149.5 25.5q157 0 241.5 -93.5t84.5 -272.5q0 -116 -25 -229.5t-74.5 -214t-117 -177.5t-159.5 -121.5t-196 -44.5q-63 0 -114 18t-83.5 44.5t-56 62.5t-35 68t-16.5 65l-135 -630h-88zM522 55 q86 0 163 41t133 109.5t97 157t61.5 185.5t20.5 193q0 149 -67.5 226t-196.5 77q-155 0 -280 -139.5t-172 -369.5q-22 -103 -17.5 -190.5t30.5 -152t84.5 -101t143.5 -36.5z" />
<glyph unicode="&#x441;" horiz-adv-x="974" d="M401 -27q-153 0 -242 109t-89 293q0 105 26.5 212.5t78 203.5t119.5 171t159 119.5t190 44.5q131 0 212 -74t87 -192l-86 -29q-9 97 -70 154t-153 57q-98 0 -187.5 -60t-150.5 -154.5t-97 -210.5t-36 -228q0 -153 68.5 -241.5t189.5 -88.5q99 0 190.5 56t151.5 153 l74 -30q-60 -114 -175.5 -189.5t-259.5 -75.5z" />
<glyph unicode="&#x442;" horiz-adv-x="1765" d="M78 0l233 1100h88l-41 -185q52 84 144 147.5t205 63.5q106 0 174.5 -54t89.5 -167q64 100 161 160.5t209 60.5q154 0 231 -109.5t32 -318.5l-148 -698h-90l145 688q36 171 -22.5 261.5t-175.5 90.5q-116 0 -219.5 -97t-141.5 -275l-141 -668h-90l147 686 q36 171 -23.5 262.5t-176.5 91.5q-116 0 -219.5 -97.5t-139.5 -274.5l-143 -668h-88z" />
<glyph unicode="&#x443;" horiz-adv-x="1026" d="M975 1100h98l-680 -1202q-184 -324 -510 -324l11 86q53 0 106 14t108.5 44t109 84t95.5 126l39 68l-180 1104h96l160 -969z" />
<glyph unicode="&#x444;" horiz-adv-x="1259" d="M381 -399l86 399q-182 12 -287.5 119.5t-105.5 288.5q0 133 47.5 255.5t129.5 215t199 152t250 69.5l93 436h88l-93 -436q184 -12 290 -119.5t106 -288.5q0 -185 -81.5 -339t-225 -247.5t-322.5 -105.5l-86 -399h-88zM483 82l199 936q-114 -8 -211.5 -61.5t-163.5 -136 t-103.5 -187.5t-37.5 -217q0 -152 84 -237.5t233 -96.5zM573 82q153 11 272.5 97.5t182 218.5t62.5 284q0 151 -84.5 238t-233.5 98z" />
<glyph unicode="&#x445;" horiz-adv-x="948" d="M995 1100l-465 -541l240 -559h-108l-205 477l-404 -477h-108l477 557l-232 543h107l199 -463l391 463h108z" />
<glyph unicode="&#x446;" horiz-adv-x="1026" d="M811 289q-25 -116 -25 -205h86l-94 -449h-82l76 365h-67q-20 69 2 193q-56 -88 -157.5 -154t-219.5 -66q-151 0 -220 101.5t-36 257.5l164 768h88l-160 -756q-29 -135 25 -211t174 -76q124 0 237 99.5t148 263.5l143 680h90z" />
<glyph unicode="&#x447;" horiz-adv-x="980" d="M580 0l120 571q-62 -77 -150.5 -118t-176.5 -41q-57 0 -104.5 17.5t-82.5 53t-47.5 89.5t0.5 128l86 400h90l-82 -387q-23 -106 27.5 -162.5t142.5 -56.5q110 0 210 73.5t128 200.5l72 332h92l-233 -1100h-92z" />
<glyph unicode="&#x448;" horiz-adv-x="1740" d="M1677 1100l-233 -1100h-88l39 184q-52 -84 -143.5 -147.5t-202.5 -63.5q-215 0 -258 230q-64 -102 -165 -166t-212 -64q-154 0 -231.5 109.5t-32.5 318.5l147 699h90l-145 -688q-36 -171 23 -262t175 -91t219.5 97.5t141.5 275.5l141 668h90l-145 -686q-36 -171 23 -263 t175 -92t219.5 98t141.5 275l141 668h90z" />
<glyph unicode="&#x449;" horiz-adv-x="1740" d="M1677 1100l-215 -1016h80l-94 -449h-82l76 365h-86l39 184q-52 -84 -143.5 -147.5t-202.5 -63.5q-215 0 -258 230q-64 -102 -165 -166t-212 -64q-154 0 -231.5 109.5t-32.5 318.5l147 699h90l-145 -688q-36 -171 23 -262t175 -91t219.5 97.5t141.5 275.5l141 668h90 l-145 -686q-36 -171 23 -263t175 -92t219.5 98t141.5 275l141 668h90z" />
<glyph unicode="&#x44a;" horiz-adv-x="1247" d="M831 604q125 0 190.5 -67t65.5 -168q0 -151 -113.5 -260t-271.5 -109h-434l217 1020h-340l17 80h428l-105 -496h346zM711 80q65 0 119.5 25.5t89.5 65t54 86.5t19 93q0 75 -47 124.5t-141 49.5h-338l-94 -444h338z" />
<glyph unicode="&#x44b;" horiz-adv-x="1413" d="M641 604q125 0 190.5 -67t65.5 -168q0 -151 -113.5 -260t-271.5 -109h-434l233 1100h88l-104 -496h346zM1249 1100h88l-233 -1100h-88zM520 80q85 0 152 43.5t99 104t32 122.5q0 75 -47.5 124.5t-141.5 49.5h-338l-94 -444h338z" />
<glyph unicode="&#x44c;" horiz-adv-x="1056" d="M641 604q125 0 190.5 -67t65.5 -168q0 -151 -113.5 -260t-271.5 -109h-434l233 1100h88l-104 -496h346zM520 80q85 0 152 43.5t99 104t32 122.5q0 75 -47.5 124.5t-141.5 49.5h-338l-94 -444h338z" />
<glyph unicode="&#x44d;" horiz-adv-x="1032" d="M567 1126q179 0 286.5 -105t107.5 -298q0 -152 -47 -289t-129 -239t-202 -162t-259 -60t-224 63.5t-110 151.5l88 35q22 -71 88.5 -118.5t171.5 -47.5q188 0 322 129.5t182 327.5h-506l14 70h506q10 68 10 125q0 163 -85 248t-232 85q-106 0 -197 -50t-141 -120l-72 37 q58 88 173.5 152.5t254.5 64.5z" />
<glyph unicode="&#x44e;" horiz-adv-x="1540" d="M1130 1126q165 0 254 -96t89 -276q0 -146 -41.5 -285.5t-116 -250t-187 -178t-243.5 -67.5q-163 0 -250.5 97t-87.5 278q0 91 14 168h-287l-108 -516h-88l233 1100h88l-106 -504h285q27 110 77 205t118.5 168t160.5 115t196 42zM903 57q108 0 200 61.5t150.5 160 t91.5 217.5t33 239q0 148 -67.5 227.5t-196.5 79.5q-87 0 -163.5 -40t-132.5 -107.5t-96.5 -155t-60.5 -183.5t-20 -191q0 -148 67.5 -228t194.5 -80z" />
<glyph unicode="&#x44f;" horiz-adv-x="1024" d="M-33 0q51 53 134.5 163.5t161.5 196.5t159 132q-107 16 -164 83t-57 156q0 157 117 263t292 106h338l-233 -1100h-90l100 473h-100q-61 0 -118 -24.5t-101 -61.5t-91 -90t-82 -101.5t-79 -104.5t-78 -91h-109zM516 555h225l99 463h-228q-75 0 -137 -25t-100.5 -65.5 t-59 -89.5t-20.5 -99q0 -79 56.5 -131.5t164.5 -52.5z" />
<glyph unicode="&#x451;" horiz-adv-x="995" d="M516 1305q-22 0 -36.5 15t-14.5 38q0 30 22 53t56 23q22 0 36.5 -14.5t14.5 -37.5q0 -31 -22.5 -54t-55.5 -23zM825 1305q-22 0 -36.5 15t-14.5 38q0 30 22 53t56 23q22 0 36.5 -14.5t14.5 -37.5q0 -31 -22.5 -54t-55.5 -23zM283 500q-51 0 -107 6q-8 -49 -8 -113 q0 -156 71 -245t203 -89q104 0 205.5 56t165.5 157l68 -45q-69 -119 -187.5 -186.5t-271.5 -67.5q-160 0 -255 107.5t-95 292.5q0 112 25.5 222t76 205.5t118.5 168.5t158.5 115t190.5 42q123 0 188.5 -56t65.5 -142q0 -56 -26 -115t-78.5 -115t-124 -100t-171.5 -71 t-212 -27zM627 1042q-79 0 -151 -37.5t-126.5 -101t-94.5 -145t-62 -172.5q49 -6 96 -6q116 0 216.5 32.5t163.5 82.5t98.5 107t35.5 109q0 58 -45 94.5t-131 36.5z" />
<glyph unicode="&#x452;" horiz-adv-x="1069" d="M700 1126q156 0 233 -111t30 -323l-160 -753q-21 -100 -57 -168t-86 -104t-104.5 -51t-125.5 -15l19 80q106 0 169.5 54t94.5 197l159 754q36 172 -24.5 263t-181.5 91q-75 0 -148.5 -39.5t-135.5 -126.5t-87 -206l-141 -668h-91l287 1352h-172l17 71h170l24 113h90 l-24 -113h266l-16 -71h-265l-94 -437q51 83 144.5 147t209.5 64z" />
<glyph unicode="&#x453;" horiz-adv-x="956" d="M403 1251l-22 68l483 188l27 -73zM367 -27q-130 0 -214.5 70.5t-84.5 183.5q0 73 37.5 133t98 101t133.5 76.5t146 68t133.5 67.5t98 83.5t37.5 107.5q0 85 -62 132.5t-153 47.5q-87 0 -171 -43t-133 -122l-63 47q56 89 155 144.5t218 55.5q135 0 218 -68t83 -184 q0 -73 -37.5 -133t-98 -101.5t-133.5 -78t-146 -69.5t-133.5 -67.5t-98 -81t-37.5 -101.5q-1 -82 62 -134.5t159 -52.5q114 0 205 58.5t145 154.5l64 -43q-59 -110 -169 -181t-259 -71z" />
<glyph unicode="&#x454;" horiz-adv-x="1030" d="M711 1126q138 0 223 -64t110 -151l-90 -34q-20 70 -87 117.5t-173 47.5q-187 0 -321.5 -129.5t-182.5 -328.5h506l-14 -70h-504q-10 -68 -10 -123q0 -163 85 -248.5t230 -85.5q106 0 197 49.5t143 120.5l72 -37q-58 -88 -173.5 -152.5t-256.5 -64.5q-179 0 -286 105 t-107 299q0 152 47 289t129.5 238.5t202.5 161.5t260 60z" />
<glyph unicode="&#x455;" horiz-adv-x="917" d="M393 -27q-155 0 -255 68.5t-122 183.5l78 43q20 -99 99.5 -156t201.5 -57t198.5 66t76.5 178q0 52 -27 92t-71 66t-96.5 49t-105 49t-96.5 57t-71 81t-27 114q0 148 99 233.5t255 85.5q124 0 221 -57.5t117 -142.5l-75 -47q-21 73 -100.5 119t-168.5 46 q-109 0 -181.5 -62.5t-72.5 -160.5q0 -53 27.5 -94t71 -68t96.5 -50.5t106 -49t96.5 -56t71 -78.5t27.5 -110q0 -158 -104 -250t-269 -92z" />
<glyph unicode="&#x456;" horiz-adv-x="477" d="M422 1405q-25 0 -41 19.5t-10 48.5q6 30 29.5 48.5t50.5 18.5t43 -18.5t10 -48.5q-6 -29 -30 -48.5t-52 -19.5zM78 0l233 1100h88l-233 -1100h-88z" />
<glyph unicode="&#x457;" horiz-adv-x="477" d="M246 1305q-22 0 -36.5 15t-14.5 38q0 31 21.5 53.5t55.5 22.5q22 0 37 -14.5t15 -37.5q0 -31 -22.5 -54t-55.5 -23zM555 1305q-22 0 -36.5 15t-14.5 38q0 30 22 53t56 23q22 0 36.5 -14.5t14.5 -37.5q0 -31 -22.5 -54t-55.5 -23zM78 0l233 1100h88l-233 -1100h-88z" />
<glyph unicode="&#x458;" horiz-adv-x="473" d="M420 1405q-25 0 -41 19.5t-10 48.5q6 30 29.5 48.5t50.5 18.5t43 -18.5t10 -48.5q-6 -29 -30 -48.5t-52 -19.5zM-227 -426l16 80q108 0 171.5 54.5t94.5 197.5l254 1194h90l-254 -1188q-21 -100 -56 -168t-84.5 -104.5t-104.5 -51t-127 -14.5z" />
<glyph unicode="&#x459;" horiz-adv-x="1658" d="M1243 604q125 0 190.5 -67t65.5 -168q0 -151 -113.5 -260t-271.5 -109h-436l217 1020h-449l-204 -735q-44 -159 -125.5 -226t-208.5 -67l18 80q87 0 141.5 49t86.5 162l223 817h624l-104 -496h346zM1122 80q85 0 152 43.5t99 104t32 122.5q0 75 -47 124.5t-141 49.5h-338 l-95 -444h338z" />
<glyph unicode="&#x45a;" horiz-adv-x="1835" d="M1419 604q125 0 190.5 -67t65.5 -168q0 -151 -113.5 -260t-271.5 -109h-436l111 518h-689l-110 -518h-88l233 1100h88l-106 -502h688l106 502h91l-105 -496h346zM1298 80q85 0 152 43.5t99 104t32 122.5q0 75 -47 124.5t-141 49.5h-338l-94 -444h337z" />
<glyph unicode="&#x45b;" horiz-adv-x="1144" d="M715 1126q159 0 235.5 -110.5t32.5 -317.5l-149 -698h-89l146 686q37 171 -25 262.5t-186 91.5q-119 0 -227 -98t-144 -274l-143 -668h-88l287 1350h-172l16 71h170l24 115h89l-25 -115h268l-16 -71h-266l-93 -435q51 83 146.5 147t208.5 64z" />
<glyph unicode="&#x45c;" horiz-adv-x="1013" d="M924 1434l-488 -183l-22 68l483 188zM952 1126q45 0 86 -18l-37 -78q-33 14 -59 14q-84 0 -168 -106l-270 -338q70 -14 116.5 -60t71 -114.5t40 -138.5t37 -152t48.5 -135h-106q-20 38 -37 98t-27 114.5t-28 113.5t-41 101t-66 69.5t-102 27.5h-134l-110 -524h-88 l233 1100h88l-104 -494h121l286 367q68 87 128.5 120t121.5 33z" />
<glyph unicode="&#x45e;" horiz-adv-x="1026" d="M672 1264q-101 0 -155.5 62.5t-29.5 184.5h76q-17 -83 14 -128.5t99 -45.5q66 0 117 45.5t69 128.5h76q-27 -124 -98 -185.5t-168 -61.5zM975 1100h98l-680 -1202q-184 -324 -510 -324l11 86q53 0 106 14t108.5 44t109 84t95.5 126l39 68l-180 1104h96l160 -969z" />
<glyph unicode="&#x45f;" horiz-adv-x="1026" d="M330 -27q-151 0 -220 101.5t-36 257.5l164 768h88l-160 -756q-29 -135 25 -211t174 -76q124 0 237 99.5t148 263.5l143 680h90l-172 -811q-40 -182 -16 -289h-90q-20 69 2 193q-56 -88 -157.5 -154t-219.5 -66zM254 -365l55 263h86l-57 -263h-84z" />
<glyph unicode="&#x462;" horiz-adv-x="1277" d="M825 762q164 0 248 -83.5t84 -211.5q0 -126 -66.5 -233.5t-180.5 -170.5t-248 -63h-504l248 1161h-285l18 80h283l39 182h92l-39 -182h307l-16 -80h-307l-86 -399h413zM670 84q162 0 275.5 106.5t113.5 255.5q0 100 -66 167t-196 67h-402l-127 -596h402z" />
<glyph unicode="&#x463;" horiz-adv-x="1058" d="M643 600q125 0 189.5 -67t64.5 -168q0 -151 -109.5 -258t-271.5 -107h-313l217 1020h-275l17 80h274l92 436h90l-92 -436h277l-19 -80h-274l-90 -420h223zM514 80q130 0 210.5 84.5t80.5 183.5q0 73 -48 121.5t-141 48.5h-213l-94 -438h205z" />
<glyph unicode="&#x472;" horiz-adv-x="1339" d="M860 1450q202 0 311 -116t109 -345q0 -152 -30.5 -299t-92.5 -276.5t-148 -228t-205.5 -155.5t-256.5 -57q-187 0 -301.5 125.5t-114.5 354.5q0 149 30.5 293t92 271.5t147.5 224t204.5 152.5t254.5 56zM844 1364q-119 0 -221.5 -54t-175 -147t-122 -208.5t-75.5 -247.5 q93 90 219 90q95 0 238.5 -42t238.5 -42q79 0 142.5 35t89.5 96q8 63 8 139q0 193 -89 287t-253 94zM567 59q111 0 209.5 52t172 141.5t126 204t80.5 245.5q-93 -77 -227 -77q-85 0 -167 21t-158 42t-148 21q-73 0 -136.5 -38.5t-87.5 -92.5q-6 -62 -6 -121q0 -190 95 -294 t247 -104z" />
<glyph unicode="&#x473;" horiz-adv-x="1060" d="M651 1126q165 0 253.5 -96t88.5 -276q0 -116 -26 -229.5t-77 -212.5t-120.5 -175t-163.5 -120t-200 -44q-163 0 -250.5 97t-87.5 278q0 145 41 284t114 249t185 177.5t243 67.5zM635 1042q-114 0 -210 -69.5t-155 -176t-88 -237.5q72 62 162 59q71 -1 183.5 -33 t187.5 -32q57 0 106 25t74 67q4 62 4 90q0 148 -67.5 227.5t-196.5 79.5zM424 57q86 0 162.5 39.5t133 107.5t96.5 153t61 182q-69 -60 -177 -60q-80 0 -191 34t-179 32q-53 -1 -97.5 -26.5t-66.5 -63.5q-4 -58 -4 -90q0 -148 67.5 -228t194.5 -80z" />
<glyph unicode="&#x474;" horiz-adv-x="1255" d="M420 0l-199 1423h101l178 -1312l620 1116q63 117 118.5 164t123.5 47q37 0 72 -13l-33 -88q-27 9 -45 9q-39 0 -73 -30.5t-87 -121.5l-670 -1194h-106z" />
<glyph unicode="&#x475;" horiz-adv-x="1122" d="M344 0l-166 1100h103l141 -975l469 815q54 95 102.5 132.5t110.5 37.5q20 0 65 -10l-30 -88q-27 10 -41 10q-34 0 -63 -24.5t-68 -94.5l-525 -903h-98z" />
<glyph unicode="&#x490;" horiz-adv-x="1052" d="M1110 1681h84l-80 -342h-643l-283 -1339h-92l303 1423h650z" />
<glyph unicode="&#x491;" horiz-adv-x="1054" d="M78 0l233 1100h590l53 243h82l-69 -323h-584l-217 -1020h-88z" />
<glyph unicode="&#x492;" horiz-adv-x="1044" d="M1114 1339h-643l-123 -585h344l-16 -80h-346l-142 -674h-92l144 674h-226l17 80h225l143 669h734z" />
<glyph unicode="&#x493;" horiz-adv-x="870" d="M883 1020h-445l-88 -414h256l-16 -71h-254l-115 -535h-90l113 535h-181l17 71h180l105 494h536z" />
<glyph unicode="&#x496;" horiz-adv-x="1738" d="M1440 -365l78 365h-64q-22 50 -40 130t-28 151.5t-30.5 148.5t-47 132.5t-78.5 91.5t-124 36h-160l-145 -690h-92l145 690h-162q-72 0 -138.5 -36t-117 -91.5t-103 -132.5t-93 -149t-92.5 -151.5t-97 -129.5h-106q51 58 108 143.5t101 161t100 157t108.5 142t123 105.5 t147.5 57l-144 457q-26 81 -59.5 111t-79.5 30q-36 0 -82 -16v84q52 18 103 18q71 0 122 -40t85 -150l143 -486h151l140 649h92l-139 -649h151l352 486q77 109 144 149.5t137 40.5q55 0 96 -18l-35 -84q-36 16 -73 16q-47 0 -93.5 -30t-105.5 -111l-336 -457 q65 -10 113 -48.5t75 -89.5t48.5 -124t32.5 -138t28 -146.5t35 -135.5h86l-94 -449h-86z" />
<glyph unicode="&#x497;" horiz-adv-x="1546" d="M1323 -352l74 344q-63 -17 -115 -17q-140 0 -222.5 105t-82.5 287q0 86 16 157h-135l-110 -524h-91l111 524h-127q-34 -147 -107.5 -270t-186.5 -202t-241 -79q-89 0 -155 37l16 86q56 -39 144 -39q99 0 188.5 61t149 157t94.5 211t35 225q0 154 -69.5 242.5t-189.5 88.5 q-94 0 -174 -45l19 86q90 43 184 43q147 0 233.5 -105.5t86.5 -287.5q0 -48 -11 -127h129l105 494h90l-107 -494h136q27 104 76.5 197t116 165.5t153 115t180.5 42.5q92 0 156 -36l-17 -86q-52 38 -143 38q-99 0 -188 -61t-148.5 -156.5t-94 -210.5t-34.5 -225 q0 -154 68.5 -243t189.5 -89q91 0 174 45l-98 -454h-78z" />
<glyph unicode="&#x498;" horiz-adv-x="1067" d="M719 739q28 -6 55.5 -18.5t56.5 -35t51 -52.5t36 -73t14 -93q0 -193 -122.5 -330t-322.5 -160q-13 -52 -29 -93t-43.5 -81t-63 -66.5t-88.5 -42.5t-118 -16l17 74q103 0 157.5 59.5t81.5 161.5q-88 2 -159.5 26.5t-118.5 64t-76 84.5t-41 94l90 39q28 -95 110.5 -158.5 t219.5 -63.5q176 0 290.5 114t114.5 278q0 121 -89.5 183t-217.5 62h-186l18 80h185q178 0 294.5 104.5t116.5 266.5q0 100 -72.5 158.5t-177.5 58.5q-100 0 -194 -52t-160 -151l-78 35q82 122 201.5 188t249.5 66q143 0 236.5 -77t93.5 -206q0 -147 -93 -270t-237 -156z " />
<glyph unicode="&#x499;" horiz-adv-x="976" d="M616 571q30 -6 59 -20t57 -38t45.5 -62.5t17.5 -85.5q0 -142 -100.5 -248.5t-252.5 -134.5q-13 -53 -29 -94.5t-43 -82t-62.5 -67.5t-88.5 -43.5t-119 -16.5l17 74q103 0 157.5 59.5t79.5 161.5h-4q-149 0 -235 64.5t-111 155.5l92 34q23 -71 91.5 -120.5t181.5 -49.5 q129 0 229 85.5t100 205.5q0 90 -76.5 137t-183.5 47h-157l16 70h162q140 0 234.5 75t94.5 195q0 76 -59.5 122t-148.5 46q-83 0 -159.5 -38t-127.5 -111l-84 31q68 95 170.5 149.5t218.5 54.5q124 0 205.5 -61.5t81.5 -165.5q0 -114 -76 -206t-193 -120v-2z" />
<glyph unicode="&#x49a;" horiz-adv-x="1126" d="M834 -365l77 365h-67q-23 50 -41 129.5t-28.5 151.5t-30.5 149t-47 132.5t-78 91.5t-123 36h-162l-146 -690h-92l303 1423h93l-140 -649h152l352 486q77 110 143.5 150t139.5 40q58 0 94 -18l-35 -84q-36 16 -72 16q-48 0 -94.5 -30t-105.5 -111l-336 -457 q65 -10 112.5 -48.5t74.5 -89.5t48.5 -124t33 -138t28.5 -146.5t35 -135.5h90l-94 -449h-84z" />
<glyph unicode="&#x49b;" horiz-adv-x="1011" d="M950 1126q45 0 86 -18l-37 -78q-33 14 -59 14q-84 0 -168 -106l-270 -338q62 -12 105 -49t68.5 -96t40.5 -114t32.5 -134.5t33.5 -126.5h86l-94 -445h-84l78 365h-61q-20 38 -36.5 98t-26 114.5t-27.5 113.5t-41 101t-66 69.5t-102 27.5h-134l-110 -524h-90l233 1100h90 l-104 -494h121l286 367q67 87 127 120t123 33z" />
<glyph unicode="&#x4a0;" horiz-adv-x="1361" d="M1372 1450q58 0 94 -18l-34 -84q-36 16 -72 16q-49 0 -95.5 -30t-105.5 -111l-334 -455q83 -16 138 -74.5t83 -146.5t45 -178t40 -196t53 -173h-107q-23 50 -41 129.5t-28.5 151.5t-30.5 149t-47 132.5t-78 91.5t-123 36h-162l-145 -690h-92l284 1339h-391l19 84h483 l-139 -649h149l355 486q79 110 144.5 150t137.5 40z" />
<glyph unicode="&#x4a1;" horiz-adv-x="1239" d="M1135 1126q45 0 86 -18l-37 -78q-33 14 -60 14q-84 0 -168 -106l-270 -338q70 -14 116.5 -60t71 -114.5t40 -138.5t37 -152t48.5 -135h-106q-20 38 -37 98t-27 114.5t-28 113.5t-41 101t-66 69.5t-102 27.5h-133l-111 -524h-88l217 1020h-297l19 80h383l-105 -494h121 l287 367q68 87 128.5 120t121.5 33z" />
<glyph unicode="&#x4a2;" horiz-adv-x="1439" d="M1415 1423l-285 -1339h95l-95 -449h-81l75 365h-104l143 680h-831l-144 -680h-92l303 1423h93l-142 -661h832l141 661h92z" />
<glyph unicode="&#x4a3;" horiz-adv-x="1255" d="M1178 1100l-217 -1020h81l-94 -445h-82l76 365h-88l111 518h-689l-110 -518h-88l233 1100h88l-106 -502h688l106 502h91z" />
<glyph unicode="&#x4aa;" horiz-adv-x="1253" d="M889 1450q169 0 271 -77t126 -189l-92 -35q-65 215 -311 215q-119 0 -225 -51t-183.5 -138t-134 -199.5t-85 -239t-28.5 -253.5q0 -208 102.5 -316t278.5 -108q253 0 406 215l76 -34q-153 -239 -435 -265q-17 -65 -40 -114t-62 -93t-99.5 -67t-140.5 -23l17 74 q103 0 157.5 59.5t81.5 161.5q-202 6 -319 134t-117 364q0 151 33 294.5t98.5 267t155.5 217t211 147t258 53.5z" />
<glyph unicode="&#x4ab;" horiz-adv-x="974" d="M633 1042q-98 0 -187.5 -60t-150.5 -154.5t-97 -210.5t-36 -228q0 -153 68.5 -241.5t189.5 -88.5q99 0 190.5 56t151.5 153l74 -30q-52 -99 -147 -169.5t-216 -88.5q-16 -67 -39 -116.5t-61.5 -94t-99.5 -68t-142 -23.5l16 74q103 0 158 59.5t82 161.5q-147 6 -232 114.5 t-85 287.5q0 105 26.5 212.5t78 203.5t119.5 171t159 119.5t190 44.5q131 0 212 -74t87 -192l-86 -29q-9 97 -70 154t-153 57z" />
<glyph unicode="&#x4ae;" horiz-adv-x="1157" d="M414 0l114 535l-264 888h103l229 -784l567 784h103l-645 -888l-115 -535h-92z" />
<glyph unicode="&#x4af;" horiz-adv-x="968" d="M260 -399l105 487l-172 1012h102l135 -922l524 922h103l-602 -1012l-105 -487h-90z" />
<glyph unicode="&#x4b0;" horiz-adv-x="1157" d="M621 535l-23 -103h297l-16 -80h-297l-76 -352h-92l75 352h-303l19 80h301l22 103l-264 888h103l229 -784l567 784h103z" />
<glyph unicode="&#x4b1;" horiz-adv-x="968" d="M455 88l-4 -16h303l-21 -72h-297l-86 -399h-90l86 399h-309l22 72h301l5 16l-172 1012h102l135 -922l524 922h103z" />
<glyph unicode="&#x4b2;" horiz-adv-x="1280" d="M731 715l281 -631h86l-94 -449h-82l75 365h-59l-285 641l-557 -641h-100l622 721l-313 702h113l278 -628l535 628h100z" />
<glyph unicode="&#x4b3;" horiz-adv-x="948" d="M530 559l205 -479h68l-94 -445h-82l75 365h-40l-205 477l-404 -477h-108l477 557l-232 543h107l199 -463l391 463h108z" />
<glyph unicode="&#x4b6;" horiz-adv-x="1155" d="M1130 1423l-284 -1339h88l-94 -449h-82l76 365h-99l170 793q-64 -95 -169 -154t-214 -59q-154 0 -235.5 104t-46.5 266l102 473h92l-100 -462q-28 -130 35.5 -211.5t189.5 -81.5q139 0 250 103t145 265l84 387h92z" />
<glyph unicode="&#x4b7;" horiz-adv-x="980" d="M905 1100l-217 -1020h41l-94 -445h-82l76 365h-49l120 571q-62 -77 -150.5 -118t-176.5 -41q-57 0 -104.5 17.5t-82.5 53t-47.5 89.5t0.5 128l86 400h90l-82 -387q-23 -106 27.5 -162.5t142.5 -56.5q110 0 210 73.5t128 200.5l72 332h92z" />
<glyph unicode="&#x4ba;" horiz-adv-x="1175" d="M78 0l303 1423h92l-170 -792q64 95 168 154t213 59q154 0 235 -104t48 -267l-101 -473h-92l96 463q28 130 -35 211.5t-188 81.5q-139 0 -250 -103.5t-145 -265.5l-82 -387h-92z" />
<glyph unicode="&#x4bb;" horiz-adv-x="1144" d="M78 0l325 1536h89l-132 -621q51 83 146.5 147t208.5 64q159 0 235.5 -110.5t32.5 -317.5l-149 -698h-89l146 686q37 171 -25 262.5t-186 91.5q-119 0 -227 -98t-144 -274l-143 -668h-88z" />
<glyph unicode="&#x4c0;" horiz-adv-x="516" d="M96 0l303 1423h93l-304 -1423h-92z" />
<glyph unicode="&#x4c9;" horiz-adv-x="1439" d="M1415 1423l-285 -1339h113l-239 -451h-78l182 367h-88l143 680h-831l-144 -680h-92l303 1423h93l-142 -661h832l141 661h92z" />
<glyph unicode="&#x4ca;" horiz-adv-x="1261" d="M1178 1100l-215 -1016h131l-240 -451h-78l182 367h-104l111 518h-689l-110 -518h-88l233 1100h88l-106 -502h688l106 502h91z" />
<glyph unicode="&#x4cf;" horiz-adv-x="477" d="M78 0l233 1100h88l-233 -1100h-88z" />
<glyph unicode="&#x4d8;" horiz-adv-x="1259" d="M705 1450q97 0 182.5 -32.5t154 -95.5t108.5 -165.5t40 -232.5q0 -118 -22 -233.5t-63 -221.5t-104 -196.5t-141.5 -157t-180 -104.5t-214.5 -38q-98 0 -177.5 30t-130 82t-77.5 118.5t-27 142.5q0 78 27.5 154t84 144.5t135 120t190 82t239.5 30.5q165 0 363 -56 q4 66 4 99q0 108 -33 194.5t-89.5 140t-128 81.5t-151.5 28q-112 0 -220 -53.5t-181 -151.5l-55 66q86 108 210.5 166.5t256.5 58.5zM481 59q154 0 283 96.5t208.5 248.5t108.5 335q-188 56 -352 56q-113 0 -210 -26.5t-164 -70.5t-115 -101t-70.5 -119t-22.5 -124 q0 -124 88 -209.5t246 -85.5z" />
<glyph unicode="&#x4d9;" horiz-adv-x="993" d="M571 1126q161 0 256 -107t95 -292q0 -141 -41.5 -276t-114 -241.5t-181 -171.5t-233.5 -65q-123 0 -188.5 56t-65.5 143q0 70 42.5 144.5t118 138t194.5 104.5t258 41q51 0 106 -6q8 49 8 113q0 156 -71 244.5t-203 88.5q-104 0 -205.5 -56t-165.5 -157l-67 45 q69 119 187 186.5t271 67.5zM367 57q104 0 195 65t150.5 166.5t88.5 225.5q-49 6 -96 6q-116 0 -217 -32.5t-164 -83t-98.5 -107.5t-35.5 -109q0 -58 45.5 -94.5t131.5 -36.5z" />
<glyph unicode="&#x4e2;" horiz-adv-x="1409" d="M715 1669l16 74h483l-16 -74h-483zM96 0l303 1423h93l-273 -1269l1069 1269h94l-303 -1423h-92l270 1272l-1067 -1272h-94z" />
<glyph unicode="&#x4e3;" horiz-adv-x="1026" d="M422 1346l16 73h484l-17 -73h-483zM330 -27q-151 0 -220 101.5t-36 257.5l164 768h88l-160 -756q-29 -135 25 -211t174 -76q124 0 237 99.5t148 263.5l143 680h90l-172 -811q-40 -182 -16 -289h-90q-20 69 2 193q-56 -88 -157.5 -154t-219.5 -66z" />
<glyph unicode="&#x4e8;" horiz-adv-x="1339" d="M860 1450q202 0 311 -116t109 -345q0 -152 -30.5 -299t-92.5 -276.5t-148 -228t-205.5 -155.5t-256.5 -57q-187 0 -301.5 125.5t-114.5 354.5q0 149 30.5 293t92 271.5t147.5 224t204.5 152.5t254.5 56zM844 1364q-91 0 -173.5 -32.5t-146.5 -89t-116.5 -134 t-88.5 -166.5t-59 -188h905q21 114 21 229q0 193 -89 287t-253 94zM567 59q87 0 166.5 32.5t143.5 89t117.5 134.5t92 168t62.5 191h-905q-19 -114 -19 -217q0 -190 95 -294t247 -104z" />
<glyph unicode="&#x4e9;" horiz-adv-x="1060" d="M651 1126q165 0 253.5 -96t88.5 -276q0 -116 -26 -229.5t-77 -212.5t-120.5 -175t-163.5 -120t-200 -44q-163 0 -250.5 97t-87.5 278q0 145 41 284t114 249t185 177.5t243 67.5zM635 1042q-110 0 -203 -64t-152 -164.5t-90 -225.5h697q12 74 12 147q0 148 -67.5 227.5 t-196.5 79.5zM424 57q110 0 203.5 65t153 165.5t91.5 226.5h-698q-12 -74 -12 -149q0 -148 67.5 -228t194.5 -80z" />
<glyph unicode="&#x4ee;" horiz-adv-x="1142" d="M1032 1743l-16 -74h-484l17 74h483zM1153 1423h100l-708 -1134q-58 -93 -114 -153.5t-114 -93t-113.5 -44.5t-127.5 -12l12 86q53 0 95.5 9.5t91.5 35.5t99 79.5t101 135.5l8 12l-219 1079h98l193 -964z" />
<glyph unicode="&#x4ef;" horiz-adv-x="1026" d="M936 1419l-16 -73h-484l17 73h483zM975 1100h98l-680 -1202q-184 -324 -510 -324l11 86q53 0 106 14t108.5 44t109 84t95.5 126l39 68l-180 1104h96l160 -969z" />
<glyph unicode="&#x1e80;" horiz-adv-x="1830" d="M1360 1595l-471 144l31 71l469 -147zM340 0l-57 1423h98l43 -1310l620 1310h119l58 -1310l602 1310h98l-664 -1423h-118l-62 1300l-618 -1300h-119z" />
<glyph unicode="&#x1e81;" horiz-adv-x="1622" d="M1182 1272l-471 143l30 72l469 -148zM295 0l-94 1100h92l80 -983l501 983h109l78 -983l500 983h94l-563 -1100h-107l-80 997l-506 -997h-104z" />
<glyph unicode="&#x1e82;" horiz-adv-x="1830" d="M907 1575l-22 67l483 189l27 -74zM340 0l-57 1423h98l43 -1310l620 1310h119l58 -1310l602 1310h98l-664 -1423h-118l-62 1300l-618 -1300h-119z" />
<glyph unicode="&#x1e83;" horiz-adv-x="1622" d="M729 1251l-22 68l483 188l27 -73zM295 0l-94 1100h92l80 -983l501 983h109l78 -983l500 983h94l-563 -1100h-107l-80 997l-506 -997h-104z" />
<glyph unicode="&#x1e84;" horiz-adv-x="1830" d="M993 1628q-22 0 -36.5 15t-14.5 38q0 30 22 53t56 23q22 0 36.5 -14t14.5 -37q0 -31 -22.5 -54.5t-55.5 -23.5zM1303 1628q-22 0 -37 15t-15 38q0 30 22 53t56 23q22 0 36.5 -14t14.5 -37q0 -32 -22 -55t-55 -23zM340 0l-57 1423h98l43 -1310l620 1310h119l58 -1310 l602 1310h98l-664 -1423h-118l-62 1300l-618 -1300h-119z" />
<glyph unicode="&#x1e85;" horiz-adv-x="1622" d="M815 1305q-22 0 -36.5 15t-14.5 38q0 30 22 53t56 23q22 0 36.5 -14.5t14.5 -37.5q0 -31 -22.5 -54t-55.5 -23zM1124 1305q-22 0 -36.5 15t-14.5 38q0 30 22 53t56 23q22 0 36.5 -14.5t14.5 -37.5q0 -31 -22.5 -54t-55.5 -23zM295 0l-94 1100h92l80 -983l501 983h109 l78 -983l500 983h94l-563 -1100h-107l-80 997l-506 -997h-104z" />
<glyph unicode="&#x1e9e;" horiz-adv-x="1341" d="M721 -27q-103 0 -182 54t-107 157l76 49q19 -86 81.5 -130t141.5 -44q100 0 186.5 65t134.5 163t48 200q0 119 -77 194t-224 75q-38 0 -76 -17l-23 70l435 412q-48 80 -122 110.5t-182 30.5q-68 0 -134.5 -24t-128 -70.5t-108 -125t-67.5 -179.5l-205 -963h-92l205 965 q25 118 82.5 212.5t133.5 153t163 89t176 30.5q145 0 249 -59.5t146 -159.5l-424 -404q181 4 275 -86.5t94 -234.5q0 -136 -58 -257t-169 -198.5t-248 -77.5z" />
<glyph unicode="&#x1ea0;" horiz-adv-x="1146" d="M985 0h-94l-45 391h-613l-210 -391h-95l774 1423h115zM279 475h557l-99 856zM422 -168q22 0 37.5 -14t15.5 -35q0 -30 -24.5 -53t-55.5 -23q-20 0 -34.5 13t-14.5 34q0 30 24 54t52 24z" />
<glyph unicode="&#x1ea1;" horiz-adv-x="1120" d="M399 -27q-163 0 -246 99t-83 274q0 150 39 289.5t110 249t181.5 175.5t242.5 66q71 0 128.5 -23t93 -61.5t56 -82.5t25.5 -91l49 232h90l-180 -856q-22 -101 -22 -176q0 -38 6 -68h-92q-6 30 -6 68q0 70 20 168q-25 -49 -62.5 -93.5t-88.5 -83.5t-119 -62.5t-142 -23.5z M428 57q87 0 164 40.5t132.5 109t96 156.5t60.5 184.5t20 191.5q0 147 -67.5 225t-194.5 78q-86 0 -163 -40t-133 -107.5t-97 -154.5t-61.5 -183t-20.5 -190q0 -149 68.5 -229.5t195.5 -80.5zM375 -293q-20 0 -34.5 13t-14.5 34q0 30 23.5 54t51.5 24q22 0 38 -14t16 -35 q0 -30 -24.5 -53t-55.5 -23z" />
<glyph unicode="&#x1eb8;" horiz-adv-x="1150" d="M96 0l303 1423h740l-21 -84h-647l-121 -577h568l-21 -84h-565l-127 -594h704l-16 -84h-797zM430 -293q-20 0 -34.5 13t-14.5 34q0 30 24 54t52 24q22 0 37.5 -14t15.5 -35q0 -30 -24.5 -53t-55.5 -23z" />
<glyph unicode="&#x1eb9;" horiz-adv-x="995" d="M442 59q104 0 205.5 56t165.5 157l68 -45q-69 -119 -187.5 -186.5t-271.5 -67.5q-160 0 -255 107.5t-95 292.5q0 112 25.5 222t76 205.5t118.5 168.5t158.5 115t190.5 42q123 0 188.5 -56t65.5 -142q0 -56 -26 -115t-78.5 -115t-124 -100t-171.5 -71t-212 -27 q-51 0 -107 6q-8 -49 -8 -113q0 -156 71 -245t203 -89zM627 1042q-79 0 -151 -37.5t-126.5 -101t-94.5 -145t-62 -172.5q49 -6 96 -6q116 0 216.5 32.5t163.5 82.5t98.5 107t35.5 109q0 58 -45 94.5t-131 36.5zM401 -168q22 0 38 -14t16 -35q0 -30 -24.5 -53t-55.5 -23 q-20 0 -34.5 13t-14.5 34q0 30 23.5 54t51.5 24z" />
<glyph unicode="&#x1ebc;" horiz-adv-x="1150" d="M655 1628l-65 17q16 57 55 93t92 36q35 0 104.5 -15.5t94.5 -15.5q66 0 88 82l68 -17q-20 -59 -63.5 -97t-104.5 -38q-38 0 -105 14.5t-88 14.5q-31 0 -48 -17t-28 -57zM96 0l303 1423h740l-21 -84h-647l-121 -577h568l-21 -84h-565l-127 -594h704l-16 -84h-797z" />
<glyph unicode="&#x1ebd;" horiz-adv-x="995" d="M584 1378q-32 0 -48.5 -17t-27.5 -56l-66 16q16 56 55 92.5t93 36.5q35 0 104 -15.5t94 -15.5q67 0 89 82l67 -16q-20 -59 -63.5 -97t-104.5 -38q-38 0 -104.5 14t-87.5 14zM283 500q-51 0 -107 6q-8 -49 -8 -113q0 -156 71 -245t203 -89q104 0 205.5 56t165.5 157 l68 -45q-69 -119 -187.5 -186.5t-271.5 -67.5q-160 0 -255 107.5t-95 292.5q0 112 25.5 222t76 205.5t118.5 168.5t158.5 115t190.5 42q123 0 188.5 -56t65.5 -142q0 -56 -26 -115t-78.5 -115t-124 -100t-171.5 -71t-212 -27zM627 1042q-79 0 -151 -37.5t-126.5 -101 t-94.5 -145t-62 -172.5q49 -6 96 -6q116 0 216.5 32.5t163.5 82.5t98.5 107t35.5 109q0 58 -45 94.5t-131 36.5z" />
<glyph unicode="&#x1eca;" horiz-adv-x="516" d="M96 0l303 1423h93l-304 -1423h-92zM78 -293q-20 0 -34.5 13t-14.5 34q0 30 23.5 54t51.5 24q22 0 38 -14t16 -35q0 -30 -24.5 -53t-55.5 -23z" />
<glyph unicode="&#x1ecb;" horiz-adv-x="477" d="M422 1405q-25 0 -41 19.5t-10 48.5q6 30 29.5 48.5t50.5 18.5t43 -18.5t10 -48.5q-6 -29 -30 -48.5t-52 -19.5zM78 0l233 1100h88l-233 -1100h-88zM57 -293q-20 0 -34.5 13t-14.5 34q0 30 24 54t52 24q22 0 37.5 -14t15.5 -35q0 -30 -24.5 -53t-55.5 -23z" />
<glyph unicode="&#x1ecc;" horiz-adv-x="1339" d="M547 -27q-187 0 -301.5 125.5t-114.5 354.5q0 149 30.5 293t92 271.5t147.5 224t204.5 152.5t254.5 56q202 0 311 -116t109 -345q0 -152 -30.5 -299t-92.5 -276.5t-148 -228t-205.5 -155.5t-256.5 -57zM567 59q113 0 213.5 54t173 146t126 210.5t80 250t26.5 263.5 q0 193 -89 287t-253 94q-119 0 -221.5 -54t-174 -144.5t-123 -208t-76 -245t-24.5 -255.5q0 -190 95 -294t247 -104zM492 -293q-20 0 -35 13t-15 34q0 30 24 54t52 24q22 0 37.5 -14t15.5 -35q0 -30 -24 -53t-55 -23z" />
<glyph unicode="&#x1ecd;" horiz-adv-x="1060" d="M406 -27q-163 0 -250.5 97t-87.5 278q0 145 41 284t114 249t185 177.5t243 67.5q165 0 253.5 -96t88.5 -276q0 -116 -26 -229.5t-77 -212.5t-120.5 -175t-163.5 -120t-200 -44zM424 57q108 0 200 61.5t150.5 160t91.5 217.5t33 239q0 148 -67.5 227.5t-196.5 79.5 q-87 0 -163.5 -40t-132.5 -107.5t-96.5 -155t-60.5 -183.5t-20 -191q0 -148 67.5 -228t194.5 -80zM350 -293q-20 0 -34.5 13t-14.5 34q0 30 24 54t52 24q22 0 37.5 -14t15.5 -35q0 -30 -24.5 -53t-55.5 -23z" />
<glyph unicode="&#x1ee4;" horiz-adv-x="1298" d="M541 -27q-207 0 -308 141.5t-45 401.5l195 907h92l-194 -907q-16 -77 -17.5 -144t15.5 -125t51 -99.5t92.5 -65t136.5 -23.5q79 0 145 24t112.5 64.5t83 100t59.5 124.5t40 144l195 907h94l-194 -917q-59 -272 -194 -402.5t-359 -130.5zM465 -293q-20 0 -34.5 13 t-14.5 34q0 30 24 54t52 24q22 0 37.5 -14t15.5 -35q0 -30 -24.5 -53t-55.5 -23z" />
<glyph unicode="&#x1ee5;" horiz-adv-x="1026" d="M330 -27q-151 0 -220 101.5t-36 257.5l164 768h88l-160 -756q-29 -135 25 -211t174 -76q124 0 237 99.5t148 263.5l143 680h90l-172 -811q-40 -182 -16 -289h-90q-20 69 2 193q-56 -88 -157.5 -154t-219.5 -66zM303 -293q-20 0 -34.5 13t-14.5 34q0 30 24 54t52 24 q22 0 37.5 -14t15.5 -35q0 -30 -24.5 -53t-55.5 -23z" />
<glyph unicode="&#x1ef2;" horiz-adv-x="1157" d="M1022 1595l-471 144l31 71l469 -147zM414 0l114 535l-264 888h103l229 -784l567 784h103l-645 -888l-115 -535h-92z" />
<glyph unicode="&#x1ef3;" horiz-adv-x="1003" d="M856 1272l-471 143l31 72l469 -148zM293 -426q-138 0 -226 67.5t-108 194.5l80 33q15 -103 81.5 -158t180.5 -55q71 0 142.5 36t131.5 112.5t80 177.5l47 217q-56 -88 -154.5 -152.5t-215.5 -64.5q-151 0 -220.5 100t-35.5 254l162 764h88l-160 -750q-27 -135 27 -211 t174 -76q124 0 236 99t147 262l143 676h90l-238 -1114q-28 -132 -96 -226.5t-159 -140t-197 -45.5z" />
<glyph unicode="&#x1ef8;" horiz-adv-x="1157" d="M647 1628l-65 17q16 57 55 93t92 36q35 0 104.5 -15.5t94.5 -15.5q66 0 88 82l67 -17q-20 -59 -63.5 -97t-104.5 -38q-38 0 -104.5 14.5t-87.5 14.5q-31 0 -48 -17t-28 -57zM414 0l114 535l-264 888h103l229 -784l567 784h103l-645 -888l-115 -535h-92z" />
<glyph unicode="&#x1ef9;" horiz-adv-x="1003" d="M481 1305l-65 16q16 57 55 93t92 36q35 0 104.5 -15.5t94.5 -15.5q66 0 88 82l68 -16q-20 -59 -63.5 -97t-104.5 -38q-38 0 -105 14t-88 14q-31 0 -48 -17t-28 -56zM293 -426q-138 0 -226 67.5t-108 194.5l80 33q15 -103 81.5 -158t180.5 -55q71 0 142.5 36t131.5 112.5 t80 177.5l47 217q-56 -88 -154.5 -152.5t-215.5 -64.5q-151 0 -220.5 100t-35.5 254l162 764h88l-160 -750q-27 -135 27 -211t174 -76q124 0 236 99t147 262l143 676h90l-238 -1114q-28 -132 -96 -226.5t-159 -140t-197 -45.5z" />
<glyph unicode="&#x1f74;" horiz-adv-x="1185" d="M778 1210h-84l-164 367h93zM700 -399l232 1085q37 171 -25 262.5t-186 91.5q-76 0 -149.5 -39.5t-135.5 -126.5t-86 -206l-143 -668h-88l182 862q22 104 -0.5 144.5t-81.5 40.5q-27 0 -57 -9l16 76q37 12 72 12q78 0 117.5 -48.5t23.5 -155.5q56 85 151 144.5t210 59.5 q159 0 237.5 -109.5t34.5 -318.5l-236 -1097h-88z" />
<glyph unicode="&#x1fef;" horiz-adv-x="1245" d="M801 1210h-84l-164 367h92z" />
<glyph unicode="&#x2000;" horiz-adv-x="1083" />
<glyph unicode="&#x2001;" horiz-adv-x="2167" />
<glyph unicode="&#x2002;" horiz-adv-x="1083" />
<glyph unicode="&#x2003;" horiz-adv-x="2167" />
<glyph unicode="&#x2004;" horiz-adv-x="722" />
<glyph unicode="&#x2005;" horiz-adv-x="541" />
<glyph unicode="&#x2006;" horiz-adv-x="361" />
<glyph unicode="&#x2007;" horiz-adv-x="361" />
<glyph unicode="&#x2008;" horiz-adv-x="270" />
<glyph unicode="&#x2009;" horiz-adv-x="433" />
<glyph unicode="&#x200a;" horiz-adv-x="120" />
<glyph unicode="&#x2010;" horiz-adv-x="907" d="M156 631l22 102h629l-23 -102h-628z" />
<glyph unicode="&#x2011;" horiz-adv-x="907" d="M156 631l22 102h629l-23 -102h-628z" />
<glyph unicode="&#x2012;" horiz-adv-x="907" d="M156 631l22 102h629l-23 -102h-628z" />
<glyph unicode="&#x2013;" horiz-adv-x="1247" d="M158 641l16 84h971l-19 -84h-968z" />
<glyph unicode="&#x2014;" horiz-adv-x="1665" d="M158 641l16 84h1389l-19 -84h-1386z" />
<glyph unicode="&#x2018;" horiz-adv-x="456" d="M358 1130q-82 0 -82 97q0 90 68.5 189t157.5 136l28 -47q-65 -32 -121 -107t-57 -138q20 14 43 14q27 0 41.5 -15t14.5 -40q0 -34 -25.5 -61.5t-67.5 -27.5z" />
<glyph unicode="&#x2019;" horiz-adv-x="454" d="M291 1139l-25 51q58 28 109.5 98.5t64.5 143.5q-17 -17 -43 -17q-23 0 -40 16.5t-17 47.5q0 39 24.5 60.5t59.5 21.5q37 0 65.5 -26.5t28.5 -72.5q0 -91 -69 -188.5t-158 -134.5z" />
<glyph unicode="&#x201a;" horiz-adv-x="407" d="M-14 -190l-25 51q58 29 109 92.5t63 120.5q1 5 2 14.5t2 13.5q-22 -14 -45 -14q-28 0 -44 19.5t-9 50.5q6 30 30 51.5t58 21.5q54 0 73.5 -39t8.5 -102q-19 -82 -80 -163.5t-143 -116.5z" />
<glyph unicode="&#x201c;" horiz-adv-x="698" d="M365 1126q-38 0 -64.5 26.5t-26.5 72.5q0 89 69 187.5t157 135.5l24 -51q-58 -28 -109.5 -98.5t-64.5 -141.5q21 15 43 15q23 0 40.5 -16.5t17.5 -45.5q0 -37 -24.5 -60.5t-61.5 -23.5zM610 1126q-38 0 -65 27t-27 72q0 89 69.5 187.5t157.5 135.5l25 -51 q-58 -28 -109.5 -98.5t-64.5 -141.5q21 15 43 15q23 0 40 -16.5t17 -45.5q0 -36 -25 -60t-61 -24z" />
<glyph unicode="&#x201d;" horiz-adv-x="698" d="M291 1139l-25 51q58 28 109.5 98.5t64.5 143.5q-17 -17 -43 -17q-23 0 -40 16.5t-17 47.5q0 39 24.5 60.5t59.5 21.5q37 0 65.5 -26.5t28.5 -72.5q0 -91 -69 -188.5t-158 -134.5zM535 1139l-23 51q58 28 109.5 98.5t64.5 143.5q-20 -17 -43 -17t-40 16.5t-17 47.5 q0 39 24.5 60.5t57.5 21.5q38 0 66 -26t28 -73q0 -92 -68.5 -189t-158.5 -134z" />
<glyph unicode="&#x201e;" horiz-adv-x="667" d="M-14 -190l-25 51q58 29 109 92.5t63 120.5q1 5 2 14.5t2 13.5q-22 -14 -45 -14q-28 0 -44 19.5t-9 50.5q6 30 30 51.5t58 21.5q54 0 73.5 -39t8.5 -102q-19 -82 -80 -163.5t-143 -116.5zM244 -190l-23 51q58 29 108 92t62 121q4 20 4 28q-22 -14 -43 -14 q-29 0 -44.5 19.5t-8.5 50.5q6 30 30 51.5t58 21.5q54 0 73.5 -39t8.5 -102q-19 -82 -80.5 -163.5t-144.5 -116.5z" />
<glyph unicode="&#x2020;" horiz-adv-x="970" d="M346 0l51 254q2 12 11.5 57.5t11.5 56.5t9 48t9 49.5t7 42.5t6.5 46t4 40.5t3 45t0.5 42.5q54 98 98 317q-86 -2 -181.5 -11t-119.5 -9q-22 0 -31 13t-4 32q3 18 18 31.5t37 13.5q23 0 115 -8t178 -10q22 114 35.5 221.5t16.5 122.5q12 47 55 47q18 0 27.5 -12.5 t5.5 -34.5q-5 -24 -36.5 -129.5t-56.5 -214.5q87 2 180.5 10t118.5 8q22 0 31 -13t6 -32q-12 -45 -57 -45q-22 0 -112.5 9t-178.5 11q-43 -243 -35 -317q-13 -32 -25.5 -67.5t-20 -59t-19.5 -71t-16 -64.5t-19.5 -82.5t-19.5 -83.5l-58 -254h-45z" />
<glyph unicode="&#x2021;" horiz-adv-x="1085" d="M424 -14q-44 0 -35 47q2 7 35 117.5t57 226.5q-85 -2 -179.5 -11.5t-117.5 -9.5t-32.5 13t-6.5 32q12 48 56 48q21 0 113 -10t180 -11q40 194 28 285q55 99 92 286q-86 -2 -181.5 -11t-119.5 -9q-22 0 -30.5 13t-3.5 32q3 18 18 31.5t37 13.5q23 0 115 -8t178 -10 q22 114 35 221.5t16 122.5q12 47 55 47q18 0 27.5 -12.5t5.5 -34.5q-5 -24 -36 -129.5t-56 -214.5q87 2 180.5 10t118.5 8q22 0 31 -13t6 -32q-12 -45 -58 -45q-22 0 -112 9t-178 11q-37 -210 -29 -286q-55 -105 -92 -285q89 1 184 11t115 10q23 0 32.5 -13.5t6.5 -32.5 q-5 -20 -19.5 -33.5t-36.5 -13.5q-24 0 -115.5 9.5t-177.5 11.5q-21 -109 -35 -214.5t-20 -129.5q-3 -23 -17.5 -35t-33.5 -12z" />
<glyph unicode="&#x2022;" horiz-adv-x="432" d="M225 592q-52 0 -76.5 33t-13.5 86q10 52 49 85t90 33q52 0 78 -32.5t15 -85.5q-10 -52 -50.5 -85.5t-91.5 -33.5z" />
<glyph unicode="&#x2026;" horiz-adv-x="966" d="M68 -14q-30 0 -46 20t-10 53q8 31 32.5 51.5t53.5 20.5q32 0 48 -20.5t8 -51.5q-6 -33 -29.5 -53t-56.5 -20zM362 -14q-31 0 -46 19.5t-9 53.5q8 31 32 51.5t54 20.5q31 0 47 -20.5t9 -51.5q-6 -33 -30.5 -53t-56.5 -20zM657 -14q-31 0 -46.5 20t-8.5 53q6 31 30.5 51.5 t55.5 20.5t47 -20.5t10 -51.5q-7 -33 -32 -53t-56 -20z" />
<glyph unicode="&#x202f;" horiz-adv-x="282" />
<glyph unicode="&#x2030;" horiz-adv-x="1982" d="M326 696q-113 0 -152 97t0 274q37 176 116.5 272.5t192.5 96.5q117 0 158 -96t4 -273q-39 -179 -120.5 -275t-198.5 -96zM231 0l928 1423h82l-928 -1423h-82zM340 762q81 0 140.5 79t90.5 226q32 145 6.5 224t-106.5 79q-78 0 -136 -79t-89 -224q-31 -146 -7 -225.5 t101 -79.5zM981 -14q-113 0 -152 96t-2 274q37 176 118 272.5t194 96.5q116 0 156 -96t3 -273q-37 -178 -119 -274t-198 -96zM1563 -14q-114 0 -152.5 95.5t-1.5 274.5q37 177 117 273t194 96q115 0 155 -96.5t3 -272.5q-37 -178 -118.5 -274t-196.5 -96zM997 51 q80 0 139.5 79.5t90.5 225.5q31 145 4.5 224t-105.5 79t-136.5 -78.5t-88.5 -224.5t-7 -225.5t103 -79.5zM1577 51q81 0 139.5 79t89.5 226q32 145 6.5 224t-106.5 79q-78 0 -136 -79t-89 -224q-31 -146 -6.5 -225.5t102.5 -79.5z" />
<glyph unicode="&#x2039;" horiz-adv-x="530" d="M287 303l-142 359l293 358l66 -27l-268 -331l126 -332z" />
<glyph unicode="&#x203a;" horiz-adv-x="530" d="M139 303l-65 27l270 332l-129 331l78 27l141 -358z" />
<glyph unicode="&#x2044;" horiz-adv-x="243" d="M-268 0h-80l928 1423h82z" />
<glyph unicode="&#x205f;" horiz-adv-x="541" />
<glyph unicode="&#x20ac;" horiz-adv-x="1126" d="M879 1450q77 0 134.5 -23.5t90 -64t49.5 -85t23 -97.5l-91 -31q-8 44 -21 78t-37 67.5t-66.5 51.5t-100.5 18q-147 0 -261 -122t-187 -351h551l-27 -68h-545q-13 -46 -26 -112q-22 -112 -23 -119h500l-29 -68h-479q-23 -225 40 -345t210 -120q187 0 315 215l78 -30 q-21 -38 -48 -74t-65.5 -72.5t-82 -63.5t-100 -44t-116.5 -17q-190 0 -272.5 142.5t-54.5 408.5h-162l16 68h154q5 30 22 119q10 50 27 112h-156l15 68h161q84 270 228 414.5t336 144.5z" />
<glyph unicode="&#x20bd;" horiz-adv-x="1034" d="M717 1423q79 0 141.5 -21t101 -57.5t62.5 -85t26 -103.5t-8 -114q-16 -72 -56 -138.5t-100 -120t-145.5 -85.5t-183.5 -32h-209l-53 -254h282l-18 -84h-283l-69 -328h-92l69 328h-180l16 84h183l53 254h-180l16 84h182l144 673h301zM946 1044q16 76 -4.5 141.5t-86 109.5 t-167.5 44h-199l-124 -589h198q151 0 253.5 87t129.5 207z" />
<glyph unicode="&#x2113;" horiz-adv-x="747" d="M244 457l-27 -121q-9 -55 -10.5 -95.5t11.5 -69.5t29 -47t40 -28t45 -14t45 -4l-25 -82q-37 0 -69.5 6.5t-64 21.5t-53.5 40t-37 62t-15 87.5t12 116.5l154 712h-3l37 168q23 109 93.5 174.5t158.5 65.5q93 0 134.5 -65.5t19.5 -170.5q-48 -224 -165 -401t-310 -356z M403 1214l-26 -129l-113 -526q70 72 122 134.5t105.5 143t91.5 174t60 197.5q15 74 -8.5 119t-77.5 45t-96.5 -43.5t-57.5 -114.5z" />
<glyph unicode="&#x2116;" horiz-adv-x="1949" d="M1636 950q-100 0 -153.5 73t-30.5 177q22 103 107 176.5t184 73.5q98 0 153 -73.5t33 -176.5q-22 -104 -107.5 -177t-185.5 -73zM96 0l303 1423h95l526 -1269l270 1269h92l-303 -1423h-94l-528 1272l-269 -1272h-92zM1653 1016q71 0 133.5 54t77.5 130q17 75 -22.5 129.5 t-110.5 54.5q-73 0 -135.5 -54.5t-77.5 -129.5q-17 -77 22.5 -130.5t112.5 -53.5zM1389 784l14 66h426l-14 -66h-426z" />
<glyph unicode="&#x2122;" horiz-adv-x="1409" d="M399 786l123 570h-190l14 67h445l-15 -67h-190l-121 -570h-66zM754 786l137 637h90l94 -403l268 403h93l-136 -637h-65l115 537l-263 -393h-63l-92 393l-113 -537h-65z" />
<glyph unicode="&#x212e;" horiz-adv-x="1624" d="M1006 1450q302 0 457.5 -177.5t97.5 -457.5l-13 -49h-1040l-133 -627q146 -112 375 -112q189 0 378.5 105t298.5 271l37 -28q-126 -177 -329.5 -289.5t-397.5 -112.5q-214 0 -363 92.5t-207 259t-13 377.5q45 216 169.5 387t303 266t379.5 95zM621 1294l-101 -477h697 l104 498q-133 82 -326 82q-198 0 -374 -103z" />
<glyph unicode="&#x2190;" horiz-adv-x="1718" d="M606 106l-416 596l672 596l49 -59l-555 -494h1246l-19 -86h-1245l344 -493z" />
<glyph unicode="&#x2191;" horiz-adv-x="1390" d="M537 0l272 1288l-561 -469l-45 64l684 561l442 -561l-72 -64l-362 469l-274 -1288h-84z" />
<glyph unicode="&#x2192;" horiz-adv-x="1718" d="M922 106l-52 60l555 493h-1245l19 86h1247l-346 494l76 59l417 -596z" />
<glyph unicode="&#x2193;" horiz-adv-x="1390" d="M573 -20l-444 561l74 63l362 -469l275 1288h84l-273 -1288l561 469l45 -63z" />
<glyph unicode="&#x2194;" horiz-adv-x="2101" d="M1561 1298l417 -596l-673 -596l-50 60l555 493h-1472l344 -493l-76 -60l-416 596l672 596l49 -59l-555 -494h1473l-344 494z" />
<glyph unicode="&#x2195;" horiz-adv-x="1390" d="M1280 922l-365 469l-55 -258h2l-176 -828l-43 -203l-55 -258l561 469l47 -63l-684 -563l-442 563l71 63l361 -469l274 1289l55 258l-561 -469l-45 63l682 561l445 -561z" />
<glyph unicode="&#x2196;" horiz-adv-x="1323" d="M1012 63l-680 926l-158 -733h-84l186 881h844l-18 -86h-696l681 -928z" />
<glyph unicode="&#x2197;" horiz-adv-x="1323" d="M129 182l-49 60l1075 927h-696l18 84h844l-186 -880h-86l155 735z" />
<glyph unicode="&#x2198;" horiz-adv-x="1323" d="M248 170l16 86h697l-680 928l73 59l680 -926l158 736h84l-186 -883h-842z" />
<glyph unicode="&#x2199;" horiz-adv-x="1323" d="M41 27l186 880h86l-157 -735l1077 926l49 -60l-1077 -927h696l-18 -84h-842z" />
<glyph unicode="&#x2202;" horiz-adv-x="991" d="M246 -27q-144 0 -203.5 105t-22.5 278q27 131 81.5 229.5t124 155t145 84t155.5 27.5q101 0 176 -50t105 -120q46 118 78 274q42 196 -1 302t-177 106q-150 0 -289 -125l-35 66q165 145 352 145q96 0 157.5 -40.5t85 -112t23 -157t-23.5 -188.5q-34 -160 -85 -305 t-120 -268.5t-150 -213.5t-177.5 -141t-198.5 -51zM268 57q102 0 200.5 75t174 193.5t129.5 266.5q-28 72 -96 124t-166 52q-140 0 -247 -100.5t-152 -311.5q-28 -132 16 -215.5t141 -83.5z" />
<glyph unicode="&#x2205;" horiz-adv-x="1640" d="M1686 1399l-211 -187q69 -102 90.5 -228.5t-9.5 -274.5q-32 -150 -116.5 -286t-199.5 -234.5t-257 -157t-285 -58.5q-131 0 -240 48.5t-186 136.5l-209 -185l-36 52l206 182q-67 100 -88.5 227.5t7.5 274.5q43 201 173.5 371.5t313.5 270t373 99.5q130 0 239 -48.5 t185 -137.5l211 186zM240 709q-53 -255 67 -437l1055 928q-66 77 -161 119.5t-208 42.5q-166 0 -326.5 -87.5t-275 -238t-151.5 -327.5zM1468 709q55 252 -67 440l-1055 -928q66 -75 161 -117.5t208 -42.5q125 0 250 51.5t226 138.5t175 207t102 251z" />
<glyph unicode="&#x220f;" horiz-adv-x="1243" d="M119 0l282 1339h-170l19 84h1116l-18 -84h-172l-285 -1339h-92l284 1339h-589l-283 -1339h-92z" />
<glyph unicode="&#x2211;" horiz-adv-x="958" d="M-104 -340l16 78l561 805l-211 803l17 77h790l-18 -84h-691l205 -776l-8 -43l-545 -776h727l-16 -84h-827z" />
<glyph unicode="&#x2212;" horiz-adv-x="1089" d="M145 672l19 84h850l-21 -84h-848z" />
<glyph unicode="&#x221a;" horiz-adv-x="1157" d="M440 0l-143 1028l-180 -47l2 80l268 65l133 -1026l690 1350l84 -14l-743 -1436h-111z" />
<glyph unicode="&#x221e;" horiz-adv-x="1333" d="M362 485q-93 0 -145 64t-31 162t101.5 162.5t173.5 64.5q45 0 84.5 -15t72.5 -45.5t48.5 -48.5t40.5 -53q4 -5 6 -8q41 35 64 53.5t71.5 51.5t96.5 49t95 16q93 0 145.5 -64.5t31.5 -162.5t-101.5 -162t-173.5 -64q-38 0 -74.5 13t-60.5 29t-50 44t-37.5 43t-29.5 41 q-95 -80 -142 -109q-99 -61 -186 -61zM383 559q15 0 30.5 3t29 6.5t31 12t28 14t29.5 18t27 18t28 21t25 19.5t25.5 21t22.5 19q-23 31 -31.5 41.5t-33 38t-42.5 39t-46 23t-57 11.5q-64 0 -117 -42.5t-66 -110.5q-15 -67 19.5 -109.5t97.5 -42.5zM952 559q66 0 118 42 t67 110q15 69 -19.5 111t-99.5 42q-28 0 -60.5 -11.5t-55 -23t-59.5 -39t-49 -37.5t-49 -42q26 -35 39.5 -51.5t42.5 -45.5t59.5 -42t65.5 -13z" />
<glyph unicode="&#x222b;" horiz-adv-x="368" d="M-197 -426q-52 0 -75.5 28.5t-16.5 67.5q8 35 33.5 59.5t60.5 24.5q34 0 48.5 -18.5t9.5 -44.5q-12 -48 -47 -68q43 0 84 48.5t61 142.5l281 1319q18 89 49.5 153.5t68.5 98.5t73 49.5t73 15.5q51 0 74.5 -29t15.5 -67q-6 -34 -32 -59t-60 -25t-48.5 18.5t-9.5 44.5 q8 47 48 68q-42 0 -83 -48t-63 -143l-280 -1319q-35 -169 -109 -243t-156 -74z" />
<glyph unicode="&#x2248;" horiz-adv-x="1079" d="M182 838q18 90 87.5 154.5t164.5 64.5q46 0 101.5 -22t99.5 -49t97 -49t95 -22q57 0 103 38.5t61 103.5h76q-20 -90 -89.5 -154.5t-164.5 -64.5q-46 0 -101.5 22t-98 48.5t-96 48.5t-97.5 22q-57 0 -102.5 -38.5t-57.5 -102.5h-78zM106 479q20 90 88 154.5t162 64.5 q46 0 102 -22t100.5 -48.5t98 -48.5t95.5 -22q57 0 103.5 38.5t59.5 102.5h74q-20 -90 -88.5 -154.5t-163.5 -64.5q-46 0 -101 22t-98.5 49t-97 49t-96.5 22q-57 0 -103 -39t-59 -103h-76z" />
<glyph unicode="&#x2260;" horiz-adv-x="1089" d="M1055 958h-264l-353 -489h514l-18 -84h-555l-207 -287h-70l207 287h-223l16 84h267l352 489h-514l16 84h559l207 289h70l-207 -289h221z" />
<glyph unicode="&#x2264;" horiz-adv-x="1089" d="M907 264l-757 428l18 82l940 428l-21 -86l-835 -383l674 -383zM4 0l16 84h848l-16 -84h-848z" />
<glyph unicode="&#x2265;" horiz-adv-x="1089" d="M59 264l19 86l837 383l-675 383l20 86l756 -428l-17 -82zM4 0l16 84h848l-16 -84h-848z" />
<glyph unicode="&#x25ca;" horiz-adv-x="1046" d="M360 0l-227 713l531 710h92l229 -710l-532 -713h-93zM426 84l465 629l-199 628l-467 -628z" />
<glyph unicode="&#x25fc;" horiz-adv-x="1095" d="M0 1096h1096v-1096h-1096v1096z" />
<glyph unicode="&#xfb00;" horiz-adv-x="1134" d="M-205 -426l17 80q108 0 171.5 54.5t94.5 197.5l235 1112h-174l17 82h176l22 102q27 126 106.5 205.5t213.5 79.5q88 0 157 -43l-36 -78q-61 37 -127 37q-86 0 -143.5 -44t-80.5 -157l-22 -102h442l37 176q27 128 108 207.5t214 79.5q95 0 163 -45l-36 -78q-64 39 -133 39 q-86 0 -144 -44.5t-82 -158.5l-39 -176h271l-19 -82h-268l-217 -1018q-22 -100 -57.5 -168t-85 -104.5t-104.5 -51t-126 -14.5l16 80q107 0 171.5 54.5t95.5 197.5l217 1024h-443l-235 -1106q-21 -100 -56.5 -168t-85.5 -104t-105 -51t-126 -15z" />
<glyph unicode="&#xfb03;" horiz-adv-x="1560" d="M-205 -426l17 80q108 0 171.5 54.5t94.5 197.5l235 1112h-174l17 82h176l22 102q27 126 106.5 205.5t213.5 79.5q88 0 157 -43l-36 -78q-61 37 -127 37q-86 0 -143.5 -44t-80.5 -157l-22 -102h442l37 176q27 128 105 207.5t211 79.5q82 0 155 -43l-33 -78q-53 37 -122 37 q-86 0 -144 -44.5t-82 -158.5l-39 -176h533l-234 -1100h-88l215 1018h-442l-217 -1018q-22 -100 -57.5 -168t-85 -104.5t-104.5 -51t-126 -14.5l16 80q107 0 171.5 54.5t95.5 197.5l217 1024h-443l-235 -1106q-21 -100 -56.5 -168t-85.5 -104t-105 -51t-126 -15zM1483 1292 q-27 0 -42 19.5t-9 48.5q6 30 28.5 48.5t50.5 18.5q27 0 42.5 -18.5t9.5 -48.5q-6 -29 -29 -48.5t-51 -19.5z" />
</font>
</defs>
</svg>
